<svg width="45" height="45" viewBox="0 0 45 45" fill="none" xmlns="http://www.w3.org/2000/svg">
<path d="M22.4903 0C10.0693 0 3.76509e-05 9.98004 3.76509e-05 22.291C3.76509e-05 26.1532 0.99257 29.7905 2.73954 32.961L0.072156 42.214C-0.118824 42.8768 0.0759051 43.5898 0.578075 44.0664C1.08028 44.5427 1.80735 44.7047 2.46692 44.4866L11.2308 41.5914C14.5433 43.4935 18.391 44.5821 22.4903 44.5821C34.9112 44.5821 44.9805 34.602 44.9805 22.291C44.9805 9.98004 34.9112 0 22.4903 0ZM14.9935 18.5759C14.9935 17.55 15.8326 16.7183 16.8677 16.7183H28.1128C29.1479 16.7183 29.987 17.55 29.987 18.5759C29.987 19.6018 29.1479 20.4335 28.1128 20.4335H16.8677C15.8326 20.4335 14.9935 19.6018 14.9935 18.5759ZM16.8677 24.1486H24.3644C25.3995 24.1486 26.2386 24.9803 26.2386 26.0062C26.2386 27.0321 25.3995 27.8638 24.3644 27.8638H16.8677C15.8326 27.8638 14.9935 27.0321 14.9935 26.0062C14.9935 24.9803 15.8326 24.1486 16.8677 24.1486Z" fill="white" fill-opacity="0.6"/>
</svg>
