<svg width="45" height="45" viewBox="0 0 45 45" fill="none" xmlns="http://www.w3.org/2000/svg">
<path d="M6.42566 6.36889C6.42566 2.85145 9.30258 1.52588e-05 12.8514 1.52588e-05C16.4003 1.52588e-05 19.2772 2.85145 19.2772 6.36889C19.2772 8.42208 18.297 10.2484 16.775 11.413C16.7292 11.4465 16.6838 11.4804 16.6386 11.5146C15.5766 12.2838 14.2675 12.7378 12.8514 12.7378C9.30258 12.7378 6.42566 9.88632 6.42566 6.36889Z" fill="white" fill-opacity="0.6"/>
<path d="M28.2052 11.413C28.251 11.4465 28.2965 11.4804 28.3417 11.5146C29.4036 12.2838 30.7129 12.7378 32.1288 12.7378C35.6778 12.7378 38.5546 9.88632 38.5546 6.36889C38.5546 2.85145 35.6778 1.52588e-05 32.1288 1.52588e-05C28.5799 1.52588e-05 25.703 2.85145 25.703 6.36889C25.703 8.42208 26.6833 10.2484 28.2052 11.413Z" fill="white" fill-opacity="0.6"/>
<path d="M16.924 15.9222C18.0351 14.0186 20.1117 12.7378 22.4902 12.7378C24.8686 12.7378 26.9453 14.0186 28.0563 15.9222C28.6031 16.859 28.916 17.9466 28.916 19.1067C28.916 22.6241 26.039 25.4755 22.4902 25.4755C18.9413 25.4755 16.0644 22.6241 16.0644 19.1067C16.0644 17.9466 16.3773 16.859 16.924 15.9222Z" fill="white" fill-opacity="0.6"/>
<path d="M4.81928 15.9222H13.4C13.0448 16.9182 12.8516 17.9901 12.8516 19.1067C12.8516 21.5534 13.7796 23.7854 15.3059 25.4755H14.458C10.9715 25.4755 8.00396 27.6772 6.89317 30.754C5.80091 30.3136 4.79036 29.7382 3.89451 29.0255C1.47462 27.1004 0 24.253 0 20.6989C0 18.0609 2.15765 15.9222 4.81928 15.9222Z" fill="white" fill-opacity="0.6"/>
<path d="M30.5225 25.4755C34.0088 25.4755 36.9766 27.6771 38.0873 30.754C39.1796 30.3136 40.1901 29.7382 41.0862 29.0255C43.5058 27.1004 44.9805 24.253 44.9805 20.6989C44.9805 18.0608 42.8227 15.9222 40.1612 15.9222H31.5805C31.9355 16.9182 32.1289 17.9901 32.1289 19.1067C32.1289 21.5534 31.2007 23.7854 29.6746 25.4755H30.5225Z" fill="white" fill-opacity="0.6"/>
<path d="M34.9791 31.6151C35.2127 32.1765 35.3419 32.7917 35.3419 33.4366C35.3419 36.9907 33.8672 39.8383 31.4475 41.7632C29.0658 43.658 25.8737 44.5821 22.4903 44.5821C19.1069 44.5821 15.9149 43.658 13.5332 41.7632C11.1134 39.8383 9.63873 36.9907 9.63873 33.4366C9.63873 32.7917 9.76773 32.1765 10.0015 31.6151C10.724 29.8805 12.4472 28.6599 14.458 28.6599H30.5225C32.5335 28.6599 34.2566 29.8805 34.9791 31.6151Z" fill="white" fill-opacity="0.6"/>
</svg>
