<svg width="39" height="43" viewBox="0 0 39 43" fill="none" xmlns="http://www.w3.org/2000/svg">
<path d="M21.7328 0.899855C20.4799 -0.299931 18.5201 -0.299931 17.2672 0.899855L1.52581 15.9744C0.55185 16.9071 0 18.2049 0 19.5625V37.8957C0 40.6226 2.1826 42.8335 4.875 42.8335H9.75C12.4424 42.8335 14.625 40.6226 14.625 37.8957V29.666C14.625 28.7571 15.3525 28.0202 16.25 28.0202H22.75C23.6475 28.0202 24.375 28.7571 24.375 29.666V37.8957C24.375 40.6226 26.5577 42.8335 29.25 42.8335H34.125C36.8173 42.8335 39 40.6226 39 37.8957V19.5625C39 18.2049 38.4482 16.9071 37.4741 15.9744L21.7328 0.899855Z" fill="#FCFCFC" fill-opacity="0.91"/>
</svg>
