<svg width="37" height="44" viewBox="0 0 37 44" fill="none" xmlns="http://www.w3.org/2000/svg">
<path d="M18.5 1.52588e-05C28.7173 1.52588e-05 37 8.28275 37 18.5C37 26.1575 31.163 34.1833 19.7333 42.7556C19.0025 43.3037 17.9975 43.3037 17.2667 42.7556C5.83697 34.1833 0 26.1575 0 18.5C0 8.28275 8.28273 1.52588e-05 18.5 1.52588e-05ZM18.5 12.3334C15.0942 12.3334 12.3333 15.0943 12.3333 18.5C12.3333 21.9058 15.0942 24.6667 18.5 24.6667C21.9058 24.6667 24.6667 21.9058 24.6667 18.5C24.6667 15.0943 21.9058 12.3334 18.5 12.3334Z" fill="white" fill-opacity="0.6"/>
</svg>
