<svg width="38" height="41" viewBox="0 0 38 41" fill="none" xmlns="http://www.w3.org/2000/svg">
<path d="M3.43862 15.3366C3.43862 6.86644 10.3664 1.52588e-05 18.9122 1.52588e-05C27.4581 1.52588e-05 34.3858 6.86644 34.3858 15.3366V21.8247L37.7013 30.0403C37.9135 30.5655 37.8488 31.1602 37.5287 31.6285C37.2089 32.0967 36.6756 32.3772 36.1051 32.3772H1.71929C1.1488 32.3772 0.615438 32.0967 0.295615 31.6285C-0.0242418 31.1602 -0.0888871 30.5651 0.122964 30.0403L3.43862 21.8247V15.3366Z" fill="white" fill-opacity="0.6"/>
<path d="M12.25 35.7853C13.0093 38.7323 15.6954 40.8975 18.9124 40.8975C22.1295 40.8975 24.8155 38.7323 25.5749 35.7853H12.25Z" fill="white" fill-opacity="0.6"/>
</svg>
