<svg width="38" height="47" viewBox="0 0 38 47" fill="none" xmlns="http://www.w3.org/2000/svg">
<path d="M30.7324 23.4309C34.6493 23.4309 37.8245 26.578 37.8245 30.4602C37.8245 35.6904 35.6545 39.8807 32.0934 42.7137C28.5886 45.5019 23.8913 46.8619 18.9123 46.8619C13.9332 46.8619 9.23589 45.5019 5.73112 42.7137C2.17004 39.8807 0 35.6904 0 30.4602C0 26.8066 2.81261 23.8037 6.40899 23.4631L7.092 23.4309H30.7324ZM18.9123 0C24.1347 0 28.3684 4.19615 28.3684 9.37237C28.3684 14.5486 24.1347 18.7447 18.9123 18.7447C13.6898 18.7447 9.45613 14.5486 9.45613 9.37237C9.45613 4.19615 13.6898 0 18.9123 0Z" fill="white" fill-opacity="0.6"/>
</svg>
