<svg width="26" height="26" viewBox="0 0 26 26" fill="none" xmlns="http://www.w3.org/2000/svg">
<path d="M10.4286 1C15.6358 1 19.8571 5.22132 19.8571 10.4286C19.8571 12.7236 19.0371 14.8272 17.6741 16.4622L24.7489 23.5368C25.0837 23.8715 25.0837 24.4142 24.7489 24.7489C24.4514 25.0465 23.9895 25.0796 23.6555 24.8481L23.5368 24.7489L16.4622 17.6741C14.8272 19.0371 12.7236 19.8571 10.4286 19.8571C5.22132 19.8571 1 15.6358 1 10.4286C1 5.22132 5.22132 1 10.4286 1ZM10.4286 2.71429C6.16809 2.71429 2.71429 6.16809 2.71429 10.4286C2.71429 14.6891 6.16809 18.1429 10.4286 18.1429C14.6891 18.1429 18.1429 14.6891 18.1429 10.4286C18.1429 6.16809 14.6891 2.71429 10.4286 2.71429Z" fill="#545454" fill-opacity="0.9"/>
<path d="M23.5593 24.9632L23.5589 24.9637L23.5701 24.9714C23.9627 25.2434 24.5053 25.2047 24.855 24.855C25.2483 24.4617 25.2483 23.824 24.855 23.4307L17.8764 16.4523C19.2088 14.8069 20.0071 12.7108 20.0071 10.4286C20.0071 5.13847 15.7187 0.85 10.4286 0.85C5.13847 0.85 0.85 5.13847 0.85 10.4286C0.85 15.7187 5.13847 20.0071 10.4286 20.0071C12.7108 20.0071 14.8069 19.2088 16.4523 17.8764L23.4307 24.855L23.4303 24.8554L23.4406 24.8641L23.5593 24.9632ZM2.86429 10.4286C2.86429 6.25093 6.25093 2.86429 10.4286 2.86429C14.6062 2.86429 17.9929 6.25093 17.9929 10.4286C17.9929 14.6062 14.6062 17.9929 10.4286 17.9929C6.25093 17.9929 2.86429 14.6062 2.86429 10.4286Z" stroke="#545454" stroke-opacity="0.9" stroke-width="0.3"/>
</svg>
