<svg width="153" height="128" viewBox="0 0 153 128" fill="none" xmlns="http://www.w3.org/2000/svg">
<g clip-path="url(#clip0_301_604)">
<path d="M71.8645 128C105.236 128 132.289 126.616 132.289 124.908C132.289 123.201 105.236 121.816 71.8645 121.816C38.493 121.816 11.4401 123.201 11.4401 124.908C11.4401 126.616 38.493 128 71.8645 128Z" fill="#F2F2F2"/>
<path d="M107.167 29.7067H106.481V10.8904C106.481 8.00207 105.334 5.23206 103.293 3.18972C101.252 1.14738 98.4836 3.1889e-06 95.597 0H55.757C52.8705 -5.46665e-06 50.1022 1.14736 48.0611 3.1897C46.02 5.23203 44.8734 8.00203 44.8734 10.8903V114.118C44.8734 117.006 46.02 119.776 48.0611 121.819C50.1021 123.861 52.8704 125.008 55.7569 125.008H95.597C98.4835 125.008 101.252 123.861 103.293 121.819C105.334 119.776 106.481 117.006 106.481 114.118V43.1004H107.167L107.167 29.7067Z" fill="#3F3D56"/>
<path d="M104.164 10.9664V114.042C104.164 116.199 103.308 118.268 101.783 119.793C100.259 121.318 98.1917 122.175 96.036 122.175H56.0048C53.8491 122.175 51.7817 121.318 50.2574 119.793C48.7331 118.268 47.8767 116.199 47.8767 114.042V10.9664C47.8767 8.80932 48.7331 6.74064 50.2574 5.21538C51.7817 3.69012 53.8491 2.83322 56.0048 2.83318H60.8611C60.6224 3.41994 60.5316 4.05637 60.5964 4.68651C60.6613 5.31666 60.88 5.92119 61.2331 6.44694C61.5863 6.97269 62.0632 7.40354 62.6218 7.7016C63.1804 7.99966 63.8037 8.15579 64.4368 8.15625H87.2607C87.8938 8.15578 88.5171 7.99965 89.0757 7.70159C89.6343 7.40353 90.1112 6.97268 90.4643 6.44693C90.8175 5.92118 91.0361 5.31665 91.101 4.68651C91.1659 4.05637 91.075 3.41994 90.8364 2.83318H96.036C98.1917 2.83322 100.259 3.69012 101.783 5.21538C103.308 6.74064 104.164 8.80932 104.164 10.9664Z" fill="white"/>
<path d="M91.268 55.4122C91.0019 55.5513 90.7312 55.683 90.456 55.8073C90.2053 55.9206 89.9507 56.0271 89.6921 56.1267C89.5977 56.1628 89.5016 56.1989 89.4055 56.235C88.6454 56.5108 87.8648 56.7262 87.0709 56.8791C86.6778 56.9564 86.2795 57.0171 85.8761 57.0612C85.5431 57.099 85.2067 57.1259 84.8668 57.1419C84.6247 57.1539 84.3826 57.1591 84.1389 57.1591C83.1736 57.1595 82.2103 57.0692 81.2619 56.8894C81.0146 56.8447 80.7727 56.7915 80.5306 56.7331C79.3598 56.4523 78.2264 56.0337 77.154 55.4861C77.0579 55.438 76.9618 55.3864 76.8656 55.3366C76.7231 55.261 76.5842 55.182 76.4451 55.0996C76.512 55.0068 76.5842 54.9158 76.6579 54.8265C77.4612 53.8304 78.4652 53.0149 79.6045 52.4331C80.7438 51.8513 81.9928 51.5162 83.2702 51.4498C84.5476 51.3833 85.8246 51.587 87.0181 52.0475C88.2116 52.5079 89.2947 53.2149 90.1968 54.1222C90.5099 54.4366 90.8002 54.773 91.0654 55.1288C91.1357 55.2215 91.2027 55.316 91.268 55.4122Z" fill="#F95426"/>
<path d="M84.4815 47.8669C88.6443 47.8669 92.019 44.4902 92.019 40.3247C92.019 36.1592 88.6443 32.7824 84.4815 32.7824C80.3186 32.7824 76.9439 36.1592 76.9439 40.3247C76.9439 44.4902 80.3186 47.8669 84.4815 47.8669Z" fill="#2F2E41"/>
<path d="M86.4863 47.8776C89.2049 46.3905 90.204 42.9798 88.7179 40.2594C87.2318 37.5391 83.8231 36.5393 81.1045 38.0264C78.3858 39.5135 77.3867 42.9242 78.8728 45.6446C80.359 48.3649 83.7676 49.3647 86.4863 47.8776Z" fill="#A0616A"/>
<path d="M89.6902 39.4211C88.4082 40.3052 86.8866 40.7758 85.3297 40.7695C85.885 41.1549 86.5173 41.4152 87.1829 41.5325C85.1128 41.9768 82.9734 41.9888 80.8984 41.5678C80.4372 41.4938 79.9921 41.3408 79.5828 41.1157C79.3788 41.0017 79.2011 40.846 79.0612 40.6588C78.9213 40.4716 78.8223 40.257 78.7708 40.029C78.6329 39.2408 79.2467 38.5247 79.8845 38.0421C80.8611 37.3145 81.9871 36.8132 83.181 36.5745C84.375 36.3357 85.6071 36.3655 86.7881 36.6617C87.5593 36.8612 88.3318 37.1982 88.8327 37.8179C89.3336 38.4376 89.482 39.393 89.0048 40.0311L89.6902 39.4211Z" fill="#2F2E41"/>
<path d="M84.1389 26.241C80.7696 26.2405 77.4925 27.3423 74.8071 29.3785C72.1217 31.4147 70.1753 34.2737 69.2645 37.5196C68.3537 40.7655 68.5286 44.2204 69.7623 47.3576C70.9961 50.4949 73.2211 53.1425 76.0983 54.8969L76.1979 54.9553C76.2803 55.0051 76.3627 55.0532 76.4451 55.0996C76.5842 55.182 76.7231 55.261 76.8656 55.3366C76.9618 55.3864 77.0579 55.438 77.154 55.486C78.2264 56.0337 79.3598 56.4523 80.5306 56.7331C80.7726 56.7915 81.0146 56.8447 81.2619 56.8894C82.2103 57.0692 83.1736 57.1595 84.1389 57.1591C84.3826 57.1591 84.6247 57.1539 84.8668 57.1419C85.2067 57.1264 85.5431 57.0995 85.8761 57.0612C86.2795 57.0165 86.6778 56.9558 87.0709 56.8791C87.8648 56.7262 88.6454 56.5108 89.4055 56.235C89.5016 56.1989 89.5977 56.1628 89.6921 56.1267C89.9513 56.0271 90.2059 55.9206 90.456 55.8073C90.7306 55.6836 91.0013 55.5519 91.268 55.4122C93.9403 54.0118 96.149 51.8655 97.6262 49.2337C97.6331 49.22 97.6417 49.2062 97.6486 49.1925C98.4367 47.7774 98.9958 46.2463 99.3051 44.6561C99.7393 42.4175 99.6736 40.1106 99.1125 37.9004C98.5514 35.6903 97.5089 33.6316 96.0595 31.8718C94.6102 30.112 92.79 28.6946 90.7291 27.7212C88.6683 26.7477 86.4178 26.2422 84.1389 26.241H84.1389ZM97.367 48.9915C97.3533 49.0156 97.3413 49.0396 97.3276 49.062C95.8799 51.6549 93.7021 53.7647 91.0654 55.1288C90.8027 55.2662 90.5355 55.395 90.2637 55.5152C90.0389 55.6166 89.8089 55.7128 89.5771 55.8021C89.4792 55.8399 89.3797 55.8777 89.2801 55.912C88.6235 56.152 87.9506 56.3449 87.2666 56.4892C86.7591 56.5973 86.2463 56.6781 85.7302 56.7314C85.4126 56.7657 85.0899 56.7898 84.7654 56.8018C84.5577 56.8104 84.3483 56.8155 84.1389 56.8155C83.2047 56.8166 82.2725 56.7298 81.3546 56.5562C80.7962 56.4531 80.2442 56.3178 79.7014 56.1508C78.8747 55.8952 78.0713 55.5694 77.3 55.1769C77.2107 55.1305 77.1214 55.0841 77.0338 55.036C76.9085 54.969 76.7815 54.9003 76.6579 54.8265C76.5652 54.7749 76.4725 54.72 76.3816 54.665C76.3283 54.6341 76.2751 54.6014 76.2219 54.5688C73.6993 53.0187 71.687 50.7615 70.4347 48.0775C69.1824 45.3934 68.7452 42.4005 69.1773 39.47C69.6095 36.5396 70.8919 33.8006 72.8656 31.5928C74.8393 29.385 77.4173 27.8056 80.2799 27.0506C83.1424 26.2956 86.1635 26.3981 88.9684 27.3455C91.7732 28.2929 94.2384 30.0434 96.058 32.3799C97.8776 34.7164 98.9716 37.5361 99.2044 40.4891C99.4371 43.4421 98.7982 46.3985 97.367 48.9915H97.367Z" fill="#3F3D56"/>
<path d="M80.6644 32.8865C80.5833 32.0332 79.5386 31.5078 78.7216 31.7656C77.9046 32.0234 77.3682 32.8465 77.206 33.6882C77.128 34.0427 77.1207 34.4091 77.1845 34.7664C77.2483 35.1237 77.3819 35.4649 77.5777 35.7704C77.9907 36.3651 78.7496 36.7363 79.4574 36.5853C80.2654 36.413 80.8252 35.6235 80.9854 34.8125C81.1456 34.0015 80.9866 33.1653 80.8277 32.3541L80.6644 32.8865Z" fill="#2F2E41"/>
<path d="M92.1626 34.1056C92.0815 33.2522 91.0368 32.7269 90.2198 32.9846C89.4028 33.2424 88.8664 34.0656 88.7042 34.9072C88.6262 35.2617 88.6189 35.6281 88.6827 35.9854C88.7465 36.3427 88.8801 36.6839 89.0759 36.9895C89.4889 37.5842 90.2478 37.9553 90.9556 37.8043C91.7636 37.632 92.3234 36.8425 92.4836 36.0315C92.6438 35.2205 92.4848 34.3844 92.3259 33.5731L92.1626 34.1056Z" fill="#2F2E41"/>
<path d="M57.4348 47.8782C57.3279 47.8781 57.2222 47.8557 57.1245 47.8124C57.0267 47.7691 56.9391 47.7058 56.8672 47.6267L48.349 38.3284C48.2524 38.2231 48.1349 38.139 48.0041 38.0814C47.8734 38.0239 47.7321 37.994 47.5892 37.9939H2.5765C1.8934 37.9931 1.23851 37.7212 0.755485 37.2379C0.272464 36.7546 0.000766941 36.0993 0 35.4158V19.173C0.000766487 18.4895 0.272464 17.8342 0.755485 17.3509C1.23851 16.8676 1.8934 16.5957 2.5765 16.5949H60.8938C61.5769 16.5957 62.2318 16.8676 62.7149 17.3509C63.1979 17.8342 63.4696 18.4895 63.4703 19.173V35.4158C63.4696 36.0993 63.1979 36.7546 62.7149 37.2379C62.2318 37.7212 61.5769 37.9931 60.8938 37.9939H59.2405C58.9672 37.9942 58.7052 38.103 58.512 38.2963C58.3188 38.4897 58.2101 38.7519 58.2098 39.0253V47.1041C58.2104 47.2601 58.1637 47.4125 58.0757 47.5413C57.9877 47.67 57.8626 47.7689 57.7171 47.8248C57.6271 47.86 57.5314 47.8781 57.4348 47.8782Z" fill="white"/>
<path d="M57.4348 47.8782C57.3279 47.8781 57.2222 47.8557 57.1245 47.8124C57.0267 47.7691 56.9391 47.7058 56.8672 47.6267L48.349 38.3284C48.2524 38.2231 48.1349 38.139 48.0041 38.0814C47.8734 38.0239 47.7321 37.994 47.5892 37.9939H2.5765C1.8934 37.9931 1.23851 37.7212 0.755485 37.2379C0.272464 36.7546 0.000766941 36.0993 0 35.4158V19.173C0.000766487 18.4895 0.272464 17.8342 0.755485 17.3509C1.23851 16.8676 1.8934 16.5957 2.5765 16.5949H60.8938C61.5769 16.5957 62.2318 16.8676 62.7149 17.3509C63.1979 17.8342 63.4696 18.4895 63.4703 19.173V35.4158C63.4696 36.0993 63.1979 36.7546 62.7149 37.2379C62.2318 37.7212 61.5769 37.9931 60.8938 37.9939H59.2405C58.9672 37.9942 58.7052 38.103 58.512 38.2963C58.3188 38.4897 58.2101 38.7519 58.2098 39.0253V47.1041C58.2104 47.2601 58.1637 47.4125 58.0757 47.5413C57.9877 47.67 57.8626 47.7689 57.7171 47.8248C57.6271 47.86 57.5314 47.8781 57.4348 47.8782ZM2.5765 16.9385C1.98443 16.9391 1.4168 17.1748 0.99814 17.5937C0.579483 18.0126 0.343989 18.5806 0.343321 19.173V35.4158C0.34399 36.0082 0.579485 36.5762 0.998142 36.9951C1.4168 37.414 1.98443 37.6497 2.5765 37.6503H47.5892C47.7797 37.6506 47.968 37.6903 48.1423 37.767C48.3167 37.8438 48.4732 37.9559 48.6021 38.0962L57.1202 47.3945C57.1787 47.4584 57.2551 47.503 57.3394 47.5227C57.4237 47.5423 57.5119 47.5361 57.5926 47.5047C57.6732 47.4733 57.7425 47.4182 57.7914 47.3467C57.8403 47.2753 57.8664 47.1907 57.8664 47.1041V39.0253C57.8668 38.6608 58.0117 38.3113 58.2693 38.0535C58.5269 37.7958 58.8762 37.6508 59.2405 37.6503H60.8938C61.4859 37.6497 62.0535 37.414 62.4722 36.9951C62.8908 36.5762 63.1263 36.0082 63.127 35.4158V19.173C63.1263 18.5806 62.8909 18.0126 62.4722 17.5937C62.0535 17.1748 61.4859 16.9391 60.8938 16.9385H2.5765Z" fill="#3F3D56"/>
<path d="M6.31984 23.7601C7.56499 23.7601 8.57438 22.7501 8.57438 21.5041C8.57438 20.2582 7.56499 19.2482 6.31984 19.2482C5.0747 19.2482 4.06531 20.2582 4.06531 21.5041C4.06531 22.7501 5.0747 23.7601 6.31984 23.7601Z" fill="#F95426"/>
<path d="M58.2636 33.987H5.20679C5.04876 33.9872 4.89225 33.9562 4.7462 33.8958C4.60015 33.8355 4.46743 33.7469 4.35562 33.6351C4.24381 33.5234 4.15511 33.3907 4.0946 33.2446C4.03408 33.0985 4.00293 32.942 4.00293 32.7838C4.00293 32.6257 4.03408 32.4691 4.0946 32.3231C4.15511 32.177 4.24381 32.0443 4.35562 31.9326C4.46743 31.8208 4.60015 31.7322 4.7462 31.6718C4.89225 31.6115 5.04876 31.5805 5.20679 31.5807H58.2636C58.5822 31.5811 58.8877 31.708 59.1129 31.9336C59.3381 32.1592 59.4645 32.465 59.4645 32.7838C59.4645 33.1027 59.3381 33.4085 59.1129 33.6341C58.8877 33.8597 58.5822 33.9866 58.2636 33.987Z" fill="#E6E6E6"/>
<path d="M40.9788 28.8735H5.20679C5.04876 28.8737 4.89225 28.8428 4.7462 28.7824C4.60015 28.722 4.46743 28.6334 4.35562 28.5217C4.24381 28.4099 4.15511 28.2772 4.0946 28.1311C4.03408 27.9851 4.00293 27.8285 4.00293 27.6704C4.00293 27.5123 4.03408 27.3557 4.0946 27.2096C4.15511 27.0635 4.24381 26.9308 4.35562 26.8191C4.46743 26.7074 4.60015 26.6188 4.7462 26.5584C4.89225 26.498 5.04876 26.467 5.20679 26.4672H40.9788C41.2977 26.4672 41.6035 26.594 41.829 26.8196C42.0545 27.0452 42.1812 27.3513 42.1812 27.6704C42.1812 27.9895 42.0545 28.2955 41.829 28.5211C41.6035 28.7468 41.2977 28.8735 40.9788 28.8735Z" fill="#E6E6E6"/>
<path d="M95.2829 102.962C95.1374 102.906 95.0123 102.807 94.9243 102.679C94.8363 102.55 94.7896 102.397 94.7902 102.241V94.1626C94.7899 93.8892 94.6812 93.627 94.488 93.4336C94.2948 93.2403 94.0328 93.1315 93.7595 93.1312H92.1062C91.4231 93.1304 90.7682 92.8585 90.2851 92.3752C89.8021 91.8919 89.5304 91.2366 89.5297 90.5531V74.3103C89.5304 73.6268 89.8021 72.9715 90.2851 72.4882C90.7682 72.0049 91.4231 71.733 92.1062 71.7322H150.424C151.107 71.733 151.762 72.0049 152.245 72.4882C152.728 72.9715 152.999 73.6268 153 74.3103V90.5531C152.999 91.2366 152.728 91.8919 152.245 92.3752C151.762 92.8585 151.107 93.1304 150.424 93.1312H105.411C105.268 93.1313 105.127 93.1611 104.996 93.2187C104.865 93.2763 104.748 93.3604 104.651 93.4656L96.1328 102.764C96.0609 102.843 95.9733 102.906 95.8756 102.95C95.7778 102.993 95.6721 103.015 95.5652 103.016C95.4686 103.015 95.3729 102.997 95.2829 102.962Z" fill="white"/>
<path d="M95.2829 102.962C95.1374 102.906 95.0123 102.807 94.9243 102.679C94.8363 102.55 94.7896 102.397 94.7902 102.241V94.1626C94.7899 93.8892 94.6812 93.627 94.488 93.4336C94.2948 93.2403 94.0328 93.1315 93.7595 93.1312H92.1062C91.4231 93.1304 90.7682 92.8585 90.2851 92.3752C89.8021 91.8919 89.5304 91.2366 89.5297 90.5531V74.3103C89.5304 73.6268 89.8021 72.9715 90.2851 72.4882C90.7682 72.0049 91.4231 71.733 92.1062 71.7322H150.424C151.107 71.733 151.762 72.0049 152.245 72.4882C152.728 72.9715 152.999 73.6268 153 74.3103V90.5531C152.999 91.2366 152.728 91.8919 152.245 92.3752C151.762 92.8585 151.107 93.1304 150.424 93.1312H105.411C105.268 93.1313 105.127 93.1611 104.996 93.2187C104.865 93.2763 104.748 93.3604 104.651 93.4656L96.1328 102.764C96.0609 102.843 95.9733 102.906 95.8756 102.95C95.7778 102.993 95.6721 103.015 95.5652 103.016C95.4686 103.015 95.3729 102.997 95.2829 102.962ZM92.1062 72.0758C91.5141 72.0764 90.9465 72.3121 90.5278 72.731C90.1091 73.1499 89.8736 73.7179 89.873 74.3103V90.5531C89.8736 91.1455 90.1091 91.7135 90.5278 92.1324C90.9465 92.5513 91.5141 92.787 92.1062 92.7876H93.7595C94.1238 92.788 94.4731 92.9331 94.7307 93.1908C94.9883 93.4486 95.1332 93.7981 95.1336 94.1626V102.241C95.1336 102.328 95.1597 102.413 95.2086 102.484C95.2574 102.556 95.3268 102.611 95.4074 102.642C95.4881 102.673 95.5763 102.68 95.6606 102.66C95.7449 102.64 95.8213 102.596 95.8798 102.532L104.398 93.2335C104.527 93.0931 104.683 92.9811 104.858 92.9043C105.032 92.8276 105.22 92.7878 105.411 92.7876H150.424C151.016 92.787 151.583 92.5513 152.002 92.1324C152.421 91.7135 152.656 91.1455 152.657 90.5531V74.3103C152.656 73.7179 152.421 73.1499 152.002 72.731C151.583 72.3121 151.016 72.0764 150.424 72.0758H92.1062Z" fill="#3F3D56"/>
<path d="M77.106 107.992C74.7145 109.524 71.9437 110.36 69.1043 110.405C66.2649 110.45 63.469 109.703 61.0299 108.248C61.459 107.449 62.0027 106.717 62.6436 106.075C63.6326 105.081 64.8362 104.326 66.1619 103.87C67.4876 103.414 68.9002 103.268 70.2912 103.443C71.6821 103.619 73.0144 104.111 74.1856 104.882C75.3569 105.653 76.3359 106.682 77.0476 107.891C77.0664 107.923 77.0871 107.958 77.106 107.992Z" fill="#F95426"/>
<path d="M68.3968 99.7779C72.5873 99.7779 75.9845 96.3787 75.9845 92.1855C75.9845 87.9923 72.5873 84.5931 68.3968 84.5931C64.2063 84.5931 60.8091 87.9923 60.8091 92.1855C60.8091 96.3787 64.2063 99.7779 68.3968 99.7779Z" fill="#2F2E41"/>
<path d="M74.0427 97.5407C75.5387 94.8023 74.5329 91.3689 71.7962 89.8719C69.0595 88.375 65.6282 89.3814 64.1322 92.1198C62.6362 94.8582 63.642 98.2916 66.3787 99.7886C69.1154 101.286 72.5467 100.279 74.0427 97.5407Z" fill="#FFB8B8"/>
<path d="M63.1535 91.2759C64.444 92.1659 65.9757 92.6396 67.543 92.6333C66.9839 93.0212 66.3474 93.2832 65.6774 93.4013C67.7613 93.8486 69.9149 93.8607 72.0037 93.4369C72.468 93.3624 72.916 93.2084 73.328 92.9817C73.5334 92.867 73.7122 92.7103 73.8531 92.5218C73.9939 92.3333 74.0935 92.1173 74.1455 91.8878C74.2843 91.0944 73.6664 90.3736 73.0243 89.8878C72.0413 89.1553 70.9078 88.6507 69.7059 88.4104C68.504 88.17 67.2637 88.2 66.0749 88.4982C65.2986 88.699 64.5209 89.0382 64.0166 89.6621C63.5124 90.2859 63.3631 91.2476 63.8435 91.89L63.1535 91.2759Z" fill="#2F2E41"/>
<path d="M68.8611 110.579C65.1451 110.578 61.5541 109.236 58.7467 106.8C55.9394 104.363 54.104 100.996 53.5772 97.3152C53.0505 93.6344 53.8676 89.887 55.8788 86.7603C57.89 83.6336 60.9604 81.3373 64.5267 80.2926C68.0931 79.248 71.9163 79.525 75.295 81.0728C78.6738 82.6206 81.3816 85.3355 82.9217 88.7195C84.4618 92.1034 84.7309 95.9296 83.6797 99.4961C82.6286 103.063 80.3275 106.13 77.1988 108.136C74.7107 109.733 71.8167 110.581 68.8611 110.579ZM68.8611 80.0041C65.873 80.0038 62.9519 80.8902 60.4673 82.5512C57.9826 84.2121 56.046 86.5731 54.9024 89.3354C53.7588 92.0977 53.4595 95.1374 54.0424 98.0699C54.6252 101.002 56.0641 103.696 58.177 105.81C60.2899 107.925 62.982 109.364 65.9127 109.948C68.8434 110.531 71.8811 110.231 74.6417 109.087C77.4023 107.943 79.7618 106.005 81.4217 103.519C83.0817 101.033 83.9675 98.1096 83.9672 95.1196C83.9627 91.1121 82.3697 87.2701 79.5377 84.4363C76.7058 81.6026 72.8661 80.0086 68.8611 80.0041Z" fill="#3F3D56"/>
<path d="M96.7848 78.7256C98.03 78.7256 99.0394 77.7156 99.0394 76.4697C99.0394 75.2237 98.03 74.2137 96.7848 74.2137C95.5397 74.2137 94.5303 75.2237 94.5303 76.4697C94.5303 77.7156 95.5397 78.7256 96.7848 78.7256Z" fill="#F95426"/>
<path d="M148.729 88.9525H95.6718C95.5138 88.9527 95.3572 88.9217 95.2112 88.8614C95.0651 88.801 94.9324 88.7124 94.8206 88.6006C94.7088 88.4889 94.6201 88.3562 94.5596 88.2101C94.4991 88.0641 94.4679 87.9075 94.4679 87.7494C94.4679 87.5912 94.4991 87.4347 94.5596 87.2886C94.6201 87.1425 94.7088 87.0098 94.8206 86.8981C94.9324 86.7864 95.0651 86.6978 95.2112 86.6374C95.3572 86.577 95.5138 86.546 95.6718 86.5462H148.729C149.047 86.5462 149.353 86.673 149.579 86.8986C149.804 87.1242 149.931 87.4303 149.931 87.7494C149.931 88.0685 149.804 88.3745 149.579 88.6001C149.353 88.8258 149.047 88.9525 148.729 88.9525Z" fill="#E6E6E6"/>
<path d="M131.444 83.8391H95.6718C95.5138 83.8393 95.3572 83.8083 95.2112 83.7479C95.0651 83.6875 94.9324 83.5989 94.8206 83.4872C94.7088 83.3754 94.6201 83.2427 94.5596 83.0967C94.4991 82.9506 94.4679 82.794 94.4679 82.6359C94.4679 82.4778 94.4991 82.3212 94.5596 82.1751C94.6201 82.0291 94.7088 81.8964 94.8206 81.7846C94.9324 81.6729 95.0651 81.5843 95.2112 81.5239C95.3572 81.4635 95.5138 81.4326 95.6718 81.4327H131.444C131.762 81.4331 132.068 81.5601 132.293 81.7856C132.518 82.0112 132.645 82.3171 132.645 82.6359C132.645 82.9548 132.518 83.2606 132.293 83.4862C132.068 83.7118 131.762 83.8387 131.444 83.8391Z" fill="#E6E6E6"/>
<path d="M95.2103 104.5C97.5334 104.5 99.4166 104.291 99.4166 104.033C99.4166 103.775 97.5334 103.566 95.2103 103.566C92.8872 103.566 91.0039 103.775 91.0039 104.033C91.0039 104.291 92.8872 104.5 95.2103 104.5Z" fill="#F2F2F2"/>
<path d="M57.6167 49.5343C59.9398 49.5343 61.8231 49.3252 61.8231 49.0672C61.8231 48.8092 59.9398 48.6001 57.6167 48.6001C55.2936 48.6001 53.4103 48.8092 53.4103 49.0672C53.4103 49.3252 55.2936 49.5343 57.6167 49.5343Z" fill="#F2F2F2"/>
</g>
<defs>
<clipPath id="clip0_301_604">
<rect width="153" height="128" fill="white"/>
</clipPath>
</defs>
</svg>
