<svg width="189" height="85" viewBox="0 0 189 85" fill="none" xmlns="http://www.w3.org/2000/svg">
<g clip-path="url(#clip0_301_903)">
<path d="M15.5508 77.6456C16.2826 77.9027 17.0683 77.9671 17.8323 77.8326C18.5962 77.6981 19.3126 77.3693 19.9125 76.8779C21.4402 75.5965 21.9197 73.4856 22.3089 71.5308L23.4615 65.7492L21.0483 67.4099C19.3127 68.6041 17.5382 69.8366 16.3364 71.5664C15.1346 73.2961 14.6101 75.6575 15.5756 77.5291" fill="#E6E6E6"/>
<path d="M15.757 84.6454C15.5128 82.8674 15.2616 81.0667 15.4329 79.2696C15.5851 77.6736 16.0722 76.1148 17.0643 74.8367C17.5909 74.1595 18.2316 73.5793 18.9577 73.1222C19.1471 73.003 19.3212 73.3027 19.1328 73.4215C17.8765 74.2149 16.9048 75.3864 16.3578 76.7672C15.7537 78.3028 15.6567 79.9768 15.7616 81.6079C15.8246 82.5943 15.958 83.574 16.0925 84.5531C16.1033 84.5974 16.0968 84.6441 16.0743 84.6838C16.0518 84.7234 16.0149 84.753 15.9713 84.7664C15.9269 84.7783 15.8796 84.7723 15.8396 84.7496C15.7997 84.727 15.7703 84.6894 15.7578 84.6452L15.757 84.6454Z" fill="#F2F2F2"/>
<path d="M179.326 75.3834C178.547 75.6572 177.709 75.7258 176.895 75.5826C176.082 75.4393 175.318 75.089 174.679 74.5654C173.052 73.2001 172.541 70.9517 172.126 68.8692L170.898 62.7094L173.469 64.4786C175.318 65.7509 177.209 67.064 178.489 68.9069C179.769 70.7497 180.328 73.2655 179.3 75.2596" fill="#E6E6E6"/>
<path d="M178.929 83.2698C179.253 80.9137 179.586 78.5271 179.358 76.1458C179.157 74.0308 178.511 71.9655 177.196 70.2714C176.499 69.374 175.649 68.6051 174.687 67.9993C174.436 67.8411 174.206 68.2383 174.455 68.3959C176.12 69.4473 177.408 70.9998 178.133 72.8297C178.933 74.8646 179.062 77.0829 178.924 79.2445C178.841 80.5517 178.664 81.8504 178.486 83.1475C178.472 83.2061 178.48 83.2679 178.51 83.3204C178.54 83.3728 178.589 83.412 178.646 83.43C178.705 83.4458 178.768 83.4378 178.821 83.4078C178.874 83.3777 178.913 83.3281 178.929 83.2695L178.929 83.2698Z" fill="#F2F2F2"/>
<path d="M176.6 79.4892C176.265 79.9972 175.806 80.4105 175.265 80.6895C174.725 80.9684 174.121 81.1035 173.513 81.0817C171.95 81.0076 170.648 79.9179 169.475 78.8831L166.007 75.823L168.302 75.7132C169.953 75.6342 171.646 75.5601 173.219 76.0694C174.791 76.5786 176.241 77.8024 176.528 79.4287" fill="#E6E6E6"/>
<path d="M179.844 84.6242C178.286 81.8694 176.479 78.8077 173.25 77.8291C172.352 77.5579 171.41 77.4608 170.476 77.5429C170.182 77.5683 170.255 78.0218 170.549 77.9966C172.115 77.8666 173.678 78.2799 174.975 79.1667C176.223 80.0157 177.195 81.1959 178.018 82.4474C178.521 83.2141 178.973 84.0132 179.424 84.8113C179.568 85.0664 179.99 84.8822 179.844 84.6242Z" fill="#F2F2F2"/>
<path d="M135.619 51.2915H57.5151V34.6092H135.619V51.2915Z" fill="white"/>
<path d="M67.6357 47.1881C69.9778 47.1881 71.8765 45.2908 71.8765 42.9504C71.8765 40.6099 69.9778 38.7126 67.6357 38.7126C65.2936 38.7126 63.395 40.6099 63.395 42.9504C63.395 45.2908 65.2936 47.1881 67.6357 47.1881Z" fill="#6C63FF"/>
<path d="M77.4299 40.1252C77.2424 40.1252 77.0627 40.1996 76.9301 40.332C76.7976 40.4645 76.7231 40.6442 76.7231 40.8315C76.7231 41.0188 76.7976 41.1984 76.9301 41.3309C77.0627 41.4634 77.2424 41.5378 77.4299 41.5378H129.034C129.221 41.5373 129.401 41.4627 129.533 41.3303C129.665 41.1979 129.739 41.0185 129.739 40.8315C129.739 40.6444 129.665 40.4651 129.533 40.3326C129.401 40.2002 129.221 40.1256 129.034 40.1252H77.4299Z" fill="#6C63FF"/>
<path d="M77.4299 44.3629C77.2425 44.3626 77.0625 44.4366 76.9297 44.5688C76.7969 44.7009 76.722 44.8804 76.7216 45.0677C76.7212 45.2551 76.7953 45.4349 76.9276 45.5676C77.0599 45.7004 77.2395 45.7751 77.4269 45.7755H110.052C110.145 45.7757 110.237 45.7575 110.322 45.7221C110.408 45.6867 110.486 45.6347 110.552 45.5691C110.618 45.5035 110.67 45.4256 110.706 45.3398C110.741 45.254 110.76 45.1621 110.76 45.0692C110.76 44.9764 110.741 44.8844 110.706 44.7987C110.67 44.7129 110.618 44.635 110.552 44.5694C110.486 44.5038 110.408 44.4518 110.322 44.4164C110.237 44.3809 110.145 44.3628 110.052 44.3629H77.4299Z" fill="#6C63FF"/>
<path d="M135.619 51.2915H57.5151V34.6092H135.619V51.2915ZM58.7076 50.0999H134.427V35.8008H58.7076V50.0999Z" fill="#CCCCCC"/>
<path d="M157.614 47.1477C157.538 46.9246 157.512 46.6877 157.538 46.4535C157.564 46.2194 157.64 45.9937 157.763 45.7924C157.885 45.5911 158.05 45.419 158.247 45.2884C158.443 45.1578 158.665 45.0717 158.898 45.0363L159.782 41.4615L162.087 41.4685L160.768 46.4993C160.801 46.8945 160.689 47.2883 160.451 47.606C160.214 47.9238 159.868 48.1434 159.479 48.2234C159.09 48.3033 158.686 48.2379 158.342 48.0397C157.998 47.8414 157.739 47.5241 157.614 47.1477Z" fill="#FFB7B7"/>
<path d="M161.505 44.8344L157.975 44.5899L159.685 34.4083L158.597 23.1972L162.166 21.7351L164.545 34.1851L164.539 34.2078L161.505 44.8344Z" fill="#3F3D56"/>
<path d="M134.209 43.6411C134.205 43.4055 134.253 43.172 134.349 42.9568C134.445 42.7416 134.587 42.5501 134.765 42.3958C134.943 42.2414 135.153 42.128 135.38 42.0634C135.606 41.9988 135.845 41.9847 136.077 42.022L138.011 38.8874L140.204 39.597L137.411 43.9854C137.322 44.372 137.095 44.7126 136.772 44.9428C136.448 45.173 136.052 45.2767 135.657 45.2342C135.263 45.1918 134.897 45.0062 134.63 44.7125C134.364 44.4189 134.214 44.0377 134.209 43.6411Z" fill="#FFB7B7"/>
<path d="M145.096 82.8361H143.218L142.325 75.5978L145.096 75.598L145.096 82.8361Z" fill="#FFB7B7"/>
<path d="M145.575 84.6551L139.52 84.6549V84.5784C139.52 83.9538 139.768 83.3547 140.21 82.9131C140.652 82.4714 141.252 82.2233 141.877 82.2233H141.877L145.575 82.2234L145.575 84.6551Z" fill="#2F2E41"/>
<path d="M158.197 82.8361H156.319L155.426 75.5978L158.197 75.598L158.197 82.8361Z" fill="#FFB7B7"/>
<path d="M158.676 84.6551L152.621 84.6549V84.5784C152.621 83.9538 152.869 83.3547 153.311 82.9131C153.753 82.4714 154.352 82.2233 154.977 82.2233H154.978L158.676 82.2234L158.676 84.6551Z" fill="#2F2E41"/>
<path d="M156.411 14.8657C158.875 14.8657 160.872 12.8697 160.872 10.4075C160.872 7.94532 158.875 5.94932 156.411 5.94932C153.947 5.94932 151.95 7.94532 151.95 10.4075C151.95 12.8697 153.947 14.8657 156.411 14.8657Z" fill="#FFB8B8"/>
<path d="M154.904 10.163C154.238 10.4417 153.491 10.4623 152.81 10.221C152.129 9.97961 151.562 9.49352 151.22 8.85743C150.878 8.22133 150.786 7.48079 150.96 6.7801C151.135 6.07942 151.564 5.46879 152.165 5.06719C153.352 4.27312 155.125 4.53594 156.277 5.45689C157.053 5.10412 157.921 5.00729 158.756 5.18042C159.591 5.35354 160.349 5.78764 160.92 6.41988C162.032 7.70447 162.153 9.74355 161.343 11.2411C160.989 12.0217 160.832 12.8773 160.885 13.7328C160.939 14.5883 161.202 15.4175 161.651 16.148C161.302 16.1338 160.535 16.0693 159.576 15.9865C159.298 15.9626 159.178 15.1475 158.874 15.1213C158.605 15.0981 158.154 15.8641 157.873 15.8403C155.789 15.6643 153.456 15.4856 152.398 15.5205C153.195 13.6566 153.992 11.7927 154.904 10.163Z" fill="#2F2E41"/>
<path d="M159.832 41.8148C159.832 41.8148 161.282 43.3086 160.397 51.0223L159.785 67.4014L158.703 81.9044L155.221 81.673L152.163 48.2924L147.881 60.5074L145.576 80.7014L142.235 80.4701L141.665 60.3883L143.129 44.8686L159.832 41.8148Z" fill="#2F2E41"/>
<path d="M145.482 45.8029C143.7 45.803 142.983 45.5889 142.931 45.5725L142.848 45.5465L142.862 45.4611C142.874 45.391 144.071 38.418 145.713 34.7571L146.868 19.9108C146.901 19.4697 147.083 19.0528 147.383 18.7281C147.684 18.4033 148.085 18.1898 148.523 18.1224L148.538 18.2205L148.523 18.1224L151.46 17.6615L153.257 16.0805L157.561 16.3184L157.941 18.1379C158.456 18.2817 161.853 19.3221 162.189 21.8135L162.193 21.8447L162.179 21.8726L155.955 33.8369C156.481 34.3556 160.637 38.6223 160.92 44.0769L160.926 44.2081L160.798 44.1788C160.786 44.1763 159.456 43.9237 152.462 45.1053C149.227 45.6517 146.979 45.8029 145.482 45.8029Z" fill="#3F3D56"/>
<path d="M138.582 43.5688L136.045 41.6166L141.708 30.2963L146.974 19.2014C147.047 19.0463 147.167 18.9175 147.316 18.8322C147.465 18.7468 147.636 18.7091 147.807 18.724C147.978 18.7389 148.141 18.8057 148.273 18.9155C148.404 19.0254 148.5 19.1729 148.545 19.3383L149.849 24.0637L145.772 34.6614L138.582 43.5688Z" fill="#3F3D56"/>
<path d="M188.801 85H113.082C113.029 85 112.979 84.9791 112.942 84.9418C112.904 84.9046 112.883 84.8541 112.883 84.8014C112.883 84.7487 112.904 84.6982 112.942 84.661C112.979 84.6237 113.029 84.6028 113.082 84.6028H188.801C188.854 84.6028 188.905 84.6237 188.942 84.661C188.979 84.6982 189 84.7487 189 84.8014C189 84.8541 188.979 84.9046 188.942 84.9418C188.905 84.9791 188.854 85 188.801 85Z" fill="#CBCBCB"/>
<path d="M101.524 25.0234H90.7919V14.2991H96.1579V14.6963H91.1894V24.6262H101.126V19.6612H101.524V25.0234Z" fill="#3F3D56"/>
<path d="M95.9565 21.8553L93.3495 18.8638L93.799 18.4726L95.9617 20.9541L101.897 14.2995L102.342 14.6959L95.9565 21.8553Z" fill="#6C63FF"/>
<path d="M34.9188 13.3537L35.1697 12.1C35.1697 12.1 38.8602 10.8463 39.2732 13.3537H34.9188Z" fill="#E6E6E6"/>
<path d="M42.0017 82.3829H44.4212L45.5723 73.0571H42.0013L42.0017 82.3829Z" fill="#9F616A"/>
<path d="M41.3845 81.5935L46.1494 81.5933H46.1496C46.9549 81.5934 47.7272 81.9131 48.2967 82.4821C48.8661 83.0512 49.1861 83.8229 49.1861 84.6277V84.7263L41.3847 84.7266L41.3845 81.5935Z" fill="#2F2E41"/>
<path d="M30.3382 82.3829H32.7576L33.9087 73.0571H30.3378L30.3382 82.3829Z" fill="#9F616A"/>
<path d="M29.7209 81.5935L34.4858 81.5933H34.486C35.2913 81.5934 36.0637 81.9131 36.6331 82.4821C37.2026 83.0512 37.5225 83.8229 37.5226 84.6277V84.7263L29.7211 84.7266L29.7209 81.5935Z" fill="#2F2E41"/>
<path d="M31.406 18.6192L28.6459 18.3683L26.8896 26.6425L27.1405 34.1646L29.9005 44.194L33.6642 41.9374L31.657 31.6573L31.406 18.6192Z" fill="#3F3D56"/>
<path d="M29.6591 43.3164L30.277 48.5819L30.8571 60.868L29.5242 79.1763L34.2915 78.9207L36.6281 59.8648L38.0552 51.0892L40.0625 61.1186L41.3171 79.9236L46.2098 79.5318V61.0524L46.3352 47.579L44.579 42.3135L29.6591 43.3164Z" fill="#2F2E41"/>
<path d="M39.937 13.6044C39.937 13.6044 38.1806 11.0971 34.9188 12.8522L33.4133 14.8581L28.646 18.3684L29.6496 30.1529L28.3951 44.9462L46.2098 44.6955L43.1988 29.9022V14.1059L39.937 13.6044Z" fill="#3F3D56"/>
<path opacity="0.25" d="M30.277 22.5302L28.8383 39.7198L30.6534 30.4036L30.277 22.5302Z" fill="black"/>
<path d="M60.2232 36.9427C59.967 37.0297 59.6949 37.0595 59.426 37.03C59.1571 37.0005 58.8979 36.9124 58.6667 36.772C58.4355 36.6316 58.238 36.4422 58.0879 36.2172C57.9379 35.9922 57.8391 35.7371 57.7984 35.4699L53.6931 34.456L53.7011 31.8127L59.4785 33.3258C59.9324 33.2873 60.3846 33.4164 60.7496 33.6888C61.1145 33.9612 61.3668 34.3579 61.4586 34.8037C61.5504 35.2496 61.4753 35.7136 61.2476 36.1078C61.0199 36.502 60.6554 36.7991 60.2232 36.9427H60.2232Z" fill="#9F616A"/>
<path d="M55.9303 31.781L55.2399 35.733L56.9702 36.0348L57.6605 32.0829L55.9303 31.781Z" fill="#E6E6E6"/>
<path d="M37.1447 10.7082C39.9274 10.7082 42.1832 8.45401 42.1832 5.67327C42.1832 2.89254 39.9274 0.638308 37.1447 0.638308C34.362 0.638308 32.1062 2.89254 32.1062 5.67327C32.1062 8.45401 34.362 10.7082 37.1447 10.7082Z" fill="#9F616A"/>
<path d="M37.5211 10.1147C36.2884 10.4105 34.9897 10.2378 33.8772 9.63038C32.7648 9.02292 31.9179 8.02398 31.5012 6.82756C31.0844 5.63114 31.1275 4.32265 31.622 3.15619C32.1166 1.98973 33.0273 1.04857 34.1773 0.51549C35.0629 0.120507 36.0315 -0.0531727 36.9992 0.00944292C38.5061 0.0886121 39.9707 0.645165 41.4791 0.604152L41.6978 0.955339L42.5217 0.75565L42.6983 1.40936L42.9153 1.40185C43.3041 2.12382 42.6786 3.15745 41.8582 3.1487C41.5356 3.11153 41.2175 3.04229 40.9087 2.942C40.591 2.87399 40.217 2.89094 39.998 3.13065C39.7134 3.44218 39.8373 3.92831 39.8966 4.34596C39.956 4.76361 39.8077 5.32617 39.3858 5.3398C39.1703 5.34677 38.9653 5.19232 38.7535 5.23293C38.5069 5.28023 38.3822 5.57787 38.4182 5.82627C38.4793 6.07 38.5789 6.30242 38.7133 6.51476C38.9985 7.13637 39.0439 7.84137 38.8407 8.49438C38.6375 9.14738 38.2 9.70235 37.6123 10.0527" fill="#2F2E41"/>
<path d="M42.0013 15.0747L43.1989 14.1059C43.1989 14.1059 45.6159 13.938 45.5722 16.4985L49.4396 28.5874L56.8589 31.2138L55.8591 36.3755L45.3619 32.3794L40.03 23.548L42.0013 15.0747Z" fill="#3F3D56"/>
<path d="M75.918 85H0.198738C0.14603 85 0.0954795 84.9791 0.0582089 84.9418C0.0209383 84.9046 0 84.8541 0 84.8014C0 84.7487 0.0209383 84.6982 0.0582089 84.661C0.0954795 84.6237 0.14603 84.6028 0.198738 84.6028H75.918C75.9707 84.6028 76.0212 84.6237 76.0585 84.661C76.0958 84.6982 76.1167 84.7487 76.1167 84.8014C76.1167 84.8541 76.0958 84.9046 76.0585 84.9418C76.0212 84.9791 75.9707 85 75.918 85Z" fill="#CBCBCB"/>
</g>
<defs>
<clipPath id="clip0_301_903">
<rect width="189" height="85" fill="white"/>
</clipPath>
</defs>
</svg>
