<svg width="131" height="122" viewBox="0 0 131 122" fill="none" xmlns="http://www.w3.org/2000/svg">
<path d="M116.594 114.863C116.641 117.128 116.333 119.385 115.681 121.551C115.658 121.63 115.631 121.709 115.604 121.788H102.17C102.362 120.828 102.666 119.896 103.078 119.011C104.196 116.604 106.021 114.544 107.823 112.498C110.306 109.68 112.729 106.884 113.112 103.218C114.096 104.74 114.881 106.384 115.449 108.111C114.754 108.372 114.117 108.768 113.573 109.277C113.422 109.42 113.263 109.629 113.34 109.828C113.413 109.994 113.614 110.05 113.792 110.087C114.221 110.17 114.65 110.254 115.079 110.332C115.417 110.402 115.759 110.466 116.101 110.531C116.402 111.956 116.567 113.407 116.594 114.863Z" fill="#F2F2F2"/>
<path d="M127.879 113.364C125.725 114.692 124.356 116.747 123.238 119.047C122.265 119.272 121.367 119.751 120.632 120.436C120.477 120.58 120.317 120.788 120.4 120.987C120.468 121.153 120.673 121.209 120.851 121.246C121.276 121.329 121.709 121.413 122.134 121.491C122.093 121.588 122.051 121.69 122.01 121.788H107.773C108.419 120.903 109.135 120.074 109.913 119.307C110.082 119.135 110.256 118.973 110.434 118.807C112.248 117.143 114.332 115.809 116.594 114.863C120.157 113.353 124.053 112.835 127.879 113.364Z" fill="#F2F2F2"/>
<path d="M110.146 121.788H97.4695C97.4003 120.758 97.4064 119.724 97.4878 118.696C97.7623 115.512 98.7142 112.426 100.278 109.651C101.842 106.876 103.98 104.477 106.546 102.621C105.889 104.996 106.226 107.356 106.911 109.726C106.815 109.758 106.719 109.786 106.632 109.823C105.938 110.084 105.301 110.48 104.757 110.99C104.606 111.133 104.447 111.341 104.524 111.54C104.593 111.707 104.798 111.762 104.976 111.799C105.405 111.883 105.834 111.966 106.258 112.045C106.6 112.114 106.943 112.179 107.285 112.248C107.445 112.276 107.604 112.309 107.764 112.341C107.787 112.397 107.801 112.447 107.823 112.498C108.627 114.743 109.503 117.006 109.913 119.307C110.015 119.884 110.085 120.466 110.123 121.052C110.137 121.297 110.146 121.542 110.146 121.788Z" fill="#F2F2F2"/>
<path d="M55.1024 75.636C54.9938 75.7975 54.7083 75.9897 54.597 76.1487L54.7157 75.7835L54.6753 75.6989L54.4225 75.1862L47.9884 62.0341L47.9859 62.0316L37.0786 39.7465V39.7439L36.8284 39.2338V39.2313L31.4304 28.2015L31.1752 27.6786C31.3672 27.6838 31.5592 27.6915 31.7513 27.7017L32.0091 28.2272L37.392 39.2313L37.3945 39.2338L37.6447 39.7439V39.7465L48.2739 61.4651V61.4676L48.5241 61.9777V61.9803L54.9583 75.1222L55.0442 75.299L55.1024 75.636Z" fill="#3F3D56"/>
<path d="M54.3847 39.7465H6.23203C6.36097 39.5748 6.49226 39.403 6.62874 39.2338H53.9879C54.1244 39.403 54.2557 39.5748 54.3847 39.7465Z" fill="#3F3D56"/>
<path d="M60.4853 61.4676C60.4701 61.6394 60.4525 61.8111 60.4296 61.9803H48.0945V61.4676H60.4853Z" fill="#3F3D56"/>
<path d="M8.06421 37.5446V78.7927C7.88984 78.6056 7.72302 78.4159 7.55878 78.2263V38.1111C7.72302 37.9215 7.88984 37.7318 8.06421 37.5446Z" fill="#3F3D56"/>
<path d="M54.8326 75.1859H7.81158V75.6986H54.8326V75.1859Z" fill="#3F3D56"/>
<path d="M54.7916 75.636H54.8497V75.5514C54.832 75.5808 54.8126 75.609 54.7916 75.636ZM54.4024 39.6836C54.2734 39.5119 54.1421 39.3401 54.0057 39.171C51.3213 35.7549 47.9492 32.9592 44.1146 30.9705C40.2799 28.9818 36.0711 27.846 31.7691 27.6388C31.5771 27.6286 31.385 27.6209 31.1929 27.6158C30.9048 27.6081 30.6167 27.6029 30.3261 27.6029C26.1465 27.6007 22.0119 28.4774 18.1832 30.1777C14.3546 31.8781 10.9151 34.3651 8.08195 37.4818C7.90759 37.6689 7.74076 37.8586 7.57652 38.0483C7.25556 38.4148 6.94555 38.789 6.64648 39.171C6.51002 39.3401 6.37871 39.5119 6.24976 39.6836C1.97895 45.3309 -0.223954 52.3081 0.0180764 59.4212C0.260107 66.5343 2.93203 73.3409 7.57652 78.676C7.74076 78.8657 7.90759 79.0554 8.08195 79.2425C11.136 82.5972 14.8891 85.2191 19.0679 86.9175C23.2468 88.6158 27.7464 89.3479 32.2393 89.0604C36.7323 88.7729 41.1055 87.4731 45.0408 85.2555C48.9761 83.0379 52.3745 79.9584 54.9887 76.2409C55.1 76.082 55.2111 75.9231 55.3197 75.7616C58.1223 71.6432 59.8833 66.8888 60.4473 61.9174C60.4702 61.7482 60.4878 61.5765 60.503 61.4047C60.6015 60.4051 60.6512 59.3909 60.6521 58.3621C60.6598 51.6068 58.4622 45.0389 54.4024 39.6836V39.6836ZM59.9395 61.9174C59.3894 66.6893 57.7165 71.2571 55.0619 75.2361C54.9937 75.3412 54.923 75.4463 54.8497 75.5514C54.8321 75.5808 54.8126 75.609 54.7916 75.636C54.7739 75.6642 54.7537 75.6924 54.7335 75.7206C52.1555 79.4566 48.7772 82.5522 44.8517 84.7754C40.9262 86.9985 36.5555 88.2915 32.0672 88.5573C27.5789 88.8232 23.0895 88.055 18.9356 86.3104C14.7817 84.5658 11.0711 81.8901 8.08193 78.4838C7.90758 78.289 7.73827 78.0942 7.5765 77.8942C3.13266 72.5838 0.636226 65.878 0.510483 58.9138C0.384741 51.9495 2.63742 45.1555 6.88659 39.6836C7.0206 39.5119 7.15448 39.3401 7.29343 39.171C7.3845 39.0556 7.47791 38.9428 7.5765 38.83C7.73827 38.6301 7.90758 38.4353 8.08193 38.2405C10.8737 35.0543 14.2997 32.5046 18.1339 30.7593C21.9681 29.0141 26.1235 28.1131 30.3261 28.1156C30.7027 28.1156 31.0767 28.1233 31.4481 28.1386C31.6427 28.1438 31.8348 28.154 32.0268 28.1643C36.1397 28.4028 40.159 29.5041 43.8308 31.3986C47.5025 33.2931 50.7469 35.9397 53.3587 39.1709C53.4976 39.3401 53.6316 39.5119 53.7655 39.6836C58.5342 45.8341 60.7679 53.6193 59.9976 61.4047C59.9798 61.5765 59.9621 61.7482 59.9394 61.9174L59.9395 61.9174ZM54.7916 75.636H54.8497V75.5514C54.8321 75.5808 54.8126 75.609 54.7916 75.636H54.7916Z" fill="#CCCCCC"/>
<path d="M56.0124 42.3177C50.7714 41.2526 45.5137 40.2863 40.1922 39.695C35.1464 39.093 30.058 38.9438 24.9863 39.249C20.406 39.5624 15.7864 40.2972 11.4836 41.9724C8.16783 43.2633 4.63343 45.2163 2.8424 48.4733C1.11593 51.613 1.78931 55.2337 3.66922 58.1305C5.93114 61.6159 9.45829 64.0043 13.1254 65.7499C17.3006 67.7375 21.7665 69.0259 26.2381 70.1216C28.5059 70.6773 30.786 71.1796 33.0664 71.6794C33.5421 71.7837 33.7453 71.0426 33.2679 70.9379C28.6694 69.9301 24.0577 68.9189 19.5734 67.46C15.4237 66.1099 11.177 64.3804 7.77871 61.5454C5.02951 59.2519 2.41559 55.9019 2.57786 52.0931C2.74144 48.2535 5.91761 45.5726 9.03067 43.9225C12.9211 41.8603 17.3413 40.8558 21.6725 40.3308C26.6318 39.7703 31.6331 39.7013 36.6056 40.1248C43.2513 40.6377 49.7986 41.8274 56.3209 43.1601" fill="black"/>
<path d="M31.4076 48.4327C33.6131 49.5508 34.9559 51.0275 34.9559 52.6472C34.9559 56.1363 28.7311 58.9648 21.0526 58.9648C17.7143 58.9648 14.6515 58.4297 12.2549 57.5385C14.8004 58.8291 18.4956 59.6416 22.6098 59.6416C30.2883 59.6416 36.513 56.8132 36.513 53.324C36.513 51.3519 34.5234 49.5912 31.4076 48.4327Z" fill="#F1F1F1"/>
<path d="M36.3135 50.8293C38.8021 52.091 40.3173 53.7573 40.3173 55.5849C40.3173 59.5219 33.2934 62.7135 24.6291 62.7135C20.8621 62.7135 17.4062 62.1098 14.7018 61.1042C17.5742 62.5604 21.7439 63.4773 26.3862 63.4773C35.0504 63.4773 42.0743 60.2857 42.0743 56.3487C42.0743 54.1233 39.8293 52.1366 36.3135 50.8293Z" fill="#F1F1F1"/>
<path d="M29.5302 49.4883C31.084 50.2761 32.03 51.3164 32.03 52.4576C32.03 54.9157 27.6445 56.9085 22.2348 56.9085C20.1272 56.9361 18.0306 56.5962 16.0365 55.9037C17.83 56.8129 20.4334 57.3854 23.3319 57.3854C28.7416 57.3854 33.1271 55.3926 33.1271 52.9344C33.127 51.545 31.7253 50.3046 29.5302 49.4883Z" fill="#F1F1F1"/>
<path d="M21.256 54.1959C18.0608 54.1959 16.507 53.3068 15.7661 52.561C15.6309 52.4241 15.5388 52.2496 15.5015 52.0596C15.4642 51.8696 15.4833 51.6726 15.5564 51.4936C15.6295 51.3146 15.7534 51.1616 15.9123 51.0541C16.0712 50.9465 16.258 50.8892 16.449 50.8894H27.5958C27.7476 50.8893 27.8956 50.9372 28.0193 51.0264C28.1429 51.1156 28.2361 51.2417 28.2858 51.3871C28.3355 51.5326 28.3393 51.6901 28.2966 51.8378C28.2539 51.9855 28.1668 52.116 28.0476 52.2112C26.9121 53.1166 24.8121 54.1959 21.256 54.1959Z" fill="#3F3D56"/>
<path d="M23.5705 42.8179C22.7016 42.1483 21.6109 41.8457 20.5268 41.9735C22.4513 42.4554 20.9327 45.153 22.6853 47.9507C23.6404 49.4754 21.7829 50.2229 20.0134 50.4275C20.9604 50.6594 21.9573 50.5534 22.8364 50.1275C23.7156 49.7017 24.4233 48.9818 24.8407 48.0889C25.2581 47.196 25.3597 46.1846 25.1283 45.2246C24.897 44.2647 24.3469 43.4149 23.5705 42.8179V42.8179Z" fill="#3F3D56"/>
<path d="M21.598 41.4116H21.1876V51.3205H21.598V41.4116Z" fill="#3F3D56"/>
<path d="M61.0947 44.1927C60.0046 43.414 58.774 42.8608 57.4732 42.5646C56.1723 42.2683 54.8266 42.2348 53.513 42.4661C52.1994 42.6973 50.9436 43.1887 49.8172 43.9122C48.6908 44.6357 47.7159 45.5772 46.9483 46.6828C43.7198 51.3327 40.4803 63.5258 42.7671 70.5893C49.588 63.2816 60.0669 62.5223 63.5498 58.5412C67.2713 54.2872 65.6791 47.4673 61.0947 44.1927Z" fill="#687AEF"/>
<path d="M55.1109 54.722C56.9396 54.722 58.422 53.2184 58.422 51.3636C58.422 49.5088 56.9396 48.0052 55.1109 48.0052C53.2823 48.0052 51.7998 49.5088 51.7998 51.3636C51.7998 53.2184 53.2823 54.722 55.1109 54.722Z" fill="white"/>
<path d="M39.968 74.2468C41.1658 74.2468 42.1367 73.262 42.1367 72.0471C42.1367 70.8323 41.1658 69.8474 39.968 69.8474C38.7703 69.8474 37.7994 70.8323 37.7994 72.0471C37.7994 73.262 38.7703 74.2468 39.968 74.2468Z" fill="#687AEF"/>
<path opacity="0.2" d="M58.6534 50.5887C58.8726 50.9695 59.0158 51.3905 59.0746 51.8274C59.1335 52.2644 59.1069 52.7088 58.9964 53.1354C58.8859 53.5619 58.6937 53.9622 58.4307 54.3134C58.1677 54.6646 57.8391 54.9598 57.4636 55.1822C57.0881 55.4045 56.6731 55.5497 56.2423 55.6094C55.8115 55.6691 55.3733 55.6422 54.9527 55.5301C54.5322 55.418 54.1375 55.2231 53.7913 54.9563C53.4451 54.6895 53.154 54.3562 52.9348 53.9754C53.5258 54.5013 54.282 54.7966 55.0681 54.8087C55.8542 54.8207 56.6189 54.5485 57.2253 54.041C57.8316 53.5334 58.2401 52.8235 58.3776 52.0384C58.5151 51.2532 58.3726 50.4441 57.9756 49.7557C58.2444 49.9945 58.4732 50.2758 58.6534 50.5887Z" fill="#231F20"/>
<path opacity="0.2" d="M63.556 58.557C60.0732 62.5381 49.5942 63.2974 42.7733 70.6051C42.5604 69.9368 42.3965 69.2534 42.283 68.5606C49.1005 61.9172 58.9961 61.0777 62.3612 57.2312C65.3729 53.7886 64.9041 48.6656 62.186 45.101C65.9138 48.6059 66.9664 54.6587 63.556 58.557Z" fill="#231F20"/>
<path d="M99.2628 119.305H96.7913L95.6155 109.636H99.2633L99.2628 119.305Z" fill="#FFB6B6"/>
<path d="M99.8931 121.735L91.9238 121.735V121.633C91.9239 120.798 92.2507 119.998 92.8324 119.408C93.4141 118.818 94.203 118.487 95.0257 118.487H95.0259L96.4816 117.366L99.1976 118.487L99.8933 118.487L99.8931 121.735Z" fill="#2F2E41"/>
<path d="M89.685 117.725L87.2741 118.278L84.0273 109.108L87.5855 108.294L89.685 117.725Z" fill="#FFB6B6"/>
<path d="M90.8276 119.955L83.054 121.735L83.0318 121.636C82.8506 120.822 82.9956 119.968 83.4349 119.263C83.8742 118.557 84.5717 118.057 85.3742 117.874L85.3744 117.874L86.551 116.456L89.4437 116.942L90.1223 116.786L90.8276 119.955Z" fill="#2F2E41"/>
<path d="M102.393 60.1919C103.552 63.7368 103.429 67.5846 102.115 71.7143L101.553 94.9657C102.482 96.0029 103.065 100.232 101.634 103.26C99.7222 107.304 101.039 112.896 99.6878 115.579H95.7689L94.8058 104.657L93.9576 103.425L93.8285 93.5733C93.308 92.3233 92.705 91.0837 93.7636 89.6356L93.7354 87.9243L93.5849 78.8027L87.6746 87.5687C87.5067 89.5526 86.5069 90.5922 85.1831 91.2641L87.0135 99.458C90.2149 102.237 89.4319 106.539 89.4848 110.521L90.5344 115.219L85.7112 115.657L83.5827 109.285L81.1896 105.358L77.0274 89.6597L79.93 82.8267L81.1163 80.034L87.7414 64.4379L102.393 60.1919Z" fill="#2F2E41"/>
<path d="M61.4474 47.5496C61.6407 47.7453 61.8738 47.8956 62.1305 47.9899C62.3872 48.0843 62.6612 48.1205 62.9331 48.0958C63.2051 48.0712 63.4684 47.9863 63.7045 47.8473C63.9407 47.7083 64.1439 47.5184 64.2998 47.2911L70.6891 49.1128L69.6404 45.7803L63.7338 44.5613C63.34 44.3209 62.8729 44.2353 62.421 44.3209C61.9691 44.4064 61.5638 44.6571 61.282 45.0254C61.0002 45.3938 60.8614 45.8542 60.8919 46.3194C60.9224 46.7846 61.12 47.2223 61.4474 47.5496Z" fill="#FFB8B8"/>
<path d="M66.673 44.8581L72.9093 44.8117C74.5911 44.3348 76.3641 44.2941 78.0655 44.6933L78.3965 44.7709L80.999 44.4715C82.5506 41.3257 85.4297 38.4815 89.2946 35.8615C89.8774 35.385 90.5532 35.0392 91.2773 34.8467C92.0014 34.6542 92.7575 34.6195 93.4958 34.7448C94.2341 34.87 94.9378 35.1525 95.5608 35.5735C96.1837 35.9946 96.7116 36.5446 97.1099 37.1876C97.8288 38.3514 98.0819 39.75 97.8173 41.097C97.5528 42.444 96.7906 43.6375 95.6867 44.433L83.9097 51.4561C82.8763 52.0724 81.7027 52.4051 80.5041 52.4216L80.4755 52.4367L73.7574 49.8836L70.3015 49.4376L65.6153 48.0562L66.673 44.8581Z" fill="#687AEF"/>
<path d="M91.6932 30.0973C94.9428 30.0973 97.5771 27.4254 97.5771 24.1294C97.5771 20.8334 94.9428 18.1614 91.6932 18.1614C88.4437 18.1614 85.8094 20.8334 85.8094 24.1294C85.8094 27.4254 88.4437 30.0973 91.6932 30.0973Z" fill="#FFB8B8"/>
<path d="M97.1882 27.9143C97.6243 27.2832 97.9336 26.2723 98.1164 25.5335C98.3608 24.5607 98.401 23.5466 98.2343 22.557C98.0677 21.5675 97.6979 20.6244 97.1489 19.7891C96.9463 19.4486 96.656 19.1707 96.3091 18.9852C95.9531 18.824 95.4837 18.8624 95.2356 19.1674C95.2348 18.8998 95.18 18.6352 95.0745 18.3899C94.969 18.1446 94.815 17.9238 94.6221 17.7412C94.2332 17.3781 93.7663 17.1118 93.2582 16.9635C92.2796 16.6609 91.2384 16.6325 90.2451 16.8816C89.2519 17.1307 88.3436 17.6479 87.6168 18.3783C87.3329 18.6714 87.4341 17.2071 87.1188 17.465C86.8134 17.7421 86.4132 17.8869 86.0038 17.8685C85.601 17.825 84.8601 19.2809 84.8558 18.87C84.4321 19.3007 84.2454 21.1171 84.3779 21.7105C84.5105 22.304 86.4825 22.0417 87.0479 22.2451C87.4225 22.3798 87.8293 22.3844 88.2171 22.4721C88.9068 22.6528 89.5073 23.0834 89.9053 23.6825C90.3034 24.2816 90.4714 25.0078 90.3776 25.724C90.6257 25.3856 90.9262 25.09 91.2672 24.8487C91.439 24.7296 91.6364 24.6538 91.8429 24.6277C92.0494 24.6015 92.2591 24.6258 92.4545 24.6984C92.6309 24.7944 92.7861 24.9259 92.9106 25.085C93.035 25.244 93.1261 25.4272 93.1782 25.6232C93.3066 26.0069 93.3564 26.4143 93.4872 26.7971C93.8709 27.9206 94.0689 29.0999 95.1387 29.3663C95.983 29.5765 96.5928 28.7761 97.1882 27.9143Z" fill="#2F2E41"/>
<path d="M102.895 59.0089L102.249 57.6983C101.458 52.7289 100.677 48.0938 101.738 43.9245C101.805 40.2848 100.696 36.8655 97.6165 34.9984L96.2273 34.1556L95.5241 32.3464L89.0486 32.5068L89.0295 34.8785L86.7103 38.6303V38.6457L86.8551 59.061L87.4954 61.1679L86.5293 63.6188L87.0419 65.1825L99.808 63.1124L101.293 62.8708C101.464 62.8151 101.629 62.742 101.786 62.6524C102.319 62.3523 102.736 61.8791 102.971 61.309C102.985 61.2761 102.996 61.2452 103.008 61.2123C103.108 60.9462 103.166 60.6657 103.179 60.3812C103.202 59.9066 103.105 59.4339 102.895 59.0089Z" fill="#687AEF"/>
<path opacity="0.2" d="M103.179 60.3812C103.166 60.6657 103.108 60.9462 103.008 61.2124L101.786 62.6524C101.629 62.742 101.464 62.8151 101.293 62.8708L99.808 63.1124L101.956 59.0166L97.2354 48.5345L103.179 60.3812Z" fill="black"/>
<path d="M108.317 72.5052C108.08 72.3413 107.881 72.1266 107.735 71.8764C107.589 71.6262 107.498 71.3465 107.47 71.0569C107.441 70.7674 107.476 70.4751 107.571 70.2006C107.666 69.9261 107.82 69.6761 108.021 69.4683L104.914 63.1366L108.51 63.5809L110.909 69.5254C111.231 69.8906 111.41 70.3628 111.412 70.8527C111.413 71.3425 111.238 71.816 110.918 72.1833C110.599 72.5506 110.157 72.7862 109.678 72.8455C109.198 72.9049 108.714 72.7838 108.317 72.5052Z" fill="#FFB8B8"/>
<path d="M95.7216 50.7196L98.0785 50.3894C98.0785 50.3894 98.3061 53.9937 99.4335 54.5399C100.561 55.0862 100.181 55.1761 100.314 55.7543C100.447 56.3326 101.048 57.2064 101.941 57.6048C102.834 58.0033 106.897 68.0224 106.897 68.0224L110.317 67.2133C110.001 66.3434 109.792 65.437 109.697 64.5149C109.577 63.1207 108.019 59.8311 107.506 59.3427C106.993 58.8544 107.196 57.9935 106.93 56.837C106.664 55.6806 106.849 56.7529 106.405 54.8255C105.962 52.898 100.98 41.3467 100.771 39.5671C100.563 37.7874 98.1177 36.7399 98.1177 36.7399L96.2174 37.1894L95.7216 50.7196Z" fill="#687AEF"/>
<path d="M56.5779 122H130.762C130.825 122 130.886 121.975 130.93 121.929C130.975 121.884 131 121.823 131 121.759C131 121.695 130.975 121.634 130.93 121.589C130.886 121.543 130.825 121.518 130.762 121.518H56.5779C56.5149 121.518 56.4545 121.543 56.4099 121.589C56.3653 121.634 56.3403 121.695 56.3403 121.759C56.3403 121.823 56.3653 121.884 56.4099 121.929C56.4545 121.975 56.5149 122 56.5779 122Z" fill="#CCCCCC"/>
</svg>
