<svg width="176" height="110" viewBox="0 0 176 110" fill="none" xmlns="http://www.w3.org/2000/svg">
<g clip-path="url(#clip0_301_1019)">
<path d="M0 109.637C0 109.806 0.13605 109.942 0.305468 109.942H175.695C175.864 109.942 176 109.806 176 109.637C176 109.467 175.864 109.331 175.695 109.331H0.305468C0.13605 109.331 0 109.467 0 109.637Z" fill="#3F3D56"/>
<path d="M72.7688 109.865H17.9464C15.7571 109.865 13.976 108.084 13.976 105.895V3.97062C13.976 1.78119 15.7571 0 17.9464 0H72.7688C74.9581 0 76.7393 1.78119 76.7393 3.97062V105.895C76.7393 108.084 74.9581 109.865 72.7688 109.865ZM17.9464 0.51339C16.0402 0.51339 14.4893 2.06434 14.4893 3.97062V105.895C14.4893 107.801 16.0402 109.352 17.9464 109.352H72.7688C74.675 109.352 76.2259 107.801 76.2259 105.895V3.97062C76.2259 2.06434 74.675 0.51339 72.7688 0.51339H17.9464Z" fill="#3F3D56"/>
<path d="M171.088 51.8284C170.871 51.463 169.934 51.8543 169.761 51.5226C169.59 51.1921 170.461 50.6886 170.958 49.5384C171.048 49.331 171.614 48.0238 171.195 47.6205C170.401 46.8559 166.77 50.011 165.499 48.9785C165.22 48.7519 165.025 48.2996 164.181 47.5652C163.845 47.273 163.642 47.1411 163.446 47.1902C163.167 47.2598 163.145 47.633 162.846 48.3669C162.397 49.4674 162.132 49.4009 161.871 50.279C161.677 50.9308 161.721 51.3097 161.493 51.3836C161.17 51.488 160.873 50.7967 160.463 50.8586C160.046 50.9218 159.793 51.7267 159.714 52.3294C159.564 53.4605 159.979 54.2068 160.209 54.9915C160.46 55.8444 160.608 57.1413 160.03 58.9774L154.312 75.0891C155.575 71.783 159.23 62.7202 160.766 59.3524C161.209 58.3802 161.699 57.394 162.704 57.0048C163.672 56.6301 165.001 56.8538 166.695 56.4456C166.893 56.3979 167.442 56.2582 167.512 55.9352C167.569 55.6681 167.246 55.519 167.295 55.2689C167.362 54.9334 167.997 54.9293 168.778 54.5422C169.328 54.2693 169.671 53.9447 169.966 53.6655C170.055 53.5814 171.377 52.3149 171.088 51.8284H171.088V51.8284Z" fill="#F2F2F2"/>
<path d="M148.591 60.3103C148.349 60.3113 148.271 60.8843 148.058 60.8732C147.846 60.8622 147.851 60.2894 147.43 59.7132C147.354 59.6093 146.875 58.9546 146.557 59.0437C145.953 59.2126 146.453 61.9054 145.58 62.2313C145.388 62.3028 145.11 62.2679 144.506 62.4703C144.266 62.5509 144.142 62.6125 144.11 62.7231C144.063 62.8801 144.24 62.9986 144.514 63.3571C144.925 63.8947 144.816 64.0057 145.171 64.3873C145.435 64.6706 145.634 64.7582 145.604 64.8915C145.562 65.0802 145.137 65.0266 145.05 65.2453C144.96 65.4686 145.282 65.8248 145.555 66.0378C146.067 66.4376 146.553 66.4491 147.005 66.5625C147.495 66.6858 148.175 66.9872 148.909 67.8005L155.167 75.2559C153.908 73.6824 150.515 69.2733 149.305 67.5477C148.956 67.0496 148.613 66.5248 148.712 65.9191C148.808 65.3359 149.301 64.7481 149.59 63.7986C149.623 63.6877 149.713 63.3778 149.575 63.2507C149.46 63.1456 149.294 63.2611 149.185 63.1646C149.04 63.0351 149.221 62.7221 149.256 62.2273C149.281 61.8783 149.221 61.6164 149.169 61.3911C149.153 61.3232 148.913 60.3091 148.591 60.3103V60.3103H148.591Z" fill="#F2F2F2"/>
<path d="M153.417 61.3936L153.271 60.0926L153.337 59.994C153.646 59.5379 153.803 59.0926 153.804 58.6698C153.805 58.6026 153.802 58.5353 153.799 58.4669C153.786 58.1955 153.77 57.8582 153.946 57.4649C154.045 57.2457 154.322 56.7381 154.738 56.8009C154.85 56.8166 154.935 56.8681 155 56.9285C155.009 56.9134 155.019 56.8983 155.029 56.882C155.159 56.6841 155.262 56.5993 155.36 56.5176C155.436 56.4548 155.515 56.3901 155.638 56.2368C155.692 56.1696 155.734 56.1106 155.77 56.0609C155.877 55.9108 156.018 55.7318 156.266 55.7349C156.531 55.7475 156.67 55.9667 156.762 56.1118C156.926 56.3706 157.001 56.5572 157.05 56.6809C157.068 56.7262 157.089 56.7771 157.099 56.7928C157.184 56.9184 157.879 56.8009 158.14 56.7582C158.728 56.6602 159.236 56.5754 159.446 56.946C159.596 57.2111 159.485 57.5617 159.105 58.0158C158.986 58.1572 158.86 58.2646 158.748 58.3488C158.841 58.4041 158.924 58.4889 158.958 58.622C159.037 58.9374 158.766 59.2534 158.152 59.5624C158 59.6397 157.795 59.7427 157.507 59.7924C157.372 59.8156 157.25 59.8213 157.146 59.8244C157.144 59.8847 157.13 59.95 157.093 60.0172C156.985 60.2151 156.761 60.3094 156.423 60.2867C156.051 60.2673 155.745 60.1963 155.475 60.1341C155.239 60.0801 155.036 60.0342 154.876 60.0449C154.58 60.0688 154.352 60.3056 154.085 60.6128L153.417 61.3936H153.417Z" fill="#F2F2F2"/>
<path d="M154.093 53.6476L152.871 54.1185L152.759 54.0791C152.24 53.8968 151.769 53.8578 151.36 53.9633C151.295 53.98 151.23 54.0001 151.165 54.0205C150.906 54.1015 150.583 54.2022 150.158 54.1318C149.921 54.0921 149.36 53.9528 149.315 53.534C149.302 53.4216 149.33 53.3265 149.372 53.2489C149.355 53.2436 149.338 53.238 149.32 53.2321C149.095 53.1569 148.987 53.079 148.883 53.004C148.803 52.9464 148.721 52.8869 148.541 52.8067C148.463 52.7715 148.395 52.7457 148.338 52.724C148.165 52.6579 147.956 52.5672 147.896 52.3263C147.841 52.0667 148.018 51.8768 148.135 51.751C148.344 51.5265 148.505 51.4071 148.613 51.328C148.652 51.2992 148.696 51.2666 148.708 51.2526C148.808 51.1381 148.519 50.4961 148.411 50.2539C148.167 49.7103 147.956 49.2399 148.261 48.9433C148.48 48.7308 148.847 48.7497 149.383 49.0022C149.549 49.0808 149.685 49.1754 149.795 49.2622C149.825 49.1586 149.886 49.0569 150.006 48.9906C150.291 48.834 150.666 49.0161 151.12 49.531C151.234 49.6588 151.385 49.8311 151.506 50.0965C151.563 50.2215 151.599 50.338 151.629 50.438C151.688 50.4249 151.755 50.422 151.829 50.4405C152.048 50.4945 152.196 50.6875 152.259 51.0202C152.335 51.3848 152.344 51.6991 152.352 51.9761C152.36 52.218 152.367 52.4262 152.418 52.5778C152.516 52.858 152.803 53.0185 153.168 53.1994L154.093 53.6476L154.093 53.6476H154.093V53.6476Z" fill="#F2F2F2"/>
<path d="M153.417 49.8149L153.271 48.5139L153.337 48.4153C153.646 47.9592 153.803 47.5138 153.804 47.091C153.805 47.0238 153.802 46.9566 153.799 46.8881C153.786 46.6168 153.77 46.2794 153.946 45.8862C154.045 45.667 154.322 45.1594 154.738 45.2222C154.85 45.2379 154.935 45.2894 155 45.3497C155.009 45.3346 155.019 45.3196 155.029 45.3032C155.159 45.1054 155.262 45.0206 155.36 44.9389C155.436 44.8761 155.515 44.8114 155.638 44.6581C155.692 44.5909 155.734 44.5318 155.77 44.4822C155.877 44.3321 156.018 44.153 156.266 44.1562C156.531 44.1687 156.67 44.388 156.762 44.5331C156.926 44.7919 157.001 44.9785 157.05 45.1022C157.068 45.1474 157.089 45.1983 157.099 45.214C157.184 45.3397 157.879 45.2222 158.14 45.1795C158.728 45.0815 159.236 44.9967 159.446 45.3673C159.596 45.6324 159.485 45.9829 159.105 46.4371C158.986 46.5785 158.86 46.6859 158.748 46.77C158.841 46.8253 158.924 46.9101 158.958 47.0433C159.037 47.3587 158.766 47.6746 158.152 47.9837C158 48.061 157.795 48.164 157.507 48.2136C157.372 48.2369 157.25 48.2425 157.146 48.2457C157.144 48.306 157.13 48.3713 157.093 48.4385C156.985 48.6364 156.761 48.7306 156.423 48.708C156.051 48.6885 155.745 48.6175 155.475 48.5554C155.239 48.5013 155.036 48.4555 154.876 48.4662C154.58 48.49 154.352 48.7269 154.085 49.034L153.417 49.8149H153.417Z" fill="#F2F2F2"/>
<path d="M154.748 75.0679L154.475 74.8971L154.409 74.5824L154.475 74.8971L154.157 74.9335C154.152 74.904 154.135 74.8361 154.109 74.73C153.967 74.1483 153.533 72.378 153.171 69.5902C152.918 67.644 152.776 65.6433 152.746 63.6425C152.717 61.6386 152.811 60.1215 152.887 58.9022C152.945 57.9826 153.015 57.1069 153.083 56.2538C153.265 53.9747 153.437 51.8219 153.309 49.4386C153.281 48.9065 153.222 47.799 152.575 46.6206C152.199 45.9371 151.682 45.3303 151.038 44.8177L151.439 44.3139C152.15 44.8805 152.722 45.5527 153.139 46.3115C153.856 47.6181 153.921 48.8249 153.952 49.4047C154.082 51.8301 153.908 54.0036 153.724 56.3047C153.656 57.1546 153.587 58.0265 153.529 58.9424C153.454 60.1504 153.36 61.6543 153.389 63.6325C153.418 65.6094 153.56 67.5856 153.809 69.5072C154.166 72.26 154.593 74.0038 154.734 74.5767C154.809 74.8826 154.824 74.9467 154.748 75.0679V75.0679Z" fill="#F2F2F2"/>
<path d="M149.858 45.8397C149.832 45.8397 149.805 45.8391 149.778 45.8372C149.23 45.8077 148.723 45.4798 148.27 44.8629C148.058 44.5727 147.949 44.2416 147.732 43.5814C147.699 43.4796 147.535 42.9633 147.436 42.2528C147.371 41.7886 147.379 41.5945 147.471 41.423C147.573 41.232 147.739 41.0988 147.925 41.009C147.916 40.9474 147.923 40.884 147.95 40.8193C148.059 40.551 148.351 40.5862 148.509 40.6032C148.588 40.6132 148.688 40.6264 148.795 40.6208C148.964 40.6126 149.055 40.5623 149.193 40.487C149.324 40.4147 149.488 40.3249 149.731 40.2753C150.209 40.1754 150.61 40.3111 150.743 40.3557C151.438 40.5875 151.781 41.1283 152.178 41.7546C152.257 41.8803 152.529 42.3376 152.708 42.9645C152.838 43.4168 152.82 43.6178 152.781 43.7673C152.701 44.0745 152.515 44.2504 152.04 44.6386C151.544 45.0451 151.296 45.2486 151.082 45.3723C150.585 45.6594 150.273 45.8397 149.858 45.8397V45.8397H149.858Z" fill="#F2F2F2"/>
<path d="M76.8922 45.3081H13.8231V61.6904H76.8922V45.3081Z" fill="#F50057"/>
<path d="M53.9579 0.256683H37.5764V109.609H53.9579V0.256683Z" fill="#F50057"/>
<path opacity="0.2" d="M54.5634 60.457C54.6795 60.0058 54.7486 59.5368 54.7654 59.0535L75.254 40.3934L57.6438 31.7927L49.8825 52.4905C49.352 52.3519 48.7983 52.2706 48.2244 52.2706C47.9197 52.2706 47.6222 52.2986 47.3285 52.3389L39.6241 31.7927L22.0139 40.3934L41.6972 58.3201C41.6845 58.4868 41.6718 58.6535 41.6718 58.8235C41.6718 59.3886 41.7508 59.9339 41.8853 60.457C29.82 64.2279 24.8806 75.6154 24.8806 75.6154L40.0336 87.9021C39.1299 78.8642 44.6489 69.6114 47.6326 65.3465C47.8278 65.3641 48.0246 65.3764 48.2244 65.3764C48.4242 65.3764 48.6209 65.364 48.8162 65.3465C51.7999 69.6114 57.3189 78.8642 56.4152 87.9021L71.5681 75.6154C71.5681 75.6154 66.6288 64.2279 54.5635 60.457L54.5634 60.457H54.5634Z" fill="black"/>
<path d="M56.7883 83.4747C56.6116 83.4747 56.4335 83.4363 56.2653 83.3576C55.8399 83.1591 55.5712 82.7452 55.5638 82.2774C55.4396 74.354 50.9218 66.5774 48.2398 62.6473C48.0607 62.3848 47.7514 62.2282 47.4122 62.2282H47.4107C47.0591 62.2282 46.7498 62.3848 46.5707 62.6473C43.8888 66.5774 39.3711 74.354 39.2467 82.2774C39.2393 82.7449 38.9706 83.1591 38.5452 83.3576C38.1156 83.5589 37.62 83.498 37.2522 83.1999L24.6574 72.9873C24.2078 72.6226 24.0758 71.9838 24.3437 71.4682C25.6168 69.0163 30.5182 60.7524 40.1375 57.3542C40.5667 57.2026 40.8274 56.7752 40.7713 56.3147C40.7401 56.0575 40.7243 55.7993 40.7243 55.5471C40.7249 55.2463 40.61 54.973 40.4089 54.79L22.302 38.2989C22.0017 38.0254 21.8568 37.6221 21.9142 37.22C21.9717 36.8179 22.224 36.4712 22.589 36.293L37.6648 28.9303C37.974 28.7791 38.3348 28.7657 38.655 28.8928C38.975 29.0202 39.2278 29.2782 39.3487 29.6006L46.3388 48.2418C46.4831 48.6266 46.8531 48.8778 47.2731 48.8673C47.5898 48.86 47.911 48.8783 48.2313 48.9199C48.6832 48.9803 49.1097 48.7254 49.2679 48.3027L56.2809 29.6006C56.4019 29.2782 56.6547 29.0202 56.9747 28.8928C57.2946 28.7658 57.6558 28.7793 57.9649 28.9303L73.0404 36.293C73.4055 36.4712 73.6579 36.8179 73.7153 37.2202C73.7729 37.6221 73.6279 38.0254 73.3276 38.2989L54.3573 55.5764C54.1805 55.7373 54.0704 55.9572 54.0474 56.1951C54.0424 56.2465 54.037 56.2979 54.0308 56.349C53.9788 56.7817 54.2477 57.2041 54.67 57.3532C64.2914 60.7507 69.1936 69.016 70.4669 71.4682C70.7348 71.9838 70.6028 72.6226 70.1532 72.9873L57.5583 83.1999C57.3345 83.3814 57.0631 83.4747 56.7883 83.4747H56.7883H56.7883Z" fill="#F50057"/>
<path d="M163.162 109.966H110.269C108.08 109.966 106.299 108.185 106.299 105.995V79.0818C106.299 76.8924 108.08 75.1111 110.269 75.1111H163.162C165.352 75.1111 167.133 76.8924 167.133 79.0818V105.995C167.133 108.185 165.352 109.966 163.162 109.966ZM110.269 75.6244C108.363 75.6244 106.812 77.1754 106.812 79.0818V105.995C106.812 107.902 108.363 109.452 110.269 109.452H163.162C165.068 109.452 166.619 107.902 166.619 105.995V79.0818C166.619 77.1754 165.068 75.6244 163.162 75.6244H110.269Z" fill="#3F3D56"/>
<path d="M142.025 75.1419H132.988V109.935H142.025V75.1419Z" fill="#F50057"/>
<path d="M166.876 88.2458H106.555V97.283H166.876V88.2458Z" fill="#F50057"/>
<path opacity="0.2" d="M134.952 98.3871C135.201 98.4511 135.459 98.4892 135.726 98.4985L146.019 109.801L150.764 100.086L139.346 95.8048C139.423 95.5121 139.468 95.2067 139.468 94.89C139.468 94.7219 139.452 94.5578 139.43 94.3958L150.764 90.1455L146.019 80.4305L136.131 91.2892C136.039 91.2822 135.947 91.2752 135.853 91.2752C135.541 91.2752 135.24 91.3188 134.952 91.393C132.872 84.7369 126.59 82.012 126.59 82.012L119.813 90.3714C124.798 89.8729 129.902 92.9176 132.255 94.5636C132.245 94.6713 132.238 94.7798 132.238 94.89C132.238 95.0003 132.245 95.1088 132.255 95.2165C129.902 96.8625 124.798 99.9072 119.813 99.4086L126.59 107.768C126.59 107.768 132.872 105.043 134.952 98.3871L134.952 98.3871V98.3871Z" fill="black"/>
<path d="M146.39 108.247C146.186 108.247 145.989 108.162 145.849 108.008L136.318 97.5418C136.239 97.4555 136.125 97.4009 135.996 97.3878L135.955 97.3836C135.722 97.3578 135.509 97.4836 135.436 97.6904C133.555 103.024 128.975 105.739 127.616 106.444C127.31 106.603 126.93 106.523 126.712 106.254L121.078 99.3045C120.899 99.0844 120.863 98.7876 120.983 98.5299C121.102 98.276 121.349 98.1158 121.628 98.1115C125.983 98.0444 130.263 95.5581 132.426 94.0821C132.556 93.9931 132.634 93.8397 132.634 93.6718C132.634 93.4963 132.556 93.3429 132.426 93.2542C130.263 91.7782 125.984 89.2919 121.628 89.2247C121.349 89.2205 121.102 89.06 120.983 88.8061C120.863 88.5484 120.899 88.2516 121.078 88.0315L126.712 81.0825C126.93 80.8137 127.31 80.7335 127.616 80.8919C128.975 81.5971 133.554 84.3114 135.436 89.6436C135.508 89.8502 135.717 89.979 135.926 89.9537C136.155 89.9249 136.382 89.9184 136.602 89.9347L145.849 79.7802C146.013 79.6004 146.254 79.5135 146.495 79.5483C146.735 79.5829 146.943 79.7338 147.049 79.9521L151.111 88.2697C151.201 88.4549 151.21 88.671 151.133 88.8625C151.057 89.0538 150.903 89.2049 150.71 89.2771L140.427 93.1336C140.237 93.2045 140.114 93.3895 140.119 93.5936L140.12 93.668C140.12 93.828 140.109 93.9906 140.087 94.1516C140.059 94.3586 140.188 94.5647 140.394 94.6422L150.71 98.5109C150.903 98.5833 151.057 98.7345 151.133 98.926C151.21 99.1175 151.201 99.3334 151.111 99.5186L147.049 107.836C146.943 108.054 146.735 108.205 146.495 108.24C146.46 108.245 146.425 108.247 146.39 108.247Z" fill="#F50057"/>
<path d="M98.4868 44.0715H90.2148V41.3477C90.2148 36.782 93.9213 33.0753 98.4868 33.0753H98.4868V44.0715V44.0715Z" fill="#2F2E41"/>
<path d="M96.6533 38.9867L98.0756 45.3841L89.7413 44.0001L93.1375 37.9498L96.6533 38.9867Z" fill="#FFB6B6"/>
<path opacity="0.1" d="M96.6533 38.9867L98.0756 45.3841L89.7413 44.0001L93.1375 37.9498L96.6533 38.9867Z" fill="black"/>
<path d="M96.6533 52.6528H88.6628V64.4792H96.6533V52.6528Z" fill="#FFB6B6"/>
<path d="M101.847 74.148L100.089 83.5772C100.089 83.5772 101.208 90.1296 97.8518 96.8419L95.6145 103.714L92.2585 103.234C92.2585 103.234 94.3361 98.1204 94.3361 95.883C94.3361 93.6455 94.8155 85.0155 94.8155 85.0155L94.5758 75.168L101.847 74.148V74.148Z" fill="#FFB6B6"/>
<path d="M91.7791 103.075C91.7791 103.075 95.6145 101.636 95.9341 103.714L95.7743 104.673C95.7743 104.673 97.2126 108.988 95.1351 109.307C93.0576 109.627 91.1399 110.107 90.9801 109.148C90.8202 108.189 90.8228 106.992 91.221 106.152C91.6193 105.312 91.7791 103.075 91.7791 103.075Z" fill="#2F2E41"/>
<path d="M89.7495 72.6854L88.8158 82.2314C88.8158 82.2314 85.9191 88.2142 87.276 95.5951L87.514 102.818L90.8709 103.291C90.8709 103.291 90.2975 97.801 90.9198 95.6518C91.542 93.5027 93.4815 85.0797 93.4815 85.0797L96.4503 75.6874L89.7495 72.6854V72.6854Z" fill="#FFB6B6"/>
<path d="M91.3758 103.271C91.3758 103.271 88.0917 100.823 87.2069 102.729L87.0938 103.695C87.0938 103.695 84.5578 108.467 86.4644 109.352C88.3711 110.237 90.0343 110.203 90.4544 109.327C90.8746 108.45 91.2051 107.3 91.0561 106.382C90.9071 105.465 91.3758 103.271 91.3758 103.271L91.3758 103.271Z" fill="#2F2E41"/>
<path d="M99.7696 58.9655L106.641 73.5088C106.641 73.5088 92.8179 80.4607 84.6677 80.4607L88.7145 58.9655H99.7696L99.7696 58.9656V58.9655Z" fill="#2F2E41"/>
<path d="M93.6169 41.9452L97.6122 42.5844L97.2925 52.6528L101.767 61.6025L96.0141 64.4792C96.0141 64.4792 91.5394 56.009 90.7404 50.735C89.9414 45.4611 90.4208 41.6255 90.4208 41.6255L93.6169 41.9452L93.6169 41.9452Z" fill="#E6E6E6"/>
<path d="M90.5806 42.2648L86.5853 42.9041L86.905 52.9725L85.9461 62.2418L88.1834 64.7988C88.1834 64.7988 92.6581 56.3286 93.4571 51.0547C94.2561 45.7808 93.7767 41.9452 93.7767 41.9452L90.5805 42.2648L90.5806 42.2648V42.2648Z" fill="#E6E6E6"/>
<path d="M96.7332 42.8242L97.6121 42.5845C97.6121 42.5845 100.728 42.1849 101.208 43.4635C101.687 44.742 101.527 52.2533 101.527 52.2533C101.527 52.2533 102.352 61.4723 99.1431 61.5774C95.9341 61.6824 96.5734 54.0113 96.5734 54.0113L96.7332 42.8242Z" fill="#E6E6E6"/>
<path d="M95.2587 40.7424C97.5429 40.7424 99.3947 38.8905 99.3947 36.6062C99.3947 34.3218 97.5429 32.47 95.2587 32.47C92.9744 32.47 91.1227 34.3218 91.1227 36.6062C91.1227 38.8905 92.9744 40.7424 95.2587 40.7424Z" fill="#FFB6B6"/>
<path d="M93.9649 42.2987C94.8521 42.0736 95.8581 43.0213 96.212 44.416C96.361 44.9712 96.3749 45.5541 96.2525 46.1157L96.6337 47.7012L96.6618 47.6997L99.6691 54.7873C100.368 56.4353 100.294 58.3272 99.4026 59.8794C98.872 60.8027 98.1756 61.4235 97.3578 60.7898C96.0009 59.7384 95.1146 53.7181 94.71 50.2598L93.7743 46.7446C93.3987 46.3091 93.1329 45.7901 92.9991 45.2308C92.6452 43.8366 93.0776 42.5238 93.9649 42.2987H93.9649V42.2987Z" fill="#FFB6B6"/>
<path d="M90.1011 42.8242L89.2222 42.5845C89.2222 42.5845 86.1059 42.1849 85.6265 43.4635C85.1471 44.742 85.3069 52.2533 85.3069 52.2533C85.3069 52.2533 84.4823 61.4723 87.6912 61.5774C90.9002 61.6824 90.2609 54.0113 90.2609 54.0113L90.1011 42.8242Z" fill="#E6E6E6"/>
<path d="M92.8695 42.2987C91.9822 42.0736 90.9763 43.0213 90.6224 44.416C90.4734 44.9712 90.4595 45.5541 90.5819 46.1157L90.2006 47.7012L90.1726 47.6997L87.1652 54.7873C86.466 56.4353 86.5399 58.3272 87.4318 59.8794C87.9623 60.8027 88.6588 61.4235 89.4765 60.7898C90.8334 59.7384 91.7197 53.7181 92.1244 50.2598L93.06 46.7446C93.4356 46.3091 93.7014 45.7901 93.8352 45.2308C94.1892 43.8366 93.7568 42.5238 92.8695 42.2987H92.8695V42.2987Z" fill="#FFB6B6"/>
<path d="M87.3404 39.9524C87.5508 39.3127 87.9661 38.7526 88.1519 38.1054C88.3987 37.2459 88.9239 39.1525 88.9752 38.2599C89.0726 36.5632 91.662 32.1987 93.1403 31.3603C94.6186 30.5219 95.4676 30.7747 96.9737 31.5621C96.9737 31.5621 97.7047 31.6086 98.6149 32.0579C99.525 32.5073 100.344 33.227 100.698 34.1783C100.979 34.9323 100.948 35.7604 101.042 36.5595C101.303 38.7857 102.551 40.903 102.283 43.1284C102.199 43.8227 101.935 44.5407 101.368 44.9491C100.8 45.3575 99.8828 45.3131 99.5092 44.7219C99.3817 44.5202 99.3278 44.2809 99.2185 44.0687C99.1092 43.8566 98.9117 43.6588 98.6732 43.6654C98.3147 43.6753 98.1322 44.1565 98.2735 44.4861C98.4149 44.8158 98.7472 45.0148 99.0591 45.1919C98.3162 45.5261 97.3945 45.422 96.7448 44.9305C96.0951 44.439 95.7443 43.5803 95.8638 42.7744C96.0323 41.6388 97.6867 41.8738 97.8816 40.7424C98.0234 39.9187 98.5217 38.5406 98.3859 37.7159C98.2502 36.8912 97.5985 37.8898 98.2851 37.4133C97.5297 37.7774 95.9139 35.2861 95.1232 35.0071C94.3324 34.7281 93.6619 34.1239 93.3023 33.3663C92.4635 34.5822 91.7257 34.252 91.4254 35.6983C91.125 37.1445 91.4027 40.4304 92.6396 41.2378C92.1446 41.5756 91.75 42.0586 91.5177 42.611C91.3862 42.9239 91.3009 43.2664 91.0825 43.5263C90.6654 44.0227 89.8952 44.0529 89.2814 43.8442C88.5202 43.5854 87.8695 43.0169 87.5106 42.2975C87.1518 41.578 87.0893 40.7162 87.3404 39.9524L87.3404 39.9524L87.3404 39.9524Z" fill="#2F2E41"/>
</g>
<defs>
<clipPath id="clip0_301_1019">
<rect width="176" height="110" fill="white"/>
</clipPath>
</defs>
</svg>
