<svg width="300" height="234" viewBox="0 0 300 234" fill="none" xmlns="http://www.w3.org/2000/svg">
<g clip-path="url(#clip0_301_789)">
<path d="M271.876 191.908C269.056 188.899 262.532 186.321 253.793 184.614V145.827H253.393V145.426H246.178V145.827H234.841C235.857 139.958 239.245 119.496 238.562 111.277C238.562 111.277 247.371 87.1761 240.164 67.0894C240.164 67.0894 247.379 68.6958 248.173 60.6611C248.82 54.1743 256.243 39.8422 247.718 31.5959C245.717 29.4912 242.742 27.7511 238.446 26.5846L236.362 20.7382C237.722 18.5806 238.562 15.6685 238.562 12.4585C238.562 8.13491 237.047 4.34585 234.777 2.21886C233.47 0.826846 231.874 -0.00836182 230.151 -0.00836182C228.838 0.0118279 227.569 0.468093 226.543 1.28899C226.693 1.40314 226.837 1.52564 226.982 1.6537C224.348 3.62757 222.541 7.7173 222.541 12.4446C222.541 16.022 223.582 19.2265 225.228 21.4342L224.142 28.514C224.142 28.514 201.719 22.8986 211.332 60.6611C211.332 60.6611 213.735 67.0894 217.74 67.0894C217.74 67.0894 215.337 96.0126 219.341 106.458C219.341 106.458 217.74 132.169 220.945 137.792V145.827H200.92V185.611C190.668 187.966 184.099 191.583 184.099 195.633C184.099 202.735 204.18 208.49 228.952 208.49C253.723 208.49 273.802 202.747 273.802 195.642C273.802 194.344 273.125 193.092 271.876 191.908Z" fill="#F2F2F2"/>
<path d="M114.039 196.123C111.422 193.323 105.344 190.926 97.1989 189.336V153.241H96.827V152.868H90.1193V153.241H79.5735C80.5199 147.782 83.6725 128.742 83.037 121.091C83.037 121.091 91.235 98.6603 84.5273 79.9683C84.5273 79.9683 91.235 81.4633 91.9815 73.9882C92.5837 67.9525 99.4912 54.6142 91.5569 46.9414C89.6947 44.9926 86.9278 43.364 82.9315 42.2838L80.9889 36.8327C82.2572 34.8226 83.037 32.1165 83.037 29.1265C83.037 25.1036 81.63 21.579 79.5153 19.5995C78.2997 18.3022 76.815 17.5394 75.2109 17.5394C73.9909 17.5588 72.8118 17.9837 71.8585 18.7476C71.9972 18.8534 72.136 18.9676 72.2664 19.0845C69.8159 20.922 68.1314 24.7277 68.1314 29.1265C68.1314 32.4673 69.1027 35.4379 70.629 37.4785L69.6189 44.0655C69.6189 44.0655 48.7521 38.8316 57.6855 73.9743C57.6855 73.9743 59.9223 79.9544 63.6494 79.9544C63.6494 79.9544 61.4126 106.87 65.1397 116.592C65.1397 116.592 63.6494 140.518 66.63 145.752V153.227H48.0083V190.255C38.4699 192.446 32.3562 195.823 32.3562 199.589C32.3562 206.196 51.0444 211.561 74.0953 211.561C97.1462 211.561 115.832 206.204 115.832 199.589C115.832 198.39 115.202 197.223 114.039 196.123Z" fill="#F2F2F2"/>
<path d="M175.446 194.239C173.503 192.151 168.969 190.366 162.902 189.183V162.3H162.624V162.022H157.629V162.3H149.775C150.48 158.233 152.828 144.048 152.356 138.358C152.356 138.358 158.462 121.653 153.466 107.733C153.466 107.733 158.462 108.847 159.017 103.279C159.466 98.7827 164.611 88.8493 158.7 83.1337C157.313 81.6749 155.253 80.4694 152.276 79.6648L150.833 75.5974C151.863 73.8634 152.392 71.8754 152.359 69.8567C152.359 66.8611 151.31 64.2358 149.734 62.7603C148.829 61.7942 147.724 61.2263 146.531 61.2263C145.622 61.2413 144.743 61.5586 144.033 62.1283C144.139 62.2062 144.239 62.2898 144.339 62.3788C142.512 63.7458 141.258 66.5799 141.258 69.8567C141.258 72.3373 141.982 74.5589 143.123 76.0874L142.368 80.9956C142.368 80.9956 126.827 77.098 133.488 103.268C133.488 103.268 135.153 107.722 137.928 107.722C137.928 107.722 136.263 127.767 139.038 135.006C139.038 135.006 137.928 152.823 140.148 156.721V162.289H126.272V189.851C119.167 191.482 114.616 193.991 114.616 196.811C114.616 201.733 128.534 205.72 145.698 205.72C162.863 205.72 176.781 201.73 176.781 196.811C176.781 195.926 176.312 195.057 175.446 194.239Z" fill="#F2F2F2"/>
<path d="M288.666 198.799C287.517 197.568 284.85 196.516 281.276 195.817V179.976H281.112V179.812H278.167V179.976H273.538C273.955 177.579 275.339 169.219 275.059 165.864C275.059 165.864 278.667 156.017 275.714 147.812C275.714 147.812 278.659 148.469 278.986 145.187C279.264 142.539 282.283 136.684 278.8 133.316C277.981 132.456 276.766 131.746 275.012 131.272L274.16 128.878C274.769 127.857 275.08 126.685 275.059 125.495C275.059 123.73 274.44 122.182 273.513 121.319C273.278 121.045 272.989 120.823 272.663 120.667C272.338 120.511 271.984 120.425 271.623 120.415C271.088 120.424 270.571 120.611 270.153 120.946C270.214 120.992 270.274 121.042 270.33 121.094C269.256 121.898 268.518 123.569 268.518 125.501C268.492 126.812 268.88 128.098 269.628 129.173L269.184 132.066C269.184 132.066 260.026 129.769 263.95 145.192C263.95 145.192 264.932 147.818 266.567 147.818C266.567 147.818 265.587 159.633 267.222 163.898C267.222 163.898 266.567 174.402 267.877 176.705V179.987H259.685V196.238C255.497 197.198 252.813 198.676 252.813 200.333C252.813 203.234 261.017 205.586 271.129 205.586C281.242 205.586 289.446 203.234 289.446 200.333C289.454 199.793 289.177 199.28 288.666 198.799Z" fill="#F2F2F2"/>
<path d="M49.9981 198.799C48.8492 197.568 46.1822 196.516 42.6078 195.817V179.976H42.444V179.812H39.4995V179.976H34.8705C35.2868 177.579 36.6716 169.219 36.3913 165.864C36.3913 165.864 39.9991 156.017 37.0463 147.812C37.0463 147.812 39.9907 148.469 40.3182 145.187C40.5819 142.539 43.6152 136.684 40.1323 133.316C39.2997 132.456 38.0981 131.746 36.3441 131.272L35.4921 128.878C36.1006 127.857 36.4121 126.685 36.3913 125.495C36.3913 123.73 35.7724 122.182 34.8455 121.319C34.6104 121.045 34.321 120.823 33.9956 120.667C33.6702 120.511 33.316 120.425 32.9556 120.415C32.4202 120.424 31.9031 120.611 31.4847 120.946C31.5465 120.992 31.6058 121.042 31.6623 121.094C30.5883 121.898 29.8501 123.569 29.8501 125.501C29.8203 126.808 30.203 128.092 30.9436 129.168L30.4995 132.06C30.4995 132.06 21.3413 129.763 25.2655 145.187C25.2655 145.187 26.2479 147.812 27.8825 147.812C27.8825 147.812 26.9029 159.628 28.5375 163.893C28.5375 163.893 27.8825 174.397 29.1924 176.699V179.982H21.0167V196.232C16.8289 197.192 14.1452 198.671 14.1452 200.327C14.1452 203.228 22.3488 205.581 32.4616 205.581C42.5745 205.581 50.778 203.228 50.778 200.327C50.7863 199.793 50.5088 199.28 49.9981 198.799Z" fill="#F2F2F2"/>
<path d="M0 199.999H300C300 199.999 288.899 230.267 260.462 219.487C232.024 208.707 215.029 221.575 199.421 227.488C183.813 233.401 152.6 237.928 144.624 228.88C136.648 219.832 129.361 215.659 101.273 219.136C73.185 222.613 54.7965 229.921 51.3191 220.18C47.8418 210.439 47.1563 207.307 27.3885 209.044C7.62072 210.781 0 199.999 0 199.999Z" fill="#2F2E41"/>
<path d="M176.154 102.995C172.784 108.741 172.268 115.657 171.133 122.221C169.352 132.394 165.86 142.205 164.101 152.384C163.488 155.944 163.091 159.555 162.117 163.032C160.779 167.81 158.392 172.22 156.153 176.632C152.339 184.172 148.879 192.011 147.455 200.344C147.011 202.941 147.358 206.469 149.922 207.026C150.655 207.19 151.479 207.059 152.104 207.477C152.47 207.719 152.703 208.111 152.997 208.437C154.124 209.684 156.064 209.829 157.673 209.375C159.283 208.922 160.687 207.925 162.18 207.148C168.108 204.086 175.135 204.45 181.784 204.885C183.008 204.963 184.382 205.116 185.156 206.073C185.548 206.561 185.711 207.187 186.003 207.744C187.035 209.762 189.76 210.701 191.809 209.743C192.574 209.384 193.232 208.807 194.029 208.512C196.463 207.602 199.024 209.576 201.63 209.59C205.376 209.606 208.196 205.625 211.94 205.489C214.493 205.397 216.827 207.143 219.38 207.159C221.295 207.159 223.06 206.19 224.725 205.247L236.104 198.799C233.062 194.531 229.336 190.798 225.078 187.752C221.944 185.525 221.098 181.07 219.186 177.729C217.923 175.519 216.647 173.275 216.031 170.805C215.586 169.024 215.498 167.169 215.059 165.385C214.451 162.924 213.2 160.683 212.206 158.352C208.265 149.121 208.399 138.586 204.788 129.218C203.772 126.578 202.465 124.053 201.563 121.372C200.376 117.842 199.912 114.1 198.713 110.576C197.514 107.051 195.383 103.591 191.983 102.073C190.508 101.465 188.937 101.123 187.343 101.063C183.372 100.807 179.839 101.492 176.154 102.995Z" fill="#3F3D56"/>
<path d="M190.962 56.176H175.132V77.3513H190.962V56.176Z" fill="#FBC661"/>
<path d="M190.535 72.6018C189.73 72.4765 188.908 72.6018 188.095 72.6018C186.094 72.5767 185.525 75.0016 183.53 75.1993C181.096 75.4387 177.722 73.8936 175.687 75.2577C175.315 75.5177 174.922 75.745 174.511 75.937C172.846 76.672 170.811 76.3992 169.288 77.3986C167.764 78.3981 167.206 80.372 167.206 82.1983C167.168 82.8518 167.263 83.5062 167.484 84.1221C167.698 84.6427 168.053 85.0937 168.266 85.6143C168.416 85.9818 168.494 86.3743 168.619 86.753C168.959 87.6198 169.427 88.4306 170.006 89.1584L173.531 94.0777C174.455 95.3695 174.086 96.9675 174.236 98.5516C174.347 99.7683 174.63 100.971 174.627 102.19C174.624 103.41 174.291 104.696 173.384 105.531C175.471 105.403 177.551 105.211 179.625 104.955C181.335 104.743 183.039 104.49 184.757 104.367C188.364 104.111 191.989 104.443 195.58 104.774C194.986 104.033 194.717 103.001 194.57 102.062C194.081 98.9498 193.773 95.6897 194.795 92.7108C195.122 91.8201 195.507 90.9515 195.946 90.1105L197.043 87.8972C198.594 84.7679 200.043 81.5607 200.373 78.0807C200.497 77.1872 200.391 76.2767 200.065 75.4359C199.585 74.3585 198.547 73.6012 197.428 73.2337C196.293 72.9091 195.106 72.8052 193.932 72.9275C192.838 72.9804 191.628 72.7688 190.535 72.6018Z" fill="#3F3D56"/>
<path d="M179.14 71.1374C179.392 71.8 179.695 72.5099 179.498 73.1948C179.131 74.5534 177.261 74.829 176.445 75.9788C176.374 76.0567 176.325 76.1522 176.303 76.2555C176.281 76.3588 176.287 76.466 176.32 76.5662C176.359 76.6333 176.41 76.6927 176.47 76.7416C177.994 78.0724 180.197 78.1865 182.217 78.1643C185.162 78.1364 188.306 77.8859 190.64 76.0957C191.292 75.5946 191.906 74.7594 191.573 74.0049C191.315 73.4286 190.635 73.2115 190.071 72.9275C188.809 72.29 187.904 71.0761 187.404 69.7482C186.905 68.4202 186.777 66.9864 186.755 65.5721C186.777 65.3302 186.725 65.0872 186.605 64.8761C186.411 64.5977 186.05 64.556 185.709 64.5337C183.807 64.4063 181.897 64.4828 180.011 64.762C179.478 64.8399 178.463 64.9123 178.088 65.3494C177.713 65.7865 177.93 66.3043 178.002 66.7804C178.227 68.2689 178.609 69.7293 179.14 71.1374Z" fill="#FBB3B2"/>
<path opacity="0.05" d="M179.14 71.1374C179.392 71.8 179.695 72.5099 179.498 73.1948C179.131 74.5534 177.261 74.829 176.445 75.9788C176.374 76.0567 176.325 76.1522 176.303 76.2555C176.281 76.3588 176.287 76.466 176.32 76.5662C176.359 76.6333 176.41 76.6927 176.47 76.7416C177.994 78.0724 180.197 78.1865 182.217 78.1643C185.162 78.1364 188.306 77.8859 190.64 76.0957C191.292 75.5946 191.906 74.7594 191.573 74.0049C191.315 73.4286 190.635 73.2115 190.071 72.9275C188.809 72.29 187.904 71.0761 187.404 69.7482C186.905 68.4202 186.777 66.9864 186.755 65.5721C186.777 65.3302 186.725 65.0872 186.605 64.8761C186.411 64.5977 186.05 64.556 185.709 64.5337C183.807 64.4063 181.897 64.4828 180.011 64.762C179.478 64.8399 178.463 64.9123 178.088 65.3494C177.713 65.7865 177.93 66.3043 178.002 66.7804C178.227 68.2689 178.609 69.7293 179.14 71.1374Z" fill="black"/>
<path d="M182.722 68.4369C186.648 68.4369 189.83 65.2447 189.83 61.307C189.83 57.3693 186.648 54.1771 182.722 54.1771C178.797 54.1771 175.615 57.3693 175.615 61.307C175.615 65.2447 178.797 68.4369 182.722 68.4369Z" fill="#FBB3B2"/>
<path opacity="0.1" d="M189.5 208.523C188.937 208.771 188.399 209.071 187.893 209.42C188.519 209.817 189.233 210.054 189.972 210.113C190.711 210.171 191.452 210.048 192.133 209.754C192.672 209.501 193.154 209.141 193.671 208.849C192.25 208.404 190.854 208.017 189.5 208.523Z" fill="black"/>
<path opacity="0.1" d="M157.657 207.162C156.455 207.78 155.309 208.535 154.068 209.05C155.195 209.723 156.702 209.754 157.998 209.378C159.608 208.908 161.012 207.928 162.502 207.151C165.755 205.48 169.34 204.826 173.009 204.645C167.692 204.467 162.333 204.751 157.657 207.162Z" fill="black"/>
<path opacity="0.1" d="M225.397 187.749C222.264 185.522 221.42 181.067 219.505 177.727C218.242 175.516 216.966 173.272 216.35 170.803C215.906 169.021 215.817 167.167 215.378 165.382C214.773 162.921 213.522 160.68 212.528 158.35C208.587 149.118 208.718 138.583 205.11 129.215C204.092 126.576 202.784 124.051 201.883 121.37C200.698 117.839 200.217 114.098 199.032 110.573C197.847 107.049 195.702 103.588 192.302 102.071C190.851 101.419 189.25 101.166 187.662 101.06C186.323 100.971 184.979 100.994 183.644 101.13C184.96 101.24 186.25 101.56 187.465 102.076C190.857 103.594 192.996 107.054 194.195 110.579C195.394 114.103 195.86 117.845 197.045 121.375C197.947 124.056 199.266 126.581 200.27 129.22C203.878 138.589 203.747 149.123 207.688 158.355C208.685 160.686 209.936 162.927 210.541 165.388C210.98 167.172 211.068 169.026 211.512 170.808C212.129 173.278 213.405 175.522 214.668 177.732C216.58 181.073 217.426 185.511 220.56 187.755C224.819 190.799 228.547 194.53 231.591 198.796L220.213 205.244C219.261 205.816 218.263 206.305 217.229 206.708C218.035 206.983 218.877 207.135 219.727 207.156C221.639 207.156 223.404 206.188 225.069 205.244L236.448 198.796C233.399 194.525 229.665 190.792 225.397 187.749Z" fill="black"/>
<path opacity="0.1" d="M207.411 205.5C204.477 205.606 202.11 208.075 199.418 209.119C200.234 209.396 201.086 209.554 201.946 209.59C204.96 209.59 207.375 207.031 210.153 205.954C209.271 205.646 208.344 205.493 207.411 205.5Z" fill="black"/>
<path d="M182.292 102.107V96.8478H179.747C179.883 96.06 180.339 93.3066 180.247 92.2013C180.247 92.2013 181.432 88.9607 180.463 86.2602C180.593 86.2917 180.728 86.293 180.857 86.2641C180.987 86.2353 181.109 86.1769 181.213 86.0936C181.317 86.0103 181.4 85.9042 181.457 85.7835C181.514 85.6628 181.542 85.5306 181.54 85.3971C181.646 84.3169 183.155 81.6164 180.247 80.8592L179.95 80.024C180.151 79.688 180.254 79.3021 180.247 78.9104C180.247 78.0167 179.764 77.2901 179.17 77.2901C178.576 77.2901 178.093 78.0167 178.093 78.9104C178.083 79.3422 178.209 79.7661 178.454 80.1214L178.307 81.0847C178.307 81.0847 175.293 80.3274 176.586 85.4055C176.586 85.4055 176.908 86.2685 177.447 86.2685C177.447 86.2685 177.125 90.1662 177.663 91.5582C177.663 91.5582 177.447 95.0132 177.877 95.7704V96.8506H175.185V102.199C173.797 102.516 172.923 103.003 172.923 103.549C172.923 104.504 175.624 105.278 178.954 105.278C182.284 105.278 184.984 104.504 184.984 103.549C184.984 102.945 183.916 102.416 182.292 102.107Z" fill="#F9A826"/>
<path opacity="0.1" d="M179.223 78.8575C179.23 79.2489 179.128 79.6346 178.929 79.9711L179.223 80.8063C182.131 81.5608 180.624 84.2613 180.516 85.3415C180.518 85.475 180.49 85.6072 180.433 85.728C180.376 85.8488 180.293 85.955 180.189 86.0385C180.085 86.122 179.963 86.1807 179.834 86.2099C179.704 86.2392 179.569 86.2383 179.439 86.2073C180.408 88.9078 179.223 92.1484 179.223 92.1484C179.315 93.262 178.859 96.0043 178.723 96.795H179.695C179.831 96.0043 180.289 93.2537 180.197 92.1484C180.197 92.1484 181.379 88.9078 180.411 86.2073C180.54 86.2383 180.675 86.2392 180.805 86.2099C180.935 86.1807 181.056 86.122 181.16 86.0385C181.264 85.955 181.347 85.8488 181.404 85.728C181.461 85.6072 181.489 85.475 181.488 85.3415C181.596 84.2613 183.103 81.5608 180.197 80.8063L179.9 79.9711C180.101 79.6349 180.203 79.2492 180.197 78.8575C180.197 77.9638 179.714 77.2372 179.12 77.2372C178.943 77.2399 178.773 77.3017 178.635 77.4126C178.833 77.595 178.988 77.8191 179.09 78.0689C179.192 78.3187 179.237 78.588 179.223 78.8575Z" fill="black"/>
<path opacity="0.1" d="M182.24 102.051V96.795H181.271V102.051C182.892 102.363 183.963 102.886 183.963 103.491C183.963 104.401 181.521 105.144 178.413 105.214H178.898C182.228 105.214 184.929 104.44 184.929 103.485C184.932 102.892 183.858 102.363 182.24 102.051Z" fill="black"/>
<path d="M185.117 51.2957C182.897 50.7388 180.511 50.3129 178.396 51.1676C177.425 51.599 176.532 52.1889 175.754 52.9132C175.035 53.5396 174.336 54.2328 173.953 55.1098C173.495 56.1677 173.548 57.3648 173.52 58.5174C173.492 59.67 173.339 60.9061 172.576 61.7664C172.279 62.1004 171.894 62.3733 171.702 62.7797C171.425 63.3366 171.608 64.0242 171.88 64.5894C172.152 65.1545 172.515 65.6891 172.64 66.3071C172.809 67.1618 172.479 68.0471 172.01 68.7821C171.541 69.5171 170.931 70.1518 170.445 70.8785C169.959 71.6051 169.582 72.6463 170.023 73.4453C170.301 73.9604 170.872 74.2806 171.161 74.7872C171.3 75.0295 171.369 75.3106 171.516 75.5473C171.924 76.196 172.782 76.3547 173.539 76.4326C174.752 76.5607 176.104 76.5996 177.044 75.8201C177.691 75.2856 178.019 74.4532 178.177 73.6263C178.335 72.7994 178.34 71.9559 178.488 71.1207C178.593 70.5249 178.765 69.9291 178.715 69.3278C178.646 68.526 178.182 67.8216 177.819 67.1006C177.271 66.0994 177.015 64.9639 177.08 63.8238C177.189 62.6934 177.783 61.5771 178.776 61.0397C179.475 60.6528 180.339 60.5553 180.932 60.0208C181.873 59.1856 181.732 57.7045 181.901 56.4544C181.924 56.1759 182.014 55.9072 182.165 55.6721C182.459 55.2712 182.997 55.1627 183.497 55.1153C184.66 55.0151 185.895 55.1404 186.869 55.7891C187.771 56.4321 188.396 57.3956 188.617 58.484C188.831 59.5661 188.811 60.6815 188.559 61.7552C188.598 61.2847 189.319 61.1567 189.652 61.4768C189.985 61.797 190.002 62.3482 189.907 62.8104C189.519 64.7592 187.759 66.1512 187.168 68.0443C186.934 68.8245 186.904 69.6521 187.082 70.4471C187.26 71.2421 187.64 71.9776 188.184 72.5823C188.33 72.7617 188.522 72.8983 188.739 72.9776C188.961 73.0209 189.188 73.0322 189.414 73.011C190.299 73.011 191.059 73.6207 191.734 74.1998C192.408 74.7789 193.121 75.3997 194.02 75.4693C194.92 75.5389 195.888 74.726 195.622 73.8769C195.525 73.6233 195.37 73.3962 195.169 73.2143C194.614 72.6408 193.887 72.1897 193.504 71.4882C192.835 70.3105 193.243 68.8378 193.665 67.5488C194.087 66.2598 194.498 64.7842 193.812 63.6122C193.49 63.0554 192.952 62.6378 192.702 62.0476C192.565 61.7059 192.492 61.3414 192.488 60.9729C192.43 59.6254 192.766 58.2529 192.488 56.9389C192.323 56.3052 192.034 55.7109 191.637 55.1908C191.24 54.6707 190.743 54.2353 190.177 53.9098C189.601 53.5587 188.976 53.2968 188.323 53.1331C188.07 53.0691 187.687 53.083 187.51 52.8937C187.332 52.7044 187.271 52.3675 187.046 52.1559C186.502 51.6882 185.781 51.4599 185.117 51.2957Z" fill="#FBC661"/>
<path opacity="0.05" d="M189.652 59.979C189.532 59.8738 189.381 59.8101 189.221 59.797C189.062 59.784 188.903 59.8224 188.767 59.9066C188.76 60.498 188.696 61.0872 188.575 61.6661C188.698 61.2736 189.341 61.1845 189.652 61.4907C189.714 61.5526 189.768 61.6229 189.81 61.6995C189.85 61.5724 189.882 61.4432 189.907 61.3126C190.002 60.8504 189.988 60.3103 189.652 59.979Z" fill="black"/>
<path opacity="0.05" d="M192.461 59.4751C192.463 59.5859 192.472 59.6965 192.486 59.8064C192.567 59.0454 192.584 58.279 192.538 57.5151C192.476 58.1665 192.451 58.8208 192.461 59.4751Z" fill="black"/>
<path opacity="0.05" d="M188.575 61.6661C188.567 61.6962 188.562 61.727 188.559 61.758L188.575 61.6661Z" fill="black"/>
<path opacity="0.05" d="M193.202 69.2415C193.309 68.6745 193.457 68.1162 193.646 67.5711C193.982 66.5521 194.303 65.4134 194.084 64.4001C193.981 64.9674 193.835 65.5259 193.646 66.0705C193.31 67.0783 192.982 68.2225 193.202 69.2415Z" fill="black"/>
<path opacity="0.05" d="M188.617 58.4868C188.666 58.7045 188.703 58.9248 188.728 59.1466C188.808 58.4215 188.77 57.6882 188.617 56.975C188.397 55.8855 187.772 54.9208 186.869 54.2773C185.895 53.6314 184.648 53.5034 183.497 53.6036C183.003 53.6481 182.459 53.7567 182.165 54.1604C182.014 54.3945 181.924 54.6623 181.901 54.9399C181.732 56.1927 181.873 57.6655 180.932 58.5063C180.339 59.0436 179.475 59.141 178.776 59.528C177.783 60.0848 177.189 61.1984 177.08 62.312C177.045 62.7141 177.06 63.1191 177.125 63.5175C177.201 63.0046 177.389 62.515 177.677 62.0845C177.965 61.6539 178.346 61.2932 178.79 61.0286C179.489 60.6416 180.352 60.5442 180.946 60.0096C181.887 59.1744 181.746 57.6933 181.915 56.4433C181.937 56.1648 182.028 55.8961 182.179 55.661C182.473 55.2601 183.011 55.1515 183.511 55.1042C184.673 55.004 185.908 55.1292 186.883 55.7779C187.783 56.4268 188.403 57.3954 188.617 58.4868Z" fill="black"/>
<path opacity="0.05" d="M195.341 73.4231C195.175 73.6083 194.97 73.7543 194.74 73.8506C194.511 73.9469 194.263 73.991 194.015 73.9799C193.129 73.9103 192.4 73.2894 191.728 72.7103C191.056 72.1313 190.293 71.5327 189.408 71.5216C189.183 71.5413 188.956 71.5301 188.734 71.4882C188.517 71.4077 188.326 71.2714 188.179 71.0928C187.563 70.4163 187.16 69.5729 187.019 68.6679C186.905 69.3694 186.95 70.0875 187.151 70.769C187.352 71.4505 187.703 72.0778 188.179 72.6046C188.325 72.784 188.516 72.9206 188.734 72.9999C188.956 73.0432 189.183 73.0544 189.408 73.0333C190.293 73.0333 191.054 73.643 191.728 74.2221C192.402 74.8011 193.116 75.422 194.015 75.4916C194.914 75.5612 195.883 74.7482 195.616 73.8991C195.557 73.7235 195.464 73.5616 195.341 73.4231Z" fill="black"/>
<path opacity="0.05" d="M172.574 66.051C172.694 65.6435 172.717 65.2133 172.64 64.7954C172.515 64.1801 172.149 63.6456 171.88 63.0804C171.824 62.9653 171.774 62.8484 171.73 62.7296C171.73 62.7463 171.71 62.763 171.702 62.7825C171.425 63.3393 171.608 64.027 171.88 64.5921C172.144 65.0617 172.376 65.5491 172.574 66.051Z" fill="black"/>
<path opacity="0.05" d="M178.635 68.874C178.587 69.1217 178.532 69.3667 178.488 69.6145C178.34 70.4497 178.332 71.2849 178.177 72.1201C178.021 72.9553 177.691 73.7905 177.044 74.3139C176.104 75.0907 174.752 75.0545 173.539 74.9264C172.782 74.8485 171.924 74.687 171.516 74.0411C171.369 73.8017 171.3 73.5233 171.161 73.2783C170.883 72.766 170.309 72.4431 170.023 71.9364C170.004 71.903 169.987 71.864 169.97 71.8278C169.864 72.0867 169.814 72.3653 169.823 72.645C169.833 72.9248 169.901 73.1994 170.023 73.4509C170.301 73.9659 170.872 74.2861 171.161 74.7928C171.3 75.035 171.369 75.3162 171.516 75.5528C171.924 76.2015 172.782 76.3602 173.539 76.4382C174.752 76.5662 176.104 76.6052 177.044 75.8257C177.691 75.2911 178.019 74.4587 178.177 73.6319C178.335 72.805 178.34 71.9614 178.488 71.1262C178.593 70.5305 178.765 69.9347 178.715 69.3333C178.701 69.1782 178.674 69.0246 178.635 68.874Z" fill="black"/>
<path d="M168.294 79.4532C168.294 79.4532 166.907 80.2105 166.032 87.2318C165.158 94.2531 164.739 101.709 164.739 101.709C164.739 101.709 164.739 107.976 170.661 108.19C170.661 108.19 173.031 108.624 173.786 109.164C174.541 109.704 186.386 106.03 180.785 105.267C175.185 104.504 173.14 104.832 173.14 104.832C173.14 104.832 170.123 102.884 170.123 101.052C170.123 99.2198 173.14 88.3231 173.14 88.3231L168.294 79.4532Z" fill="#FBB3B2"/>
<path d="M168.272 84.9601C168.422 85.3276 168.5 85.7201 168.624 86.0987C168.964 86.9659 169.432 87.7768 170.012 88.5041C170.717 89.4897 171.849 91.8115 172.551 92.7971C172.972 91.3507 173.588 89.969 174.383 88.6907L168.3 78.8074C168.3 78.8074 167.822 79.0635 167.253 80.6727C167.223 80.965 167.206 81.2573 167.204 81.5441C167.165 82.1975 167.26 82.852 167.481 83.4678C167.703 83.9884 168.058 84.4395 168.272 84.9601Z" fill="#3F3D56"/>
<path d="M189.13 64.9374C189.13 64.8709 189.11 64.806 189.071 64.7517C189.033 64.6974 188.979 64.6563 188.917 64.6339V64.2692C188.979 64.2472 189.034 64.2061 189.072 64.1517C189.11 64.0974 189.131 64.0323 189.13 63.9657C189.131 63.9057 189.116 63.8466 189.085 63.795C189.055 63.7433 189.01 63.7012 188.957 63.6731C188.905 63.6451 188.845 63.6323 188.785 63.6361C188.725 63.6399 188.668 63.6602 188.619 63.6947C188.57 63.7292 188.532 63.7767 188.508 63.8318C188.484 63.8869 188.476 63.9475 188.484 64.0069C188.493 64.0664 188.517 64.1223 188.555 64.1686C188.594 64.2149 188.644 64.2497 188.7 64.2692V64.6339C188.637 64.656 188.583 64.6972 188.544 64.7518C188.505 64.8065 188.485 64.8718 188.485 64.9388C188.485 65.0057 188.505 65.0711 188.544 65.1257C188.583 65.1803 188.637 65.2215 188.7 65.2436V65.6055C188.637 65.6276 188.583 65.6688 188.544 65.7235C188.505 65.7781 188.485 65.8434 188.485 65.9104C188.485 65.9774 188.505 66.0427 188.544 66.0973C188.583 66.1519 188.637 66.1931 188.7 66.2152V66.5799C188.629 66.6055 188.569 66.6556 188.53 66.7213C188.492 66.787 188.478 66.8642 188.491 66.9392C188.504 67.0142 188.543 67.0822 188.601 67.1312C188.659 67.1802 188.733 67.207 188.809 67.207C188.884 67.207 188.958 67.1802 189.016 67.1312C189.074 67.0822 189.113 67.0142 189.126 66.9392C189.139 66.8642 189.125 66.787 189.087 66.7213C189.048 66.6556 188.988 66.6055 188.917 66.5799V66.2152C188.98 66.1931 189.034 66.1519 189.073 66.0973C189.112 66.0427 189.132 65.9774 189.132 65.9104C189.132 65.8434 189.112 65.7781 189.073 65.7235C189.034 65.6688 188.98 65.6276 188.917 65.6055V65.2436C188.98 65.2211 189.034 65.1795 189.072 65.1246C189.111 65.0698 189.131 65.0043 189.13 64.9374Z" fill="#EEEFF3"/>
<path d="M199.524 75.1324C201.179 77.9113 202.378 80.939 203.076 84.0998C204.153 89.1778 204.907 90.2581 204.907 90.2581C204.907 90.2581 209.648 102.357 204.369 103.115C199.091 103.872 189.833 103.115 189.833 103.115C189.833 103.115 171.094 106.355 177.663 102.034C184.232 97.7137 189.408 98.251 189.408 98.251C189.408 98.251 197.27 98.0366 198.347 97.2794L200.392 97.065L195.547 83.2367L199.524 75.1324Z" fill="#FBB3B2"/>
<path d="M194.517 83.0725L196.776 88.3621C198.302 85.2747 200.059 81.4912 200.384 78.0612C200.414 77.4263 200.401 76.79 200.342 76.157C200.094 75.6405 199.768 75.1662 199.374 74.751L194.517 83.0725Z" fill="#3F3D56"/>
<path d="M120.713 144.004C120.713 144.004 115.265 155.379 119.048 159.394C122.831 163.408 125.387 143.558 125.387 143.558L120.713 144.004Z" fill="#A0616A"/>
<path d="M94.3626 197.201L88.2572 204.896C88.2572 204.896 75.9158 209.804 87.2553 210.464C87.2553 210.464 92.8057 210.018 93.9158 209.236C95.0259 208.454 95.6947 206.895 97.9177 207.788C100.141 208.682 102.699 206.895 102.699 206.895C102.699 206.895 103.032 198.195 100.809 197.192C98.5865 196.19 94.3626 197.201 94.3626 197.201Z" fill="#36344A"/>
<path d="M117.155 199.988L115.71 206.346C115.71 206.346 112.485 213.93 117.155 212.814C121.826 211.697 124.16 210.472 124.604 208.242C125.048 206.012 126.269 203.557 126.269 203.557C126.269 203.557 124.934 200.099 123.713 199.988C122.492 199.876 117.155 199.988 117.155 199.988Z" fill="#36344A"/>
<path d="M87.358 123.14C87.358 123.14 83.3562 150.702 86.1369 165.736C88.9177 180.769 92.2424 196.185 92.2424 196.185C92.2424 196.185 88.3571 205.093 101.678 199.197C101.678 199.197 100.79 177.111 98.1203 168.525C95.4505 159.939 99.4912 148.347 100.601 148.013C100.601 148.013 105.042 170.432 109.385 177.802C113.728 185.171 116.142 202.332 116.142 202.332C116.142 202.332 125.484 203.557 125.373 201.104C125.262 198.651 123.594 177.905 118.157 170.544C118.157 170.544 113.487 158.275 116.492 145.56C119.498 132.845 113.267 128.494 113.267 128.494L103.377 116.784L93.4829 114.557L87.358 123.14Z" fill="#3F3D56"/>
<path d="M116.697 75.6559C116.593 76.0189 116.425 76.3602 116.201 76.6637C115.969 76.9134 115.694 77.1199 115.39 77.2734C114.413 77.8264 113.38 78.2716 112.307 78.6014C112.03 79.1582 112.479 79.7846 112.907 80.2356L114.161 81.5663C114.894 82.3403 115.626 83.1143 116.417 83.827C117.947 85.2036 119.682 86.331 121.56 87.1678C122.542 87.6049 123.81 87.9167 124.599 87.1845C125.387 86.4523 125.19 85.1661 125.667 84.2112C125.727 84.1543 125.774 84.0841 125.802 84.0063C125.831 83.9284 125.841 83.8449 125.832 83.7624C125.823 83.6798 125.796 83.6005 125.751 83.5305C125.706 83.4606 125.646 83.402 125.575 83.3593C124.932 82.7217 124.801 81.7139 124.937 80.8174C125.073 79.921 125.437 79.0746 125.645 78.1921C125.853 77.3096 125.892 76.324 125.423 75.5473C125.147 75.1341 124.79 74.7817 124.374 74.5116C123.463 73.8631 122.447 73.3771 121.371 73.0751C120.816 72.922 120.261 72.8189 119.706 72.6547C119.362 72.5489 118.429 71.903 118.135 71.9559C117.53 72.0561 116.911 75.0072 116.697 75.6559Z" fill="#A0616A"/>
<path opacity="0.1" d="M116.697 75.6559C116.593 76.0189 116.425 76.3602 116.201 76.6637C115.969 76.9134 115.694 77.1199 115.39 77.2734C114.413 77.8264 113.38 78.2716 112.307 78.6014C112.03 79.1582 112.479 79.7846 112.907 80.2356L114.161 81.5663C114.894 82.3403 115.626 83.1143 116.417 83.827C117.947 85.2036 119.682 86.331 121.56 87.1678C122.542 87.6049 123.81 87.9167 124.599 87.1845C125.387 86.4523 125.19 85.1661 125.667 84.2112C125.727 84.1543 125.774 84.0841 125.802 84.0063C125.831 83.9284 125.841 83.8449 125.832 83.7624C125.823 83.6798 125.796 83.6005 125.751 83.5305C125.706 83.4606 125.646 83.402 125.575 83.3593C124.932 82.7217 124.801 81.7139 124.937 80.8174C125.073 79.921 125.437 79.0746 125.645 78.1921C125.853 77.3096 125.892 76.324 125.423 75.5473C125.147 75.1341 124.79 74.7817 124.374 74.5116C123.463 73.8631 122.447 73.3771 121.371 73.0751C120.816 72.922 120.261 72.8189 119.706 72.6547C119.362 72.5489 118.429 71.903 118.135 71.9559C117.53 72.0561 116.911 75.0072 116.697 75.6559Z" fill="black"/>
<path d="M115.451 77.6576C115.438 77.4376 115.413 77.1815 115.227 77.0618C115.118 77.002 114.995 76.9758 114.871 76.9866C112.246 76.9866 110.117 79.0579 108.466 81.1014C104.986 85.4027 102.241 90.2581 99.8631 95.261C98.4006 98.3429 97.0435 101.809 97.9843 105.091C98.2817 106.065 98.7243 106.987 99.2969 107.828C100.086 109.029 101.043 110.11 102.139 111.038C102.55 111.435 103.06 111.714 103.615 111.845C104.448 111.979 105.239 111.52 105.949 111.077C107.376 110.186 108.796 109.286 110.209 108.377C112.504 106.901 114.799 105.4 116.822 103.568C118.846 101.737 120.602 99.5484 121.599 97.0038C122.023 95.9236 122.306 94.7765 122.784 93.7298C123.511 92.1178 124.685 90.6952 125.101 88.9746C125.298 88.1533 125.315 87.3042 125.525 86.4829C125.692 85.8287 125.981 85.2106 126.119 84.5508C126.258 83.891 126.225 83.1588 125.806 82.6187C125.101 81.7223 123.73 81.8559 122.614 82.087C121.16 82.3876 118.568 83.1282 117.183 82.2457C115.998 81.4856 115.535 78.9494 115.451 77.6576Z" fill="#EEEFF3"/>
<path d="M114.71 82.989L113.154 83.1003L112.043 82.6521L112.934 79.9767C112.934 79.9767 116.07 80.333 116.392 81.3241C116.392 81.3241 116.625 82.0062 117.003 82.1064C117.38 82.2067 118.945 81.9839 119.27 82.7635C119.595 83.543 119.492 87.7747 117.38 87.2179L116.381 84.5397L115.934 83.8715C115.934 83.8715 114.599 83.6571 114.71 82.989Z" fill="#3F3D56"/>
<path d="M101.922 107.861C101.922 107.861 105.369 85.1076 116.154 76.9588C116.154 76.9588 116.265 74.8401 114.375 75.0629C112.485 75.2856 104.592 73.7238 104.592 73.7238L97.1434 88.2257C97.1434 88.2257 95.4783 101.72 94.2516 103.95C93.025 106.18 85.3571 123.917 85.3571 123.917C85.3571 123.917 89.6947 138.527 96.1415 118.906C96.1415 118.906 91.1462 134.855 105.258 136.417C119.37 137.979 117.71 135.524 117.71 135.524L119.376 123.925V115.222L122.489 109.098L135.164 92.9252C135.164 92.9252 126.561 80.9761 124.918 82.0424C124.92 82.0313 114.264 98.9387 101.922 107.861Z" fill="#3F3D56"/>
<path d="M106.26 74.623L104.595 73.7293C104.595 73.7293 99.4801 75.6252 97.7012 82.989C97.7012 82.989 93.3663 86.1099 90.4857 88.454C90.4857 88.454 86.6004 81.2155 86.6004 78.7489C86.6004 78.7489 80.1508 83.1003 78.7049 81.9839C78.7049 81.9839 82.5902 99.9409 89.9362 98.6018C97.2821 97.2627 100.046 92.914 100.046 92.914L106.26 74.623Z" fill="#3F3D56"/>
<path d="M130.943 93.585L135.167 92.914C135.167 92.914 137.836 96.4831 133.055 101.725L130.163 119.46C130.163 119.46 130.496 125.37 129.497 129.833C128.498 134.296 126.938 148.013 126.938 148.013C126.938 148.013 121.826 146.117 119.045 146.451L123.269 105.306L130.943 93.585Z" fill="#3F3D56"/>
<path d="M86.3589 79.9711C86.3589 79.9711 84.0222 65.9173 80.0204 71.1596C76.0185 76.402 80.4644 83.6516 80.4644 83.6516L86.3589 79.9711Z" fill="#A0616A"/>
<path d="M125.217 80.7033C130.191 80.7033 134.223 76.6586 134.223 71.6691C134.223 66.6797 130.191 62.635 125.217 62.635C120.244 62.635 116.212 66.6797 116.212 71.6691C116.212 76.6586 120.244 80.7033 125.217 80.7033Z" fill="#A0616A"/>
<path d="M132.416 61.9223C132.211 61.6651 132.025 61.3924 131.861 61.1065C131.32 60.3103 130.474 59.7897 129.641 59.322C128.117 58.4868 126.38 57.7017 124.685 58.1081C123.511 58.3865 122.514 59.2217 121.332 59.4612C120.15 59.7006 118.746 59.4361 117.949 60.327C117.153 61.2179 117.505 62.621 116.82 63.5426C116.439 64.052 115.735 64.5197 115.926 65.1267C116.006 65.3828 116.242 65.5638 116.351 65.8115C116.542 66.2458 116.306 66.7442 116.295 67.2203C116.281 67.9246 116.761 68.5287 117.1 69.1468C117.438 69.7648 117.622 70.6279 117.1 71.1123C118.866 69.6953 120.801 68.5047 122.861 67.5683C122.858 67.854 122.784 68.1345 122.645 68.384C123.76 68.2191 124.864 67.9839 125.95 67.6796L125.378 68.7793L127.832 67.7047C128.495 67.4123 129.327 67.1479 129.894 67.5933C130.154 67.8429 130.338 68.163 130.421 68.5148C130.744 69.5204 130.936 70.5639 130.993 71.619C131.054 72.8106 130.993 74.1246 131.761 75.035C131.979 75.2656 132.242 75.4489 132.533 75.5735C132.824 75.6981 133.138 75.7613 133.455 75.7592C133.772 75.7571 134.084 75.6898 134.374 75.5614C134.664 75.433 134.924 75.2462 135.139 75.0127C135.355 74.1775 135.031 73.3145 135.014 72.457C134.989 71.207 135.616 70.0321 135.73 68.7877C135.877 67.2147 134.95 66.282 134.528 64.89C134.364 64.3555 134.464 63.7235 134.151 63.2196C133.746 62.596 132.919 62.4568 132.416 61.9223Z" fill="#3F3D56"/>
<path d="M80.0786 87.4016L83.2895 81.9923L80.6697 80.4277C81.2914 79.6982 83.445 77.1481 84.0194 75.9565C84.0194 75.9565 87.2165 73.3507 87.8686 69.9764C87.8686 69.9764 88.7345 70.7949 89.506 69.7481C90.2775 68.7013 93.4746 66.8528 90.9463 64.2887L91.1489 63.2502C91.5607 63.028 91.9021 62.6942 92.1341 62.287C92.6892 61.3654 92.6253 60.3381 92.0148 59.9595C91.4043 59.5809 90.4635 60.043 89.9167 60.9645C89.6442 61.4019 89.516 61.9143 89.5504 62.4289L88.8205 63.3198C88.8205 63.3198 86.1785 60.6889 84.408 66.7052C84.408 66.7052 84.2137 67.7938 84.7687 68.1251C84.7687 68.1251 82.0601 71.9253 81.7576 73.6931C81.7576 73.6931 79.4265 77.1175 79.407 78.1475L78.7465 79.2612L75.9713 77.6074L72.7077 83.1115C71.0953 82.5908 69.8908 82.5547 69.5578 83.1115C68.975 84.0942 71.2784 86.5497 74.7058 88.596C78.1332 90.6422 81.3802 91.5025 81.963 90.5225C82.3376 89.9184 81.5578 88.7157 80.0786 87.4016Z" fill="#F9A826"/>
<path opacity="0.1" d="M91.1129 61.5965C90.881 62.0037 90.5409 62.3382 90.1304 62.5626L89.9251 63.5982C92.4561 66.1623 89.2562 68.0137 88.4847 69.0605C88.4053 69.199 88.2953 69.3173 88.1632 69.4066C88.0311 69.4958 87.8803 69.5535 87.7226 69.5753C87.5648 69.597 87.4041 69.5823 87.2529 69.5321C87.1017 69.482 86.9639 69.3978 86.8501 69.286C86.198 72.6602 83.0009 75.2661 83.0009 75.2661C82.4209 76.4604 80.2729 79.0106 79.6513 79.7372L80.6476 80.333C81.2692 79.6064 83.4228 77.0534 83.9972 75.8618C83.9972 75.8618 87.1943 73.256 87.8464 69.8818C87.8464 69.8818 88.7123 70.7003 89.4838 69.6535C90.2553 68.6067 93.4524 66.7581 90.9241 64.194L91.1267 63.1556C91.5375 62.9329 91.8779 62.5992 92.1092 62.1923C92.6642 61.2736 92.6031 60.2435 91.9926 59.8649C91.8094 59.7597 91.5969 59.7176 91.3876 59.7451C91.4811 60.0549 91.505 60.3816 91.4575 60.7018C91.41 61.0219 91.2923 61.3275 91.1129 61.5965Z" fill="black"/>
<path opacity="0.1" d="M80.0648 87.3125L83.2757 81.9032L82.2849 81.3074L79.074 86.7168C80.5532 88.0336 81.3302 89.2224 80.9639 89.8516C80.4089 90.7842 77.4422 90.0492 74.2063 88.2174C74.37 88.3176 74.5338 88.4206 74.703 88.5208C78.1277 90.5671 81.3774 91.4301 81.9602 90.4474C82.3127 89.8293 81.5356 88.6266 80.0648 87.3125Z" fill="black"/>
</g>
<defs>
<clipPath id="clip0_301_789">
<rect width="300" height="234" fill="white"/>
</clipPath>
</defs>
</svg>
