<svg width="96" height="73" viewBox="0 0 96 73" fill="none" xmlns="http://www.w3.org/2000/svg">
<g clip-path="url(#clip0_239_286)">
<path d="M65.1552 72.7669C65.0617 72.846 64.9651 72.9233 64.8675 72.9995H53.0207C52.9527 72.9233 52.8846 72.846 52.8177 72.7669C52.2707 72.1162 51.7891 71.4141 51.3799 70.6704C50.4073 68.9327 50.0722 66.6544 50.0722 64.3342C50.0722 64.1924 50.0732 64.0507 50.0761 63.909C50.087 63.2581 50.1235 62.6062 50.1777 61.965C50.1875 61.8536 50.1974 61.7432 50.2082 61.6327C50.2959 60.713 50.4191 59.8178 50.559 58.9811C50.5768 58.8746 50.5945 58.7691 50.6132 58.6645C50.8984 57.0029 51.2808 55.3591 51.7583 53.7415C51.7583 53.7415 51.7741 53.7454 51.8046 53.7532C51.8923 53.7776 52.1022 53.8353 52.4107 53.9262C53.2601 54.1764 54.8555 54.6807 56.6953 55.4304C56.7959 55.4704 56.8973 55.5125 56.9998 55.5555C58.5563 56.1919 60.0629 56.9423 61.5072 57.8005C61.5969 57.8542 61.6855 57.909 61.7742 57.9637V57.9715L61.5801 64.2042L63.3145 59.0154C63.6682 59.2822 64.0062 59.5588 64.3285 59.8451C64.4172 59.9233 64.5059 60.0035 64.5916 60.0865C65.3237 60.752 65.9485 61.525 66.4442 62.3785C69.0388 67.018 67.95 70.429 65.1552 72.7669Z" fill="#F2F2F2"/>
<path d="M63.4849 72.9995H63.1696C63.1676 72.9223 63.1647 72.8451 63.1597 72.7669C63.0326 70.4222 62.0186 67.8331 60.638 65.334C60.5887 65.2431 60.5385 65.1503 60.4853 65.0594C59.8152 63.8709 59.0682 62.7078 58.2966 61.6024C58.2375 61.5164 58.1764 61.4294 58.1153 61.3434C57.0885 59.8901 56.0282 58.5452 55.0703 57.3968C55.0033 57.3147 54.9343 57.2346 54.8663 57.1554C53.4463 55.4665 52.2746 54.236 51.8046 53.7532C51.7346 53.6819 51.6804 53.6271 51.643 53.589C51.6085 53.5519 51.5878 53.5323 51.5839 53.5284L51.6942 53.4189L51.6952 53.416L51.8076 53.3065C51.8115 53.3114 51.8795 53.3759 51.9997 53.5001C52.1012 53.6027 52.2401 53.7464 52.4107 53.9262C53.0059 54.5517 53.9903 55.6161 55.1294 56.9658C55.1955 57.044 55.2635 57.1251 55.3314 57.2062C56.109 58.1377 56.9515 59.1932 57.7862 60.3279C57.996 60.6133 58.1997 60.8964 58.3972 61.1773C58.4592 61.2633 58.5203 61.3493 58.5794 61.4353C59.4141 62.6296 60.143 63.7784 60.7661 64.8815L60.9218 65.1581C62.5103 68.0315 63.3657 70.5766 63.4761 72.7669C63.48 72.8451 63.483 72.9223 63.4849 72.9995Z" fill="white"/>
<path d="M56.8688 55.2017C56.8126 55.2789 56.7555 55.3551 56.6954 55.4304C56.2434 56.008 55.717 56.5242 55.1295 56.9658C55.0437 57.0284 54.956 57.0929 54.8664 57.1554C54.6218 57.3247 54.3685 57.4813 54.1076 57.6246C53.0326 58.2183 51.8403 58.5732 50.6132 58.6645C50.5738 58.6684 50.5334 58.6713 50.494 58.6733C50.4763 58.7778 50.4595 58.8824 50.4408 58.9889C50.4802 58.987 50.5196 58.985 50.5591 58.9811C51.8588 58.8972 53.1234 58.5276 54.2613 57.8992C54.5398 57.746 54.8098 57.5783 55.0704 57.3968C55.159 57.3352 55.2457 57.2707 55.3315 57.2062C55.9599 56.7328 56.5211 56.1776 56.9998 55.5555C57.057 55.4802 57.1132 55.404 57.1683 55.3277C57.0659 55.2847 56.9664 55.2427 56.8688 55.2017Z" fill="white"/>
<path d="M61.6146 57.5796C61.5801 57.6539 61.5437 57.7272 61.5072 57.8005C60.8045 59.1891 59.7282 60.3579 58.3972 61.1773C58.3045 61.2349 58.2109 61.2906 58.1153 61.3434C58.0867 61.36 58.0562 61.3776 58.0277 61.3933C56.8378 62.0481 55.5074 62.4115 54.1472 62.4532C52.7871 62.4948 51.4366 62.2135 50.2082 61.6327C50.1786 61.619 50.1501 61.6054 50.1215 61.5917C50.1107 61.7031 50.1008 61.8145 50.093 61.9269C50.1205 61.9396 50.1491 61.9533 50.1777 61.965C51.4413 62.5428 52.8244 62.8169 54.2148 62.7653C55.6053 62.7137 56.9639 62.3377 58.1804 61.6679C58.2198 61.6464 58.2582 61.6249 58.2967 61.6024C58.3922 61.5477 58.4868 61.492 58.5795 61.4353C59.9435 60.5919 61.0485 59.394 61.7742 57.9715C61.8127 57.8982 61.8491 57.8239 61.8846 57.7487C61.795 57.692 61.7053 57.6353 61.6146 57.5796Z" fill="white"/>
<path d="M64.3807 59.6233C64.364 59.6975 64.3472 59.7718 64.3285 59.8451C63.8216 61.9083 62.5497 63.7065 60.7662 64.8815C60.6745 64.9431 60.5799 65.0017 60.4853 65.0594C60.3838 65.12 60.2823 65.1806 60.1778 65.2372C58.5727 66.1184 56.7247 66.465 54.9061 66.2258C53.0874 65.9867 51.3943 65.1745 50.0761 63.909C50.0535 63.8885 50.0318 63.867 50.0101 63.8455C50.0101 63.9911 50.0092 64.1348 50.0111 64.2794C50.0308 64.298 50.0515 64.3166 50.0722 64.3342C51.4447 65.5674 53.1717 66.344 55.0114 66.5552C56.8511 66.7664 58.7113 66.4016 60.3316 65.5119C60.436 65.4552 60.5385 65.3966 60.638 65.334C60.7346 65.2773 60.8282 65.2187 60.9218 65.1581C62.7307 63.9711 64.0368 62.1662 64.5916 60.0865C64.6103 60.0162 64.629 59.9458 64.6458 59.8744C64.5601 59.7884 64.4704 59.7073 64.3807 59.6233Z" fill="white"/>
<path d="M56.1187 43.7078H0V1.94887H56.1187V43.7078Z" fill="white"/>
<path d="M13.5986 10.6643C14.8323 10.6643 15.8324 9.67235 15.8324 8.44875C15.8324 7.22515 14.8323 6.23323 13.5986 6.23323C12.3649 6.23323 11.3648 7.22515 11.3648 8.44875C11.3648 9.67235 12.3649 10.6643 13.5986 10.6643Z" fill="#E6E6E6"/>
<path d="M18.7577 6.97174C18.6591 6.97192 18.5645 7.0109 18.4949 7.08013C18.4252 7.14936 18.386 7.24318 18.386 7.341C18.386 7.43881 18.4252 7.53263 18.4949 7.60186C18.5645 7.67109 18.6591 7.71007 18.7577 7.71025H45.9401C46.0387 7.71007 46.1332 7.67109 46.2029 7.60186C46.2726 7.53263 46.3117 7.43881 46.3117 7.341C46.3117 7.24318 46.2726 7.14936 46.2029 7.08013C46.1332 7.0109 46.0387 6.97192 45.9401 6.97174H18.7577Z" fill="#E6E6E6"/>
<path d="M18.7577 9.18726C18.6589 9.18705 18.5642 9.22575 18.4942 9.29486C18.4242 9.36396 18.3848 9.4578 18.3846 9.55573C18.3844 9.65366 18.4234 9.74767 18.4931 9.81706C18.5627 9.88646 18.6574 9.92556 18.7561 9.92576H35.9411C35.99 9.92585 36.0385 9.91636 36.0838 9.89785C36.129 9.87933 36.1701 9.85214 36.2048 9.81785C36.2394 9.78355 36.2669 9.74281 36.2856 9.69797C36.3044 9.65313 36.314 9.60506 36.314 9.55651C36.314 9.50796 36.3044 9.45989 36.2856 9.41505C36.2669 9.37021 36.2394 9.32947 36.2048 9.29517C36.1701 9.26088 36.129 9.23369 36.0838 9.21517C36.0385 9.19666 35.99 9.18717 35.9411 9.18726H18.7577Z" fill="#E6E6E6"/>
<path d="M56.1187 43.7078H0V1.94887H56.1187V43.7078ZM0.628108 43.0849H55.4906V2.57184H0.628108V43.0849Z" fill="#E6E6E6"/>
<path d="M3.1366 14.6836V39.5211H52.982V14.6836H3.1366ZM52.7424 20.8336H40.5806V14.9213H52.7424V20.8336ZM28.1791 20.8336V14.9213H40.3409V20.8336H28.1791ZM40.3409 21.0713V26.9835H28.1791V21.0713H40.3409ZM27.9395 20.8336H15.7777V14.9213H27.9395V20.8336ZM27.9395 21.0713V26.9835H15.7777V21.0713H27.9395ZM15.538 26.9835H3.37624V21.0713H15.538V26.9835ZM15.538 27.2212V33.1335H3.37624V27.2212H15.538ZM15.7777 27.2212H27.9395V33.1335H15.7777V27.2212ZM27.9395 33.3712V39.2835H15.7777V33.3712H27.9395ZM28.1791 33.3712H40.3409V39.2835H28.1791V33.3712ZM28.1791 33.1335V27.2212H40.3409V33.1335H28.1791ZM40.5806 27.2212H52.7424V33.1335H40.5806V27.2212ZM40.5806 26.9835V21.0713H52.7424V26.9835H40.5806ZM15.538 14.9213V20.8336H3.37624V14.9213H15.538ZM3.37624 33.3712H15.538V39.2835H3.37624V33.3712ZM40.5806 39.2835V33.3712H52.7424V39.2835H40.5806Z" fill="#E4E4E4"/>
<path d="M23.5986 21.3657L18.6389 21.2543C18.1428 19.3483 18.3662 17.5335 18.762 15.8611L23.7217 15.9725C23.2201 17.7307 23.1777 19.5867 23.5986 21.3657Z" fill="#CE2525"/>
<path d="M19.6118 17.053L19.6144 16.8659L22.1839 16.9569L22.1812 17.1441L19.6118 17.053Z" fill="white"/>
<path d="M19.601 17.8017L19.6036 17.6145L22.1731 17.7057L22.1704 17.8929L19.601 17.8017Z" fill="white"/>
<path d="M19.5901 18.5504L19.5928 18.3632L22.1623 18.4544L22.1596 18.6416L19.5901 18.5504Z" fill="white"/>
<path d="M19.5793 19.2991L19.5819 19.1119L22.1515 19.2031L22.1487 19.3902L19.5793 19.2991Z" fill="white"/>
<path d="M19.5685 20.0478L19.5712 19.8606L22.1407 19.9518L22.138 20.1389L19.5685 20.0478Z" fill="white"/>
<path d="M12.8147 35.1511L7.85503 35.0397C7.35893 33.1337 7.58228 31.3189 7.97817 29.6465L12.9378 29.7579C12.4362 31.5161 12.3938 33.3721 12.8147 35.1511Z" fill="#F0F0F0"/>
<path d="M8.82788 30.8384L8.83052 30.6513L11.4001 30.7423L11.3973 30.9295L8.82788 30.8384Z" fill="white"/>
<path d="M8.81714 31.5871L8.81978 31.4L11.3892 31.4911L11.3866 31.6783L8.81714 31.5871Z" fill="white"/>
<path d="M8.80621 32.3358L8.80897 32.1487L11.3784 32.2398L11.3758 32.427L8.80621 32.3358Z" fill="white"/>
<path d="M8.79541 33.0845L8.79805 32.8973L11.3676 32.9885L11.3648 33.1757L8.79541 33.0845Z" fill="white"/>
<path d="M8.78467 33.8332L8.7873 33.646L11.3569 33.7372L11.3541 33.9244L8.78467 33.8332Z" fill="white"/>
<path d="M38.696 28.8526L33.7363 28.7412C33.2402 26.8352 33.4636 25.0204 33.8595 23.348L38.8191 23.4594C38.3175 25.2176 38.2751 27.0736 38.696 28.8526Z" fill="#F0F0F0"/>
<path d="M34.7092 24.5399L34.7118 24.3528L37.2814 24.4438L37.2786 24.631L34.7092 24.5399Z" fill="white"/>
<path d="M34.6984 25.2886L34.701 25.1015L37.2704 25.1926L37.2678 25.3798L34.6984 25.2886Z" fill="white"/>
<path d="M34.6875 26.0373L34.6903 25.8501L37.2597 25.9413L37.2571 26.1285L34.6875 26.0373Z" fill="white"/>
<path d="M34.6767 26.786L34.6793 26.5988L37.2489 26.69L37.2461 26.8772L34.6767 26.786Z" fill="white"/>
<path d="M34.6659 27.5347L34.6685 27.3475L37.2381 27.4387L37.2353 27.6258L34.6659 27.5347Z" fill="white"/>
<path d="M36.5393 27.6642L31.5796 27.5528C31.0835 25.6468 31.3068 23.832 31.7027 22.1596L36.6624 22.271C36.1607 24.0292 36.1184 25.8852 36.5393 27.6642Z" fill="#CE2525"/>
<path d="M32.5524 23.3515L32.5551 23.1644L35.1246 23.2554L35.1219 23.4426L32.5524 23.3515Z" fill="white"/>
<path d="M32.5416 24.1002L32.5443 23.9131L35.1137 24.0042L35.1111 24.1914L32.5416 24.1002Z" fill="white"/>
<path d="M32.5307 24.8489L32.5335 24.6617L35.1029 24.7529L35.1003 24.9401L32.5307 24.8489Z" fill="white"/>
<path d="M32.52 25.5976L32.5226 25.4104L35.0922 25.5016L35.0894 25.6888L32.52 25.5976Z" fill="white"/>
<path d="M32.5092 26.3463L32.5118 26.1591L35.0813 26.2503L35.0786 26.4374L32.5092 26.3463Z" fill="white"/>
<path d="M54.8318 38.5202L49.8721 38.4088C49.376 36.5027 49.5994 34.6879 49.9953 33.0156L54.9549 33.1269C54.4533 34.8852 54.4109 36.7412 54.8318 38.5202Z" fill="#CE2525"/>
<path d="M50.845 34.2074L50.8477 34.0202L53.4172 34.1114L53.4144 34.2986L50.845 34.2074Z" fill="white"/>
<path d="M50.8342 34.9561L50.8368 34.769L53.4064 34.8601L53.4036 35.0473L50.8342 34.9561Z" fill="white"/>
<path d="M50.8232 35.7049L50.826 35.5178L53.3954 35.6088L53.3928 35.796L50.8232 35.7049Z" fill="white"/>
<path d="M50.8125 36.4536L50.8153 36.2664L53.3847 36.3575L53.3819 36.5447L50.8125 36.4536Z" fill="white"/>
<path d="M50.8017 37.2023L50.8043 37.0151L53.3739 37.1063L53.3711 37.2935L50.8017 37.2023Z" fill="white"/>
<path d="M49.4799 22.3164L44.5202 22.205C44.0241 20.299 44.2474 18.4842 44.6433 16.8118L49.603 16.9232C49.1013 18.6815 49.059 20.5374 49.4799 22.3164Z" fill="#F0F0F0"/>
<path d="M45.493 18.0037L45.4957 17.8166L48.0652 17.9076L48.0625 18.0948L45.493 18.0037Z" fill="white"/>
<path d="M45.4822 18.7524L45.4849 18.5653L48.0543 18.6564L48.0517 18.8436L45.4822 18.7524Z" fill="white"/>
<path d="M45.4714 19.5011L45.4741 19.3139L48.0436 19.4051L48.0409 19.5923L45.4714 19.5011Z" fill="white"/>
<path d="M45.4606 20.2498L45.4632 20.0627L48.0328 20.1538L48.03 20.341L45.4606 20.2498Z" fill="white"/>
<path d="M45.4498 20.9985L45.4524 20.8113L48.022 20.9025L48.0192 21.0897L45.4498 20.9985Z" fill="white"/>
<path d="M54.5644 34.5455C54.7354 34.5038 54.8951 34.4253 55.0323 34.3157C55.1695 34.2061 55.2807 34.068 55.3582 33.9111C55.4358 33.7542 55.4777 33.5824 55.481 33.4077C55.4843 33.233 55.449 33.0598 55.3775 32.9001L58.5047 29.9993L56.3413 29.4836L53.7033 32.3173C53.4408 32.4543 53.2381 32.6819 53.1335 32.9571C53.029 33.2324 53.0298 33.5361 53.136 33.8108C53.2421 34.0854 53.4461 34.3119 53.7094 34.4473C53.9727 34.5828 54.2769 34.6177 54.5644 34.5455H54.5644Z" fill="#FFB6B6"/>
<path d="M56.1799 32.2089L54.7214 30.1695L60.1995 24.55L61.4714 15.6922C61.5343 15.2543 61.6936 14.8356 61.938 14.4657C62.1824 14.0958 62.5059 13.7838 62.8856 13.5518C63.2652 13.3199 63.6917 13.1736 64.1347 13.1235C64.5778 13.0734 65.0265 13.1207 65.449 13.2619C66.212 13.5179 66.8414 14.0636 67.1991 14.7792C67.5569 15.4949 67.6138 16.3221 67.3574 17.0793L64.1121 26.6291L56.1799 32.2089Z" fill="#E4E4E4"/>
<path d="M66.4655 69.9511L64.8465 69.951L64.0763 63.7574L66.4659 63.7575L66.4655 69.9511Z" fill="#FFB6B6"/>
<path d="M67.3365 73H66.1876L65.9826 71.9243L65.4574 73H62.4105C62.2644 73 62.1222 72.9537 62.0046 72.8679C61.8869 72.782 61.8 72.6612 61.7566 72.5229C61.7131 72.3846 61.7153 72.2361 61.763 72.0992C61.8106 71.9622 61.9011 71.844 62.0213 71.7617L64.4545 70.095V69.0075L67.0138 69.159L67.3365 73Z" fill="#2F2E41"/>
<path d="M76.4539 68.3171L75.0317 69.0845L71.3704 64.0094L73.4693 62.8767L76.4539 68.3171Z" fill="#FFB6B6"/>
<path d="M78.6882 70.5822L77.6791 71.1269L76.9806 70.2792L77.0377 71.473L74.3613 72.9175C74.233 72.9867 74.0858 73.0135 73.9411 72.9938C73.7964 72.9742 73.6618 72.9092 73.557 72.8083C73.4522 72.7075 73.3826 72.576 73.3584 72.4331C73.3343 72.2903 73.3568 72.1435 73.4227 72.0142L74.7567 69.3968L74.2326 68.4415L76.5537 67.3614L78.6882 70.5822Z" fill="#2F2E41"/>
<path d="M67.1476 67.7456H63.8018V55.9288L61.7304 48.2249C60.2438 42.7155 59.8487 36.9724 60.5671 31.3138L60.57 31.2907L60.588 31.2757C60.6412 31.2314 65.9426 26.8837 69.296 30.2096C71.5563 32.4514 69.4324 40.5125 69.3135 40.955V54.8515L67.1476 67.7456Z" fill="#2F2E41"/>
<path d="M59.5481 33.4603L60.6265 22.7647C60.4864 22.4731 58.4697 20.6256 60.5783 17.3774L62.8559 12.0751L67.1212 12.0093L67.1392 12.0271C68.1426 13.0202 68.8827 14.2441 69.2934 15.5897C69.7042 16.9353 69.7729 18.3608 69.4934 19.7391L68.2366 25.9719L69.3256 30.2922L59.5481 33.4603Z" fill="#E4E4E4"/>
<path d="M65.1516 55.9898L72.0249 65.5786L74.6616 63.7194L68.9211 52.0195L65.1516 55.9898Z" fill="#2F2E41"/>
<path d="M64.59 10.9972C66.7652 10.9972 68.5285 9.24835 68.5285 7.09099C68.5285 4.93362 66.7652 3.18472 64.59 3.18472C62.4148 3.18472 60.6515 4.93362 60.6515 7.09099C60.6515 9.24835 62.4148 10.9972 64.59 10.9972Z" fill="#FFB6B6"/>
<path opacity="0.1" d="M63.622 21.2198L64.7004 27.6371L63.622 32.9849H61.4653L62.4456 27.6371L63.622 21.2198Z" fill="black"/>
<path d="M64.6509 38.495C64.7819 38.3782 64.8856 38.2344 64.9546 38.0737C65.0235 37.9129 65.0561 37.7391 65.0501 37.5645C65.044 37.3899 64.9994 37.2188 64.9194 37.0631C64.8394 36.9075 64.726 36.7711 64.5871 36.6636L65.9689 32.6441L63.8155 33.1995L62.8334 36.9313C62.6668 37.1747 62.5961 37.4702 62.6345 37.7619C62.6729 38.0535 62.8179 38.3211 63.0419 38.5138C63.2659 38.7065 63.5534 38.8111 63.85 38.8076C64.1465 38.8041 64.4315 38.6929 64.6509 38.495Z" fill="#FFB6B6"/>
<path d="M64.9669 35.6792L62.712 34.561L64.8771 27.0452L61.7943 18.6367C61.6419 18.221 61.5836 17.7772 61.6236 17.3368C61.6637 16.8963 61.8009 16.47 62.0258 16.088C62.2506 15.7061 62.5574 15.3779 62.9245 15.1268C63.2916 14.8758 63.7099 14.7079 64.1497 14.6352C64.9443 14.5047 65.7586 14.6922 66.414 15.1565C67.0693 15.6208 67.5122 16.324 67.6455 17.1118L69.3159 27.0522L64.9669 35.6792Z" fill="#E4E4E4"/>
<path d="M96 72.8581C96.0001 72.8766 95.9964 72.8951 95.9893 72.9122C95.9821 72.9294 95.9716 72.945 95.9584 72.9582C95.9451 72.9713 95.9294 72.9817 95.9121 72.9888C95.8948 72.9959 95.8762 72.9995 95.8575 72.9995H18.2987C18.2609 72.9995 18.2246 72.9846 18.1979 72.9581C18.1712 72.9315 18.1561 72.8956 18.1561 72.8581C18.1561 72.8206 18.1712 72.7846 18.1979 72.7581C18.2246 72.7315 18.2609 72.7166 18.2987 72.7166H95.8575C95.8952 72.7167 95.9314 72.7317 95.9582 72.7582C95.9849 72.7847 95.9999 72.8206 96 72.8581Z" fill="#CACACA"/>
<path d="M79.9077 6.89998C79.4108 7.70002 78.3583 8.05271 77.4248 7.89252C76.4912 7.73233 75.68 7.13473 75.0809 6.40685C74.4817 5.67896 74.0673 4.82217 73.6594 3.97405C73.2516 3.12593 72.839 2.26849 72.2429 1.5382C71.6467 0.807894 70.8398 0.205694 69.9076 0.0379626C69.4003 -0.0533206 68.8257 0.00694491 68.4555 0.362922C68.2003 0.629738 68.061 0.985296 68.0675 1.35301C67.9062 1.29668 67.7333 1.28057 67.5643 1.3061C67.3952 1.33164 67.235 1.39804 67.0979 1.49945C66.9608 1.60086 66.8509 1.73417 66.778 1.88762C66.7051 2.04108 66.6713 2.20997 66.6797 2.37941C66.6659 2.37914 66.6523 2.37824 66.6385 2.37824C64.9015 1.3988 62.2651 1.96777 62.2651 3.03733C61.3121 3.03733 60.1472 3.97085 60.1472 5.38841V5.38842C62.1181 5.38842 63.2779 7.89293 62.1274 9.68871C61.8304 10.1468 61.5029 10.5847 61.1472 10.9996H63.6118C63.8186 10.7053 63.9433 10.3622 63.9734 10.0047C64.064 10.3295 64.1181 10.6631 64.1348 10.9996C64.1348 10.9996 70.8669 11.86 69.1293 5.20462C69.2443 5.19893 69.3561 5.16531 69.4549 5.10673C69.7173 4.94989 69.8602 4.61818 69.8852 4.28159C69.9502 4.29881 70.0149 4.31599 70.0795 4.33312C70.5427 4.45713 71.0238 4.61782 71.3417 4.9742C71.879 5.5765 71.766 6.49067 71.9611 7.27126C72.1964 8.2126 72.9002 8.97399 73.6821 9.55636C74.5222 10.1821 75.5036 10.6574 76.5494 10.7561C77.5953 10.8548 78.7082 10.5394 79.4329 9.78494C80.1576 9.03053 80.4099 7.81522 79.9077 6.89998Z" fill="#2F2E41"/>
</g>
<defs>
<clipPath id="clip0_239_286">
<rect width="96" height="73" fill="white"/>
</clipPath>
</defs>
</svg>
