<svg width="159" height="128" viewBox="0 0 159 128" fill="none" xmlns="http://www.w3.org/2000/svg">
<g clip-path="url(#clip0_301_1061)">
<path d="M152.701 0.000195533H104.973C102.67 8.30629e-05 100.435 0.781322 98.6363 2.21549C96.8374 3.64965 95.5815 5.65139 95.0749 7.89164L70.9591 114.548C70.6961 115.712 70.6915 116.918 70.9456 118.084C71.1997 119.249 71.7064 120.345 72.4301 121.294C73.1538 122.244 74.0771 123.024 75.1352 123.58C76.1933 124.136 77.3605 124.454 78.5551 124.513L127.62 126.923C130.248 127.052 132.832 126.224 134.892 124.592C136.952 122.961 138.346 120.638 138.814 118.057L152.495 42.65L153.512 42.9399L156.131 28.6473L155.083 28.3863L158.902 7.33726C159.065 6.43566 159.028 5.50917 158.791 4.62384C158.554 3.73851 158.125 2.91614 157.533 2.21537C156.941 1.5146 156.201 0.952681 155.366 0.569681C154.531 0.18668 153.622 -0.00797193 152.703 -0.000397483L152.701 0.000195533Z" fill="#3F3D56"/>
<path d="M111.256 2.29939H105.685C104.085 2.29941 102.533 2.845 101.287 3.84561C100.041 4.84621 99.1755 6.24164 98.8344 7.80026L75.6859 113.587C75.5525 114.196 75.5526 114.826 75.6861 115.435C75.8197 116.044 76.0835 116.618 76.4595 117.116C76.8356 117.614 77.3151 118.025 77.8651 118.321C78.4152 118.618 79.023 118.792 79.6469 118.833L128.553 122.029C129.932 122.119 131.297 121.699 132.386 120.85C133.476 120.001 134.213 118.782 134.458 117.425L154.211 8.08447C154.339 7.37678 154.309 6.64974 154.125 5.95466C153.94 5.25958 153.604 4.61339 153.142 4.06169C152.679 3.51 152.101 3.06624 151.448 2.76174C150.794 2.45724 150.082 2.29941 149.361 2.29939H144.076C143.564 2.29938 143.067 2.4675 142.661 2.77774C142.255 3.08798 141.963 3.52303 141.83 4.01553C141.712 4.45048 141.454 4.83467 141.096 5.1086C140.737 5.38253 140.298 5.5309 139.846 5.53073H114.756C113.872 5.5307 113.02 5.1979 112.371 4.59883C111.722 3.99977 111.324 3.17858 111.256 2.29939Z" fill="white"/>
<path d="M138.291 76.2531C138.386 76.2564 138.479 76.2254 138.553 76.166C138.627 76.1065 138.678 76.0225 138.695 75.9291L149.51 16.4136C149.52 16.357 149.518 16.2989 149.504 16.2432C149.49 16.1875 149.463 16.1355 149.427 16.0908C149.391 16.0465 149.346 16.0106 149.295 15.9857C149.243 15.9607 149.187 15.9474 149.13 15.9467L99.9248 15.3672H99.9202C99.8309 15.3679 99.7445 15.3989 99.6751 15.455C99.6057 15.5111 99.5575 15.5891 99.5384 15.6761L86.7886 73.2599C86.7762 73.3161 86.776 73.3743 86.7882 73.4306C86.8004 73.4868 86.8246 73.5398 86.8592 73.5858C86.8935 73.6315 86.9375 73.6691 86.988 73.6959C87.0385 73.7228 87.0943 73.7382 87.1514 73.7411L138.291 76.2531Z" fill="#E6E6E6"/>
<path d="M95.591 80.1011C95.5463 80.1011 95.5028 80.1163 95.4678 80.144C95.4328 80.1718 95.4082 80.2105 95.398 80.254L94.9372 82.2231C94.9307 82.2509 94.9303 82.2798 94.936 82.3078C94.9418 82.3358 94.9535 82.3622 94.9705 82.3852C94.9875 82.4083 95.0092 82.4273 95.0343 82.4412C95.0594 82.455 95.0872 82.4633 95.1157 82.4654L121.146 84.3101C121.195 84.3131 121.243 84.2987 121.281 84.2693C121.319 84.24 121.346 84.1977 121.355 84.1505L121.798 81.8722C121.804 81.8446 121.803 81.8161 121.797 81.7887C121.79 81.7613 121.778 81.7357 121.76 81.7134C121.743 81.6912 121.721 81.6729 121.696 81.6598C121.671 81.6466 121.644 81.639 121.616 81.6373L95.6031 80.1015L95.591 80.1011Z" fill="#E6E6E6"/>
<path d="M127.217 91.6242C127.264 91.6279 127.311 91.6149 127.349 91.5875C127.387 91.56 127.414 91.5199 127.425 91.4743L127.989 89.1913C127.996 89.1633 127.997 89.1342 127.992 89.1059C127.986 89.0776 127.974 89.0509 127.957 89.0276C127.94 89.0043 127.918 88.9849 127.893 88.971C127.868 88.957 127.84 88.9487 127.811 88.9466L94.5681 86.6285C94.523 86.6249 94.478 86.637 94.4408 86.6627C94.4036 86.6884 94.3765 86.7261 94.364 86.7695L93.7778 88.7423C93.7695 88.7705 93.7675 88.8002 93.7722 88.8293C93.7768 88.8583 93.7878 88.886 93.8045 88.9102C93.8212 88.9345 93.8431 88.9547 93.8686 88.9695C93.8941 88.9842 93.9226 88.9931 93.952 88.9955L127.217 91.6242Z" fill="#E6E6E6"/>
<path d="M125.432 98.9421C125.479 98.9458 125.525 98.9328 125.563 98.9054C125.602 98.8779 125.629 98.8378 125.64 98.7922L126.204 96.5092C126.211 96.4812 126.212 96.4521 126.206 96.4238C126.201 96.3955 126.189 96.3688 126.172 96.3455C126.155 96.3222 126.133 96.3028 126.108 96.2889C126.083 96.2749 126.055 96.2666 126.026 96.2645L92.7828 93.9464C92.7377 93.9428 92.6928 93.9549 92.6556 93.9806C92.6184 94.0063 92.5912 94.044 92.5787 94.0874L91.9926 96.0602C91.9842 96.0884 91.9823 96.1181 91.9869 96.1472C91.9915 96.1762 92.0025 96.2039 92.0192 96.2281C92.0359 96.2524 92.0578 96.2726 92.0833 96.2874C92.1088 96.3021 92.1373 96.311 92.1667 96.3134L125.432 98.9421Z" fill="#E6E6E6"/>
<path d="M67.7949 124.705C67.7949 126.36 52.5996 126.536 33.8975 127.702C15.212 128.866 0 126.36 0 124.705C0 123.049 15.283 119.719 33.8975 121.708C52.5996 123.706 67.7949 123.049 67.7949 124.705Z" fill="#E6E6E6"/>
<path d="M110.121 111.452C110.169 111.457 110.216 111.445 110.255 111.417C110.294 111.39 110.321 111.349 110.332 111.303L111.525 106.546C111.532 106.518 111.533 106.489 111.528 106.461C111.522 106.433 111.511 106.406 111.494 106.383C111.477 106.36 111.456 106.34 111.431 106.326C111.406 106.312 111.378 106.303 111.349 106.301L90.9349 104.589C90.8872 104.586 90.84 104.599 90.8015 104.628C90.763 104.656 90.7357 104.697 90.7246 104.743L89.7073 109.308C89.7011 109.336 89.7009 109.364 89.7067 109.392C89.7124 109.419 89.7239 109.445 89.7405 109.468C89.7571 109.49 89.7783 109.509 89.8028 109.523C89.8272 109.537 89.8544 109.546 89.8824 109.548L110.121 111.452Z" fill="#687AEF"/>
<path d="M27.6928 92.0682C27.9498 91.8926 28.1651 91.6629 28.3235 91.3953C28.4819 91.1277 28.5795 90.8287 28.6094 90.5195C28.6393 90.2102 28.6008 89.8982 28.4967 89.6053C28.3925 89.3125 28.2252 89.046 28.0066 88.8246L28.8331 70.4275L24.625 70.8984L24.8695 88.8934C24.5205 89.2841 24.3275 89.7888 24.3269 90.312C24.3263 90.8351 24.5183 91.3402 24.8665 91.7316C25.2146 92.123 25.6947 92.3734 26.2157 92.4353C26.7367 92.4972 27.2623 92.3663 27.693 92.0674L27.6928 92.0682Z" fill="#A0616A"/>
<path d="M35.3699 123.211L37.7651 123.63L40.1323 114.619L36.994 113.999L35.3699 123.211Z" fill="#A0616A"/>
<path d="M41.9939 126.657L34.4664 125.338L34.9777 122.438L39.5968 123.248C40.3682 123.383 41.0541 123.818 41.5036 124.458C41.9531 125.097 42.1295 125.889 41.9939 126.658L41.9939 126.657Z" fill="#2F2E41"/>
<path d="M28.7959 124.406H31.2278L32.3846 115.053H28.7955L28.7959 124.406Z" fill="#A0616A"/>
<path d="M35.9169 126.658L28.2739 126.658L28.2737 123.714L32.9637 123.714C33.7469 123.714 34.498 124.024 35.0518 124.576C35.6057 125.128 35.9168 125.877 35.9169 126.658Z" fill="#2F2E41"/>
<path d="M38.9417 121.054C38.9038 121.054 38.8659 121.051 38.8283 121.047L35.9659 120.812C35.8356 120.797 35.7098 120.755 35.596 120.69C35.4823 120.625 35.3831 120.537 35.3044 120.432C35.2257 120.328 35.1691 120.208 35.1381 120.081C35.1072 119.954 35.1025 119.822 35.1243 119.693L37.9658 105.713L36.1806 96.3241C36.166 96.2478 36.1243 96.1793 36.0631 96.1313C36.0018 96.0832 35.9253 96.0589 35.8475 96.0628C35.7697 96.0666 35.6959 96.0984 35.6398 96.1522C35.5836 96.2061 35.5489 96.2783 35.542 96.3557L32.9116 120.213C32.887 120.465 32.7655 120.697 32.5727 120.86C32.3799 121.024 32.1309 121.107 31.8781 121.091L29.1814 120.991C28.9451 120.974 28.7231 120.872 28.5574 120.703C28.3916 120.534 28.2935 120.311 28.2817 120.075L28.4971 91.2449L42.4777 89.5024L43.4544 104.542L43.4504 104.558L39.8817 120.316C39.8304 120.526 39.7099 120.713 39.5394 120.847C39.369 120.98 39.1586 121.053 38.9417 121.054Z" fill="#2F2E41"/>
<path d="M33.1076 58.5066C35.7982 58.5066 37.9795 56.3318 37.9795 53.6489C37.9795 50.9661 35.7982 48.7913 33.1076 48.7913C30.4169 48.7913 28.2357 50.9661 28.2357 53.6489C28.2357 56.3318 30.4169 58.5066 33.1076 58.5066Z" fill="#A0616A"/>
<path d="M37.698 93.4388C36.9361 93.4433 36.1887 93.2302 35.5445 92.8245C33.184 91.3538 30.5039 91.9383 29.1162 92.4177C28.9785 92.4658 28.8316 92.4822 28.6867 92.4657C28.5417 92.4493 28.4023 92.4003 28.2789 92.3226C28.157 92.2462 28.054 92.1434 27.9776 92.0217C27.9012 91.9 27.8534 91.7627 27.8378 91.62L25.3145 69.1472C24.8916 65.3819 27.1663 61.8418 30.7233 60.7297C30.857 60.6879 30.9929 60.6483 31.131 60.611C32.2379 60.3118 33.3971 60.2581 34.527 60.4536C35.657 60.6492 36.7302 61.0893 37.6713 61.7429C38.6298 62.4037 39.4315 63.266 40.0198 64.269C40.6082 65.272 40.9688 66.3914 41.0765 67.5484L43.2011 90.1719C43.2156 90.3183 43.1958 90.4662 43.1432 90.6037C43.0907 90.7412 43.0068 90.8647 42.8982 90.9644C42.1532 91.6511 39.9915 93.4386 37.698 93.4388Z" fill="#687AEF"/>
<path d="M30.0134 73.9664L24.3205 73.3422C24.1585 73.3244 24.0022 73.272 23.8623 73.1886C23.7225 73.1052 23.6023 72.9927 23.5099 72.8588C23.4176 72.7249 23.3553 72.5728 23.3273 72.4127C23.2992 72.2526 23.3061 72.0884 23.3475 71.9312L24.7967 66.4238C24.8394 66.011 24.9637 65.6107 25.1625 65.2461C25.3612 64.8815 25.6305 64.5598 25.9547 64.2996C26.2789 64.0394 26.6516 63.8458 27.0513 63.73C27.451 63.6143 27.8697 63.5787 28.2833 63.6252C28.6968 63.6718 29.097 63.7996 29.4608 64.0013C29.8245 64.203 30.1445 64.4746 30.4024 64.8003C30.6602 65.1261 30.8507 65.4996 30.963 65.8992C31.0752 66.2988 31.1069 66.7166 31.0562 67.1285L31.2714 72.7999C31.2775 72.9623 31.2485 73.1241 31.1863 73.2743C31.1241 73.4245 31.0301 73.5596 30.9108 73.6704C30.7915 73.7811 30.6496 73.8649 30.4949 73.9161C30.3402 73.9672 30.1762 73.9845 30.0142 73.9668L30.0134 73.9664Z" fill="#687AEF"/>
<path d="M43.1779 91.2805C43.4118 91.0752 43.5976 90.8214 43.7224 90.5368C43.8472 90.2522 43.9079 89.9437 43.9002 89.6332C43.8926 89.3227 43.8167 89.0176 43.678 88.7395C43.5393 88.4613 43.3411 88.2169 43.0974 88.0234L41.6944 69.6611L37.5707 70.5867L39.9907 88.4688C39.6914 88.8985 39.5607 89.4228 39.6234 89.9422C39.6861 90.4616 39.9377 90.94 40.3306 91.2867C40.7235 91.6334 41.2304 91.8243 41.755 91.8231C42.2797 91.822 42.7857 91.6289 43.1771 91.2805H43.1779Z" fill="#A0616A"/>
<path d="M35.99 72.8121C35.8706 72.7015 35.7766 72.5664 35.7144 72.4163C35.6522 72.2661 35.6232 72.1043 35.6294 71.9419L35.8446 66.2705C35.7982 65.8607 35.8332 65.4458 35.9476 65.0495C36.062 64.6532 36.2536 64.2832 36.5114 63.9607C36.7692 63.6383 37.0882 63.3695 37.4501 63.17C37.8121 62.9704 38.2099 62.8439 38.6209 62.7976C39.0319 62.7513 39.448 62.7862 39.8455 62.9003C40.243 63.0144 40.614 63.2054 40.9375 63.4624C41.2609 63.7195 41.5304 64.0376 41.7305 64.3985C41.9307 64.7594 42.0576 65.156 42.104 65.5658L43.5532 71.0732C43.5946 71.2304 43.6015 71.3946 43.5735 71.5547C43.5454 71.7148 43.4831 71.867 43.3908 72.0009C43.2985 72.1348 43.1783 72.2473 43.0384 72.3307C42.8985 72.4141 42.7423 72.4664 42.5803 72.4842L36.8874 73.1084C36.7253 73.1262 36.5613 73.1089 36.4066 73.0577C36.2518 73.0065 36.11 72.9226 35.9908 72.8117L35.99 72.8121Z" fill="#687AEF"/>
<path d="M32.8178 58.6896C32.731 58.6896 32.6444 58.6796 32.5599 58.6597L32.5351 58.6538C28.2518 58.0011 27.305 55.5265 27.0973 54.4935C26.8823 53.4239 27.1271 52.3915 27.6805 51.9904C27.3788 51.041 27.4272 50.1983 27.8247 49.4861C28.5189 48.244 30.0227 47.8247 30.2248 47.7725C31.4265 46.8886 32.8642 47.4786 33.1258 47.5983C35.4504 46.7409 36.3393 47.4545 36.4995 47.6139C37.5385 47.8 38.1719 48.2001 38.3822 48.8037C38.7771 49.9372 37.5282 51.3472 37.4749 51.4067L37.4471 51.4376L35.5865 51.526C35.4099 51.5344 35.2371 51.5797 35.0793 51.659C34.9214 51.7383 34.782 51.8498 34.6702 51.9862C34.5583 52.1227 34.4765 52.281 34.4299 52.4511C34.3834 52.6211 34.3732 52.799 34.4001 52.9731C34.4504 53.1979 34.514 53.4194 34.5905 53.6367C34.9079 54.6268 35.1459 55.4727 34.8393 55.7943C34.7697 55.8565 34.684 55.8979 34.5919 55.9138C34.4998 55.9298 34.4051 55.9195 34.3186 55.8843C34.0276 55.8067 33.8302 55.823 33.7318 55.9327C33.5791 56.1026 33.6257 56.533 33.8631 57.1441C33.9376 57.3374 33.9577 57.5474 33.9211 57.7512C33.8846 57.955 33.7927 58.145 33.6557 58.3006C33.5524 58.422 33.424 58.5196 33.2793 58.5868C33.1346 58.6539 32.977 58.689 32.8174 58.6896H32.8178Z" fill="#2F2E41"/>
</g>
<defs>
<clipPath id="clip0_301_1061">
<rect width="159" height="128" fill="white"/>
</clipPath>
</defs>
</svg>
