<svg width="150" height="114" viewBox="0 0 150 114" fill="none" xmlns="http://www.w3.org/2000/svg">
<g clip-path="url(#clip0_239_110)">
<path d="M101.805 113.636C101.659 113.76 101.508 113.88 101.355 113.999H82.8448C82.7385 113.88 82.6322 113.76 82.5276 113.636C81.6729 112.62 80.9205 111.523 80.2811 110.362C78.7614 107.648 78.2378 104.09 78.2378 100.467C78.2378 100.246 78.2394 100.024 78.244 99.8031C78.261 98.7866 78.3179 97.7686 78.4026 96.7673C78.418 96.5933 78.4334 96.4208 78.4503 96.2484C78.5874 94.8121 78.7799 93.414 78.9985 92.1075C79.0262 91.9412 79.0539 91.7763 79.0831 91.613C79.5288 89.0181 80.1262 86.4512 80.8723 83.925C80.8723 83.925 80.897 83.9312 80.9447 83.9434C81.0817 83.9815 81.4097 84.0716 81.8917 84.2135C83.2189 84.6043 85.7117 85.3918 88.5864 86.5625C88.7435 86.6251 88.9021 86.6907 89.0622 86.7579C91.4942 87.7517 93.8483 88.9236 96.1049 90.2638C96.2451 90.3477 96.3836 90.4332 96.5222 90.5187V90.5309L96.2189 100.264L98.9289 92.161C99.4816 92.5776 100.01 93.0096 100.513 93.4568C100.652 93.5789 100.79 93.704 100.924 93.8338C102.068 94.8731 103.044 96.0802 103.819 97.4129C107.873 104.658 106.172 109.985 101.805 113.636Z" fill="#F2F2F2"/>
<path d="M99.1952 113.999H98.7025C98.6994 113.879 98.6948 113.758 98.6871 113.636C98.4885 109.974 96.9041 105.931 94.7469 102.028C94.6699 101.887 94.5914 101.742 94.5083 101.6C93.4612 99.7436 92.2941 97.9273 91.0885 96.2011C90.9961 96.0667 90.9006 95.9309 90.8052 95.7966C89.2008 93.527 87.544 91.4268 86.0474 89.6334C85.9427 89.5052 85.8349 89.38 85.7287 89.2564C83.5099 86.619 81.6791 84.6974 80.9447 83.9434C80.8354 83.832 80.7507 83.7465 80.6922 83.687C80.6383 83.629 80.606 83.5984 80.5998 83.5923L80.7723 83.4214L80.7738 83.4168L80.9493 83.2458C80.9555 83.2535 81.0617 83.3542 81.2495 83.5481C81.4082 83.7083 81.6252 83.9327 81.8917 84.2135C82.8217 85.1904 84.3598 86.8525 86.1398 88.9603C86.2429 89.0824 86.3492 89.2091 86.4554 89.3358C87.6703 90.7903 88.9867 92.4387 90.2909 94.2108C90.6188 94.6564 90.9371 95.0986 91.2456 95.5371C91.3426 95.6714 91.438 95.8057 91.5304 95.9401C92.8346 97.8052 93.9735 99.5991 94.9471 101.322L95.1903 101.754C97.6724 106.241 99.0089 110.216 99.1814 113.636C99.1875 113.758 99.1922 113.879 99.1952 113.999Z" fill="white"/>
<path d="M88.8574 86.2053C88.7697 86.3259 88.6804 86.445 88.5865 86.5625C87.8804 87.4645 87.0578 88.2707 86.1398 88.9603C86.0058 89.058 85.8688 89.1587 85.7287 89.2564C85.3465 89.5207 84.9508 89.7653 84.5431 89.989C82.8634 90.9163 81.0004 91.4704 79.0832 91.613C79.0216 91.6191 78.9584 91.6237 78.8969 91.6267C78.8691 91.79 78.843 91.9534 78.8137 92.1197C78.8753 92.1167 78.9369 92.1136 78.9985 92.1075C81.0293 91.9764 83.0052 91.3993 84.7833 90.4179C85.2183 90.1787 85.6403 89.9169 86.0474 89.6334C86.186 89.5372 86.3214 89.4365 86.4554 89.3358C87.4373 88.5965 88.3141 87.7294 89.0622 86.7578C89.1515 86.6403 89.2393 86.5213 89.3255 86.4022C89.1654 86.3351 89.0099 86.2694 88.8574 86.2053Z" fill="white"/>
<path d="M96.2728 89.9188C96.2189 90.0348 96.1619 90.1493 96.1049 90.2638C95.0071 92.4324 93.3252 94.2575 91.2456 95.5371C91.1008 95.6272 90.9546 95.7142 90.8052 95.7966C90.7605 95.8225 90.7128 95.85 90.6682 95.8744C88.809 96.8971 86.7302 97.4646 84.605 97.5296C82.4798 97.5947 80.3696 97.1554 78.4503 96.2484C78.4041 96.227 78.3595 96.2056 78.3148 96.1843C78.2979 96.3583 78.2825 96.5323 78.2702 96.7078C78.3133 96.7276 78.3579 96.749 78.4026 96.7673C80.377 97.6695 82.5381 98.0977 84.7107 98.0171C86.8832 97.9365 89.006 97.3493 90.9068 96.3033C90.9684 96.2697 91.0285 96.2362 91.0885 96.2011C91.2379 96.1156 91.3857 96.0286 91.5304 95.9401C93.6617 94.623 95.3882 92.7522 96.5222 90.5309C96.5823 90.4164 96.6393 90.3004 96.6947 90.1829C96.5546 90.0943 96.4145 90.0058 96.2728 89.9188Z" fill="white"/>
<path d="M100.595 93.1103C100.569 93.2263 100.543 93.3423 100.513 93.4568C99.7212 96.6788 97.7339 99.4868 94.9471 101.322C94.8039 101.418 94.6561 101.51 94.5083 101.6C94.3497 101.694 94.1911 101.789 94.0279 101.877C91.5199 103.253 88.6324 103.795 85.7907 103.421C82.9491 103.048 80.3036 101.779 78.244 99.8031C78.2086 99.771 78.1747 99.7375 78.1408 99.7039C78.1408 99.9313 78.1393 100.156 78.1424 100.382C78.1731 100.411 78.2055 100.44 78.2378 100.467C80.3823 102.393 83.0808 103.606 85.9553 103.935C88.8299 104.265 91.7365 103.696 94.2681 102.306C94.4313 102.218 94.5914 102.126 94.7469 102.028C94.8978 101.94 95.0441 101.848 95.1903 101.754C98.0168 99.9001 100.057 97.0814 100.924 93.8338C100.954 93.7239 100.983 93.614 101.009 93.5025C100.875 93.3682 100.735 93.2416 100.595 93.1103Z" fill="white"/>
<path d="M87.6854 68.2561H0V3.04343H87.6854V68.2561Z" fill="white"/>
<path d="M21.2478 16.6538C23.1755 16.6538 24.7382 15.1048 24.7382 13.1939C24.7382 11.2831 23.1755 9.73409 21.2478 9.73409C19.3202 9.73409 17.7575 11.2831 17.7575 13.1939C17.7575 15.1048 19.3202 16.6538 21.2478 16.6538Z" fill="#E6E6E6"/>
<path d="M29.3088 10.8874C29.1547 10.8876 29.007 10.9485 28.8982 11.0566C28.7893 11.1647 28.7282 11.3113 28.7282 11.464C28.7282 11.6168 28.7893 11.7633 28.8982 11.8714C29.007 11.9795 29.1547 12.0404 29.3088 12.0407H71.7813C71.9354 12.0404 72.0831 11.9795 72.192 11.8714C72.3008 11.7633 72.362 11.6168 72.362 11.464C72.362 11.3113 72.3008 11.1647 72.192 11.0566C72.0831 10.9485 71.9354 10.8876 71.7813 10.8874H29.3088Z" fill="#E6E6E6"/>
<path d="M29.3088 14.3472C29.1546 14.3469 29.0065 14.4073 28.8971 14.5152C28.7878 14.6232 28.7262 14.7697 28.7259 14.9226C28.7256 15.0756 28.7865 15.2224 28.8954 15.3307C29.0043 15.4391 29.1521 15.5002 29.3064 15.5005H56.1579C56.2344 15.5006 56.3101 15.4858 56.3808 15.4569C56.4515 15.428 56.5158 15.3855 56.5699 15.332C56.624 15.2784 56.667 15.2148 56.6963 15.1448C56.7256 15.0747 56.7407 14.9997 56.7407 14.9239C56.7407 14.848 56.7256 14.773 56.6963 14.7029C56.667 14.6329 56.624 14.5693 56.5699 14.5157C56.5158 14.4622 56.4515 14.4197 56.3808 14.3908C56.3101 14.3619 56.2344 14.3471 56.1579 14.3472H29.3088Z" fill="#E6E6E6"/>
<path d="M87.6854 68.2561H0V3.04343H87.6854V68.2561ZM0.981418 67.2832H86.704V4.01629H0.981418V67.2832Z" fill="#E6E6E6"/>
<path d="M4.90098 22.9306V61.7179H82.7844V22.9306H4.90098ZM82.41 32.5346H63.4072V23.3018H82.41V32.5346ZM44.0299 32.5346V23.3018H63.0327V32.5346H44.0299ZM63.0327 32.9058V42.1387H44.0299V32.9058H63.0327ZM43.6555 32.5346H24.6527V23.3018H43.6555V32.5346ZM43.6555 32.9058V42.1387H24.6527V32.9058H43.6555ZM24.2782 42.1387H5.27542V32.9058H24.2782V42.1387ZM24.2782 42.5098V51.7427H5.27542V42.5098H24.2782ZM24.6527 42.5098H43.6555V51.7427H24.6527V42.5098ZM43.6555 52.1139V61.3468H24.6527V52.1139H43.6555ZM44.0299 52.1139H63.0327V61.3468H44.0299V52.1139ZM44.0299 51.7427V42.5098H63.0327V51.7427H44.0299ZM63.4072 42.5098H82.41V51.7427H63.4072V42.5098ZM63.4072 42.1387V32.9058H82.41V42.1387H63.4072ZM24.2782 23.3018V32.5346H5.27542V23.3018H24.2782ZM5.27542 52.1139H24.2782V61.3468H5.27542V52.1139ZM63.4072 61.3468V52.1139H82.41V61.3468H63.4072Z" fill="#E4E4E4"/>
<path d="M36.8728 33.3656L29.1233 33.1917C28.3482 30.2151 28.6971 27.381 29.3157 24.7694L37.0652 24.9433C36.2814 27.6891 36.2152 30.5874 36.8728 33.3656Z" fill="#6C63FF"/>
<path d="M30.6434 26.6308L30.6475 26.3385L34.6624 26.4806L34.6581 26.7729L30.6434 26.6308Z" fill="white"/>
<path d="M30.6265 27.7999L30.6307 27.5076L34.6454 27.65L34.6413 27.9423L30.6265 27.7999Z" fill="white"/>
<path d="M30.6095 28.9691L30.6138 28.6768L34.6286 28.8192L34.6244 29.1115L30.6095 28.9691Z" fill="white"/>
<path d="M30.5927 30.1383L30.5968 29.846L34.6117 29.9884L34.6074 30.2807L30.5927 30.1383Z" fill="white"/>
<path d="M30.5758 31.3075L30.5799 31.0152L34.5949 31.1576L34.5905 31.4499L30.5758 31.3075Z" fill="white"/>
<path d="M20.0231 54.8935L12.2735 54.7196C11.4984 51.743 11.8474 48.9089 12.4659 46.2973L20.2154 46.4712C19.4316 49.217 19.3654 52.1153 20.0231 54.8935Z" fill="#F0F0F0"/>
<path d="M13.7936 48.1587L13.7977 47.8664L17.8127 48.0085L17.8084 48.3008L13.7936 48.1587Z" fill="white"/>
<path d="M13.7768 49.3278L13.7809 49.0356L17.7956 49.1779L17.7915 49.4702L13.7768 49.3278Z" fill="white"/>
<path d="M13.7597 50.497L13.764 50.2047L17.7788 50.3471L17.7746 50.6394L13.7597 50.497Z" fill="white"/>
<path d="M13.7429 51.6662L13.747 51.3739L17.7619 51.5163L17.7576 51.8086L13.7429 51.6662Z" fill="white"/>
<path d="M13.726 52.8354L13.7301 52.5431L17.7451 52.6855L17.7408 52.9778L13.726 52.8354Z" fill="white"/>
<path d="M60.4625 45.0575L52.713 44.8835C51.9378 41.907 52.2868 39.0729 52.9054 36.4613L60.6549 36.6352C59.8711 39.381 59.8049 42.2793 60.4625 45.0575Z" fill="#F0F0F0"/>
<path d="M54.2331 38.3226L54.2372 38.0303L58.2521 38.1725L58.2478 38.4648L54.2331 38.3226Z" fill="white"/>
<path d="M54.2162 39.4918L54.2204 39.1995L58.2351 39.3419L58.231 39.6342L54.2162 39.4918Z" fill="white"/>
<path d="M54.1992 40.661L54.2035 40.3687L58.2182 40.5111L58.2141 40.8034L54.1992 40.661Z" fill="white"/>
<path d="M54.1824 41.8302L54.1865 41.5379L58.2014 41.6802L58.1971 41.9725L54.1824 41.8302Z" fill="white"/>
<path d="M54.1655 42.9994L54.1696 42.7071L58.1846 42.8494L58.1802 43.1417L54.1655 42.9994Z" fill="white"/>
<path d="M57.0926 43.2016L49.3431 43.0277C48.5679 40.0511 48.9169 37.217 49.5355 34.6054L57.285 34.7793C56.5011 37.5251 56.4349 40.4235 57.0926 43.2016Z" fill="#6C63FF"/>
<path d="M50.8631 36.4668L50.8673 36.1745L54.8822 36.3166L54.8779 36.6089L50.8631 36.4668Z" fill="white"/>
<path d="M50.8463 37.636L50.8504 37.3437L54.8651 37.486L54.861 37.7783L50.8463 37.636Z" fill="white"/>
<path d="M50.8292 38.8052L50.8336 38.5129L54.8483 38.6552L54.8442 38.9475L50.8292 38.8052Z" fill="white"/>
<path d="M50.8124 39.9743L50.8165 39.6821L54.8314 39.8244L54.8271 40.1167L50.8124 39.9743Z" fill="white"/>
<path d="M50.7955 41.1435L50.7997 40.8512L54.8146 40.9936L54.8103 41.2859L50.7955 41.1435Z" fill="white"/>
<path d="M85.6747 60.1548L77.9252 59.9808C77.15 57.0043 77.499 54.1702 78.1176 51.5585L85.8671 51.7325C85.0832 54.4783 85.017 57.3766 85.6747 60.1548Z" fill="#6C63FF"/>
<path d="M79.4452 53.4198L79.4495 53.1275L83.4643 53.2699L83.46 53.5622L79.4452 53.4198Z" fill="white"/>
<path d="M79.4284 54.589L79.4325 54.2967L83.4474 54.4391L83.4431 54.7313L79.4284 54.589Z" fill="white"/>
<path d="M79.4113 55.7584L79.4156 55.4661L83.4304 55.6083L83.4263 55.9006L79.4113 55.7584Z" fill="white"/>
<path d="M79.3945 56.9276L79.3988 56.6353L83.4136 56.7774L83.4093 57.0697L79.3945 56.9276Z" fill="white"/>
<path d="M79.3776 58.0968L79.3818 57.8045L83.3967 57.9468L83.3924 58.2391L79.3776 58.0968Z" fill="white"/>
<path d="M77.3123 34.8503L69.5628 34.6763C68.7876 31.6998 69.1366 28.8657 69.7552 26.2541L77.5047 26.428C76.7209 29.1738 76.6547 32.0721 77.3123 34.8503Z" fill="#F0F0F0"/>
<path d="M71.0829 28.1154L71.087 27.8231L75.1019 27.9653L75.0976 28.2576L71.0829 28.1154Z" fill="white"/>
<path d="M71.066 29.2846L71.0701 28.9923L75.0849 29.1347L75.0808 29.427L71.066 29.2846Z" fill="white"/>
<path d="M71.049 30.4538L71.0533 30.1615L75.068 30.3039L75.0639 30.5962L71.049 30.4538Z" fill="white"/>
<path d="M71.0321 31.623L71.0363 31.3307L75.0512 31.473L75.0469 31.7653L71.0321 31.623Z" fill="white"/>
<path d="M71.0153 32.7922L71.0194 32.4999L75.0343 32.6422L75.03 32.9345L71.0153 32.7922Z" fill="white"/>
<path d="M85.2568 53.9478C85.524 53.8826 85.7736 53.7601 85.9879 53.5889C86.2022 53.4177 86.3761 53.202 86.4972 52.9571C86.6183 52.7121 86.6838 52.4437 86.689 52.171C86.6942 51.8982 86.639 51.6276 86.5273 51.3783L91.4135 46.8482L88.0332 46.043L83.9113 50.4682C83.5012 50.682 83.1844 51.0375 83.0211 51.4673C82.8577 51.8972 82.8591 52.3715 83.0249 52.8004C83.1908 53.2293 83.5096 53.583 83.9209 53.7945C84.3323 54.006 84.8076 54.0605 85.2568 53.9478H85.2568Z" fill="#FFB6B6"/>
<path d="M87.781 50.2989L85.5022 47.114L94.0616 38.3383L96.0491 24.5056C96.1473 23.8218 96.3962 23.1679 96.7781 22.5903C97.16 22.0126 97.6654 21.5253 98.2587 21.1631C98.8519 20.8009 99.5182 20.5725 100.21 20.4943C100.903 20.416 101.604 20.4898 102.264 20.7104C103.456 21.1101 104.44 21.9623 104.999 23.0799C105.558 24.1975 105.647 25.4893 105.246 26.6718L100.175 41.5851L87.781 50.2989Z" fill="#E4E4E4"/>
<path d="M103.852 109.239L101.323 109.239L100.119 99.5664L103.853 99.5666L103.852 109.239Z" fill="#FFB6B6"/>
<path d="M105.213 114H103.418L103.098 112.32L102.277 114H97.5164C97.2882 114 97.066 113.928 96.8821 113.794C96.6983 113.66 96.5625 113.471 96.4946 113.255C96.4267 113.039 96.4302 112.807 96.5046 112.593C96.5791 112.379 96.7205 112.195 96.9083 112.066L100.71 109.463V107.765L104.709 108.002L105.213 114Z" fill="#2F2E41"/>
<path d="M119.459 106.687L117.237 107.885L111.516 99.9598L114.796 98.191L119.459 106.687Z" fill="#FFB6B6"/>
<path d="M122.95 110.224L121.374 111.075L120.282 109.751L120.371 111.615L116.19 113.871C115.989 113.979 115.759 114.021 115.533 113.99C115.307 113.96 115.097 113.858 114.933 113.701C114.769 113.543 114.66 113.338 114.623 113.115C114.585 112.892 114.62 112.662 114.723 112.461L116.807 108.373L115.988 106.881L119.615 105.194L122.95 110.224Z" fill="#2F2E41"/>
<path d="M104.918 105.794H99.6902V87.3409L96.4538 75.3101C94.1309 66.7064 93.5136 57.7378 94.636 48.901L94.6406 48.8649L94.6687 48.8415C94.7518 48.7723 103.035 41.9828 108.275 47.1767C111.807 50.6776 108.488 63.2661 108.302 63.9571V85.6585L104.918 105.794Z" fill="#2F2E41"/>
<path d="M93.0439 52.2531L94.7289 35.5504C94.51 35.0949 91.359 32.2099 94.6537 27.1373L98.2124 18.857L104.877 18.7543L104.905 18.7821C106.473 20.3329 107.629 22.2442 108.271 24.3456C108.913 26.4469 109.02 28.673 108.584 30.8255L106.62 40.5589L108.321 47.3057L93.0439 52.2531Z" fill="#E4E4E4"/>
<path d="M101.799 87.4361L112.539 102.41L116.659 99.507L107.689 81.2359L101.799 87.4361Z" fill="#2F2E41"/>
<path d="M100.922 17.1738C104.321 17.1738 107.076 14.4426 107.076 11.0736C107.076 7.70455 104.321 4.9734 100.922 4.9734C97.5232 4.9734 94.768 7.70455 94.768 11.0736C94.768 14.4426 97.5232 17.1738 100.922 17.1738Z" fill="#FFB6B6"/>
<path opacity="0.1" d="M99.4094 33.1378L101.094 43.1594L99.4094 51.5107H96.0395L97.5713 43.1594L99.4094 33.1378Z" fill="black"/>
<path d="M101.017 60.1154C101.222 59.9331 101.384 59.7086 101.492 59.4575C101.599 59.2065 101.65 58.9351 101.641 58.6624C101.631 58.3897 101.562 58.1225 101.437 57.8794C101.312 57.6363 101.134 57.4234 100.917 57.2555L103.076 50.9785L99.7117 51.8458L98.1772 57.6736C97.9169 58.0536 97.8063 58.5151 97.8664 58.9706C97.9264 59.426 98.1529 59.8439 98.5029 60.1448C98.853 60.4458 99.3022 60.6091 99.7656 60.6037C100.229 60.5982 100.674 60.4245 101.017 60.1154Z" fill="#FFB6B6"/>
<path d="M101.511 55.7181L97.9875 53.9719L101.37 42.2349L96.5535 29.1038C96.3154 28.4548 96.2244 27.7617 96.2869 27.0739C96.3494 26.386 96.5639 25.7202 96.9152 25.1238C97.2665 24.5273 97.7459 24.0149 98.3195 23.6228C98.893 23.2306 99.5466 22.9685 100.234 22.8549C101.475 22.6512 102.748 22.944 103.772 23.6691C104.796 24.3941 105.488 25.4922 105.696 26.7225L108.306 42.246L101.511 55.7181Z" fill="#E4E4E4"/>
<path d="M150 113.778C150 113.807 149.994 113.836 149.983 113.863C149.972 113.89 149.956 113.914 149.935 113.935C149.914 113.955 149.89 113.971 149.863 113.983C149.836 113.994 149.806 113.999 149.777 113.999H28.5917C28.5326 113.999 28.4759 113.976 28.4342 113.934C28.3924 113.893 28.3689 113.837 28.3689 113.778C28.3689 113.72 28.3924 113.664 28.4342 113.622C28.4759 113.581 28.5326 113.557 28.5917 113.557H149.777C149.836 113.558 149.893 113.581 149.935 113.622C149.976 113.664 150 113.72 150 113.778Z" fill="#CACACA"/>
<path d="M124.856 10.7753C124.079 12.0247 122.435 12.5755 120.976 12.3253C119.518 12.0752 118.25 11.1419 117.314 10.0052C116.378 8.86852 115.73 7.53052 115.093 6.20607C114.456 4.88159 113.811 3.54258 112.88 2.40212C111.948 1.26165 110.687 0.321229 109.231 0.0592916C108.438 -0.0832602 107.54 0.0108531 106.962 0.566763C106.563 0.983434 106.345 1.53869 106.356 2.11293C106.103 2.02495 105.833 1.99979 105.569 2.03967C105.305 2.07955 105.055 2.18325 104.84 2.34162C104.626 2.49998 104.455 2.70816 104.341 2.9478C104.227 3.18744 104.174 3.45119 104.187 3.71579C104.166 3.71538 104.144 3.71397 104.123 3.71397C101.409 2.18444 97.2893 3.07297 97.2893 4.74324C95.8001 4.74324 93.98 6.20107 93.98 8.41479V8.4148C97.0595 8.4148 98.8718 12.326 97.0741 15.1303C96.6099 15.8456 96.0983 16.5295 95.5426 17.1775H99.3934C99.7165 16.7179 99.9114 16.182 99.9585 15.6239C100.1 16.1309 100.184 16.652 100.211 17.1775C100.211 17.1775 110.729 18.521 108.015 8.12777C108.194 8.11888 108.369 8.06639 108.523 7.9749C108.933 7.72997 109.157 7.21196 109.196 6.68632C109.297 6.71321 109.398 6.74004 109.499 6.7668C110.223 6.96046 110.975 7.2114 111.471 7.76793C112.311 8.70851 112.134 10.1361 112.439 11.3551C112.807 12.8252 113.907 14.0142 115.128 14.9236C116.441 15.9008 117.974 16.6431 119.609 16.7972C121.243 16.9513 122.982 16.4587 124.114 15.2806C125.246 14.1025 125.641 12.2046 124.856 10.7753Z" fill="#2F2E41"/>
</g>
<defs>
<clipPath id="clip0_239_110">
<rect width="150" height="114" fill="white"/>
</clipPath>
</defs>
</svg>
