<svg width="128" height="122" viewBox="0 0 128 122" fill="none" xmlns="http://www.w3.org/2000/svg">
<g clip-path="url(#clip0_239_176)">
<path d="M121.712 28.9651C121.774 28.8732 123.323 30.4373 124.732 30.1154C126.487 29.7144 127.77 26.4446 126.819 25.0461C126.189 24.1205 124.623 24.077 124.655 23.9034C124.69 23.7177 126.376 24.3403 127.293 23.5966C128.407 22.6932 128.174 19.9455 126.811 18.5043C126.538 18.216 126.085 17.737 125.435 17.6991C124.157 17.6245 123.154 19.3119 122.713 20.0535C121.312 22.4114 121.197 24.8852 121.024 24.8621C120.864 24.8407 121.288 22.7705 120.519 22.3466C120.351 22.2538 120.15 22.2551 119.951 22.3012C120.002 22.1706 120.038 22.0361 120.056 21.8978C120.172 21.026 119.481 20.0991 118.665 19.3222C119.515 19.8272 120.476 20.1773 121.325 19.9268C123.224 19.3673 124.487 15.8364 123.489 13.6688C122.792 12.1549 121.014 11.355 121.073 11.2684C121.135 11.1765 122.684 12.7406 124.093 12.4187C125.848 12.0178 127.132 8.74797 126.18 7.34941C125.55 6.42383 123.984 6.38032 124.016 6.20673C124.051 6.02098 125.737 6.64363 126.654 5.89994C127.768 4.99648 127.535 2.24882 126.172 0.807635C125.9 0.519272 125.447 0.0403156 124.796 0.00238984C123.518 -0.0721243 122.515 1.6152 122.074 2.35685C120.673 4.71476 120.558 7.18858 120.385 7.16541C120.225 7.14399 120.65 5.0738 119.88 4.64994C119.399 4.38452 118.658 4.87964 118.428 5.03341C115.898 6.72438 116.599 10.4013 114.261 14.3131C113.509 15.5726 112.759 16.3248 112.126 16.8937C111.837 13.3912 112.902 10.7026 111.289 8.66606C111.117 8.44889 110.563 7.74966 110.024 7.85405C109.162 8.02075 108.933 10.1217 108.774 10.0929C108.602 10.0618 109.25 7.67188 108.637 4.99628C108.444 4.15471 108.005 2.24006 106.766 1.91778C106.136 1.75369 105.558 2.07016 105.21 2.26069C103.472 3.21294 102.41 5.75646 103.194 6.95918C103.84 7.94923 105.635 7.87538 105.611 8.0629C105.589 8.23816 104.085 7.79751 103.202 8.48463C101.869 9.52288 102.091 13.0301 103.638 13.9518C104.881 14.6917 106.833 13.6797 106.864 13.7863C106.894 13.8868 104.957 14.1011 103.831 15.3275C103.363 15.8365 103.043 16.5135 102.861 17.245C101.327 17.3607 100.014 18.4633 99.9652 18.3783C99.9096 18.2823 101.986 17.5605 102.308 16.1476C102.709 14.3874 100.329 11.809 98.6598 12.0626C97.5552 12.2305 96.8368 13.6275 96.695 13.5227C96.5433 13.4106 97.8337 12.157 97.5633 11.0056C97.2349 9.60682 94.6659 8.62562 92.7803 9.23254C92.403 9.35398 91.7763 9.55567 91.4602 10.1272C90.8391 11.2498 91.9197 12.8882 92.3947 13.6084C93.9048 15.898 96.0771 17.0746 95.9813 17.2209C95.8927 17.3561 94.2173 16.0746 93.5029 16.5861C93.0556 16.9063 93.1791 17.7907 93.2174 18.0654C93.639 21.0858 97.2459 22.0466 99.746 25.8559C101.782 28.9578 100.913 30.6414 102.638 31.4821C103.378 31.8431 104.321 31.9129 105.285 31.7391L105.285 31.7391C104.539 36.7487 104.328 45.316 104.328 45.316C104.118 53.8857 103.02 60.9432 102.539 60.9296C102.272 60.9215 102.37 58.7628 101.561 55.2915C100.994 52.8577 100.726 52.9699 99.2523 48.6274C96.9138 41.7389 95.7447 38.2958 95.7423 38.277C95.7299 38.1273 95.7094 37.825 95.624 37.5192C97.3548 37.0334 99.0356 35.7888 99.6194 34.0421C100.087 32.6448 99.9638 30.5691 98.8276 29.8213C98.0946 29.3388 96.9626 29.561 95.9108 29.9616C96.733 29.4125 97.464 28.6961 97.6076 27.8194C97.9283 25.8608 95.3044 23.1878 92.9246 23.1498C91.2625 23.1233 89.7731 24.3831 89.7207 24.2925C89.6651 24.1965 91.7418 23.4747 92.0636 22.0618C92.4646 20.3016 90.0842 17.7232 88.4153 17.9768C87.3107 18.1447 86.5924 19.5417 86.4505 19.4369C86.2988 19.3249 87.5892 18.0712 87.3188 16.9198C86.9904 15.521 84.4214 14.5398 82.5358 15.1467C82.1585 15.2682 81.5319 15.4699 81.2157 16.0414C80.5946 17.164 81.6752 18.8024 82.1502 19.5226C83.6603 21.8122 85.8326 22.9889 85.7368 23.1351C85.6482 23.2703 83.9728 21.9889 83.2584 22.5003C82.8111 22.8206 82.9346 23.7049 82.9729 23.9796C83.3945 27 87.0014 27.9608 89.5015 31.7701C91.5373 34.872 90.6686 36.5556 92.3934 37.3964C92.6918 37.5418 93.0238 37.6387 93.3761 37.693L93.3762 37.6946C93.528 40.0631 97.7813 46.4279 100.149 55.4776C101.328 59.9862 101.973 62.4458 101.509 65.8709C101.05 69.2664 99.776 71.5582 99.7991 73.0713C99.8009 73.2128 99.8132 73.3434 99.8393 73.4697L106.83 72.5492C106.877 72.4133 106.914 72.2738 106.943 72.1306C107.476 69.5544 105.533 65.6389 106.52 59.3241C107.253 54.6382 109.262 50.784 110.198 48.9883C111.349 46.7801 112.708 44.7029 114.176 41.4774C115.118 41.998 116.187 42.2744 117.247 42.1407C118.705 41.9569 120.516 40.9458 120.695 39.5945C120.811 38.7227 120.12 37.7958 119.304 37.0189C120.154 37.5238 121.114 37.874 121.964 37.6235C123.863 37.064 125.126 33.533 124.128 31.3655C123.431 29.8516 121.653 29.0517 121.712 28.9651L121.712 28.9651ZM93.269 31.274C93.2639 31.2639 93.3369 31.232 93.4641 31.1803C93.3442 31.2477 93.2742 31.2842 93.269 31.274ZM116.51 17.6391C116.397 17.56 116.334 17.5125 116.341 17.5034C116.348 17.4944 116.408 17.5466 116.51 17.6391ZM109.259 21.2542C109.384 21.1974 109.458 21.1663 109.462 21.177C109.465 21.1878 109.391 21.2136 109.259 21.2542ZM103.514 25.3598C103.508 25.3497 103.581 25.3178 103.709 25.266C103.589 25.3335 103.519 25.37 103.514 25.3598ZM105.525 43.4765C105.357 43.4385 107.399 35.1545 107.733 30.7564C108.702 30.1191 109.498 29.2218 109.864 28.1279C109.87 28.1089 109.876 28.0893 109.882 28.07C110.076 28.0431 110.269 28.0065 110.46 27.9613C109.777 29.6944 109.395 30.9528 109.395 30.9528C107.621 36.8162 105.678 43.5116 105.525 43.4765ZM113.145 40.772C112.584 41.6339 111.928 42.6935 111.024 44.3143C108.705 48.4665 107.546 50.5413 107.241 52.0207C107.161 52.4157 106.739 54.5521 105.771 57.2602C105.277 58.6421 105.029 59.333 104.841 59.3049C104.308 59.2237 104.299 53.7729 105.774 48.1291C106.027 47.1684 106.228 46.5484 106.612 45.3758C107.233 43.463 110.697 32.831 113.422 26.3811L113.423 26.3802C113.926 25.8963 114.302 25.3428 114.487 24.7601C114.546 24.5741 114.579 24.402 114.593 24.2383C115.244 24.4461 115.928 24.5298 116.608 24.444C116.989 24.396 117.393 24.2912 117.787 24.1392C116.699 26.0736 116.716 28.9705 114.9 32.0098C112.997 35.1952 111.108 35.1402 111.1 37.0638C111.096 38.3413 111.925 39.7545 113.146 40.7707L113.145 40.772H113.145ZM116.98 35.2001C116.986 35.1911 117.047 35.2433 117.148 35.3358C117.036 35.2567 116.973 35.2092 116.98 35.2001Z" fill="#F2F2F2"/>
<path d="M43.8699 26.9165C44.9373 26.7381 46.0989 28.0458 46.5841 28.592C47.8794 30.0503 48.1498 31.7467 48.2544 32.4667C49.9048 43.8298 50.7301 49.5114 47.3148 52.1541C44.0691 54.6655 38.1363 53.992 36.98 51.7352C36.5295 50.856 36.9061 49.9363 37.5019 48.1747C38.6031 44.9189 39.2521 41.5256 40.2161 38.2263C42.4174 30.6928 42.2326 27.1902 43.8699 26.9165Z" fill="#2F2E41"/>
<path d="M14.7444 69.3281L9.54995 79.1629C8.22396 81.6735 1.9495 120.347 4.73979 120.834L16.8262 121.236L21.8411 121.5L26.9957 121.575L39.7725 122L32.5955 71.632L14.7444 69.3281Z" fill="#2F2E41"/>
<path d="M27.5324 40.4778L37.8673 40.8966L38.7024 44.3524L41.1912 46.3891C42.1063 47.138 42.5552 48.3186 42.3696 49.4885L41.2079 56.8141C41.2079 56.8141 43.4001 62.0501 37.8673 65.4011L32.3345 74.4071L13.1263 72.4174C13.1263 72.4174 11.3516 72.2079 12.6043 70.9513C13.857 69.6947 15.4229 63.5162 15.4229 63.5162C15.4229 63.5162 15.2141 60.7935 15.9449 60.0604C16.6756 59.3274 16.1668 57.4424 16.1668 57.4424L19.1392 46.4208C19.7183 44.2731 21.6609 42.7816 23.8788 42.7816H27.1749L27.5324 40.4778L27.5324 40.4778Z" fill="#00BF75"/>
<path d="M107.035 110.951L16.7774 86.7526C14.8491 86.2355 13.5054 84.6793 13.2706 82.6909C13.0358 80.7025 13.9799 78.8743 15.7345 77.9198L52.4148 57.9642C53.3417 57.4597 54.4257 57.2765 55.4661 57.4489L116.094 67.4749C117.388 67.689 118.51 68.4045 119.252 69.4893C119.994 70.5742 120.257 71.8812 119.99 73.1698L112.94 107.297C112.671 108.6 111.901 109.702 110.773 110.4C110.007 110.874 109.151 111.116 108.28 111.116C107.866 111.116 107.448 111.061 107.035 110.951Z" fill="white"/>
<path d="M107.035 110.951L16.7774 86.7526C14.8491 86.2355 13.5054 84.6793 13.2706 82.6909C13.0358 80.7025 13.9799 78.8743 15.7345 77.9198L52.4148 57.9642C53.3417 57.4597 54.4257 57.2765 55.4661 57.4489L116.094 67.4749C117.388 67.689 118.51 68.4045 119.252 69.4893C119.994 70.5742 120.257 71.8812 119.99 73.1698L112.94 107.297C112.671 108.6 111.901 109.702 110.773 110.4C110.007 110.874 109.151 111.116 108.28 111.116C107.866 111.116 107.448 111.061 107.035 110.951ZM116.013 67.9681L55.385 57.9419C54.4531 57.7875 53.4826 57.9516 52.6522 58.4033L15.972 78.3589C14.4005 79.2138 13.5549 80.8512 13.7652 82.632C13.9755 84.4129 15.179 85.8068 16.906 86.2698L107.164 110.468C108.311 110.775 109.5 110.6 110.511 109.975C111.522 109.349 112.212 108.362 112.453 107.196L119.503 73.0683C119.741 71.9144 119.506 70.7437 118.841 69.772C118.176 68.8003 117.172 68.1597 116.013 67.9681L116.053 67.7215L116.013 67.9681Z" fill="#CCCCCC"/>
<path d="M102.9 77.3629L94.8509 97.7377C94.0706 99.713 91.8798 100.724 89.8769 100.032L30.7139 79.6122C27.4472 78.4847 27.0822 73.9964 30.1236 72.3527L49.1634 62.0629C49.9917 61.6152 50.9519 61.4778 51.872 61.6752L100.044 72.0103C102.442 72.5246 103.803 75.0767 102.9 77.3629Z" fill="#F2F2F2"/>
<path d="M87.4015 80.7426C89.2465 80.7426 90.7421 79.9925 90.7421 79.0671C90.7421 78.1417 89.2465 77.3916 87.4015 77.3916C85.5566 77.3916 84.061 78.1417 84.061 79.0671C84.061 79.9925 85.5566 80.7426 87.4015 80.7426Z" fill="#FF6884"/>
<path d="M84.2698 85.8739C86.1147 85.8739 87.6103 85.1237 87.6103 84.1984C87.6103 83.273 86.1147 82.5229 84.2698 82.5229C82.4248 82.5229 80.9292 83.273 80.9292 84.1984C80.9292 85.1237 82.4248 85.8739 84.2698 85.8739Z" fill="#3F3D56"/>
<path d="M66.3143 81.8422C71.3302 81.8422 75.3964 79.8027 75.3964 77.2869C75.3964 74.771 71.3302 72.7315 66.3143 72.7315C61.2983 72.7315 57.2321 74.771 57.2321 77.2869C57.2321 79.8027 61.2983 81.8422 66.3143 81.8422Z" fill="#00BF75"/>
<path d="M50.551 77.0775C50.6799 77.0775 50.8007 76.997 50.8462 76.8682C50.9039 76.7047 50.8186 76.5251 50.6556 76.4671L44.0283 74.1109C43.8657 74.0531 43.6864 74.1385 43.6285 74.3021C43.5708 74.4657 43.6561 74.6452 43.8191 74.7032L50.4464 77.0594C50.481 77.0717 50.5162 77.0775 50.551 77.0775V77.0775Z" fill="#3F3D56"/>
<path d="M52.0125 75.9256C52.1414 75.9256 52.2622 75.8451 52.3077 75.7163C52.3654 75.5527 52.2801 75.3732 52.1171 75.3152L45.4898 72.959C45.3272 72.9012 45.1479 72.9866 45.09 73.1502C45.0323 73.3137 45.1176 73.4933 45.2806 73.5513L51.9079 75.9075C51.9425 75.9198 51.9777 75.9256 52.0125 75.9256Z" fill="#3F3D56"/>
<path d="M53.474 74.7737C53.6028 74.7737 53.7237 74.6932 53.7692 74.5643C53.8269 74.4008 53.7416 74.2212 53.5786 74.1633L46.9513 71.8071C46.7886 71.7494 46.6093 71.8347 46.5515 71.9983C46.4938 72.1618 46.5791 72.3414 46.7421 72.3994L53.3694 74.7556C53.4039 74.7678 53.4392 74.7737 53.474 74.7737V74.7737Z" fill="#3F3D56"/>
<path d="M54.9355 73.6218C55.0643 73.6218 55.1851 73.5413 55.2307 73.4124C55.2884 73.2489 55.2031 73.0693 55.0401 73.0113L48.4128 70.6551C48.2502 70.5974 48.0708 70.6827 48.013 70.8464C47.9553 71.0099 48.0406 71.1895 48.2036 71.2475L54.8309 73.6037C54.8654 73.6159 54.9007 73.6218 54.9355 73.6218Z" fill="#3F3D56"/>
<path d="M56.397 72.4698C56.5258 72.4698 56.6467 72.3894 56.6922 72.2605C56.7499 72.097 56.6646 71.9174 56.5016 71.8594L49.8743 69.5032C49.7117 69.4454 49.5324 69.5308 49.4745 69.6945C49.4168 69.858 49.5021 70.0376 49.6651 70.0955L56.2924 72.4517C56.3269 72.464 56.3622 72.4698 56.397 72.4698V72.4698Z" fill="#3F3D56"/>
<path d="M57.8585 71.3179C57.9873 71.3179 58.1081 71.2374 58.1537 71.1086C58.2114 70.9451 58.1261 70.7655 57.9631 70.7075L51.3358 68.3513C51.1731 68.2936 50.9938 68.3789 50.9359 68.5425C50.8782 68.706 50.9636 68.8856 51.1266 68.9436L57.7539 71.2998C57.7884 71.3121 57.8237 71.3179 57.8585 71.3179Z" fill="#3F3D56"/>
<path d="M59.32 70.166C59.4488 70.166 59.5696 70.0855 59.6152 69.9567C59.6729 69.7931 59.5876 69.6136 59.4246 69.5556L52.7973 67.1994C52.6346 67.1416 52.4554 67.227 52.3974 67.3906C52.3397 67.5541 52.4251 67.7337 52.5881 67.7917L59.2154 70.1479C59.2499 70.1602 59.2852 70.166 59.32 70.166V70.166Z" fill="#3F3D56"/>
<path d="M36.98 43.8812C41.7076 43.8812 45.5402 40.0366 45.5402 35.2941C45.5402 30.5516 41.7076 26.7071 36.98 26.7071C32.2523 26.7071 28.4198 30.5516 28.4198 35.2941C28.4198 40.0366 32.2523 43.8812 36.98 43.8812Z" fill="#A0616A"/>
<path d="M38.7546 22.5183C36.3445 22.1242 35.0503 21.9125 33.7438 22.2041C31.1266 22.7882 29.6085 25.1353 28.5242 26.8118C25.9312 30.8207 27.1035 32.5056 24.5573 38.1216C22.7307 42.1502 21.8098 41.9837 21.6343 44.0906C21.2659 48.5132 25.0162 52.9372 29.0461 54.6673C29.3153 54.7829 33.5033 56.5409 34.6833 55.0862C35.5484 54.0198 34.0203 52.1843 32.1779 47.2322C28.9384 38.5247 30.4692 35.6145 30.9252 34.8752C31.2133 34.4082 32.0352 33.2473 32.4911 33.4092C32.9036 33.5556 32.5465 34.6181 32.9087 35.5036C33.8789 37.8758 39.7763 38.4025 44.3918 36.5508C45.753 36.0047 46.5882 35.6696 47.2104 34.7705C49.3218 31.72 46.8012 25.3273 42.826 23.4607C41.9216 23.0361 40.8659 22.8635 38.7546 22.5183L38.7546 22.5183Z" fill="#2F2E41"/>
<path d="M32.6342 73.68C34.7162 74.7393 35.8589 76.6756 35.1866 78.0046C34.5144 79.3336 32.282 79.5519 30.1994 78.4919C29.3618 78.08 28.6346 77.4727 28.0788 76.7211L19.3141 72.121L21.5537 68.041L29.9564 73.0091C30.8896 73.015 31.8079 73.245 32.6342 73.68Z" fill="#A0616A"/>
<path d="M73.6266 67.7612C75.8197 68.5636 77.1847 70.3491 76.6754 71.7492C76.1661 73.1492 73.9757 73.6333 71.7819 72.8303C70.9012 72.5216 70.107 72.0058 69.4657 71.3261L60.2162 67.8085L61.9542 63.4896L70.8881 67.4158C71.8153 67.3099 72.7543 67.4283 73.6266 67.7612H73.6266Z" fill="#A0616A"/>
<path d="M22.6782 44.9284C22.6782 44.9284 20.9035 41.2632 16.8322 44.0906C12.7609 46.918 3.05241 58.6467 3.05241 58.6467C3.05241 58.6467 -1.95843 63.0449 0.860167 64.6157C3.67876 66.1865 23.9309 75.2972 23.9309 75.2972L29.0461 71.7367L10.8818 62.4166L21.3158 54.5626L22.6782 44.9284H22.6782Z" fill="#00BF75"/>
<path d="M40.4249 47.1275C40.4249 47.1275 41.667 45.3472 43.8645 47.1275C46.0621 48.9077 52.3869 59.1584 52.3869 59.1584L67.9846 65.5582L65.6879 70.2706L47.0017 63.5685L38.859 52.4682L40.4249 47.1275Z" fill="#00BF75"/>
<path d="M39.4332 43.9335C37.0658 45.1462 38.1551 47.008 38.0761 47.3893C37.3067 51.1017 40.1193 54.947 41.2079 54.7197C41.8465 54.5863 42.1822 52.9907 42.043 51.7875C41.8625 50.2278 43.3579 47.7589 43.1913 46.6562C42.7828 43.951 45.2478 43.9003 44.7572 42.8863C44.4697 42.292 40.844 43.2109 39.4332 43.9335H39.4332Z" fill="#2F2E41"/>
<path d="M66.8755 82.0831C66.8853 82.0831 66.8952 82.0826 66.905 82.0813C67.0417 82.0652 67.1393 81.9409 67.1231 81.8038L66.5616 77.0481C66.5539 76.9822 66.5203 76.9222 66.4683 76.8812C66.4163 76.8403 66.3505 76.8219 66.2845 76.8295L57.3671 77.9053C57.2306 77.9217 57.1332 78.0461 57.1496 78.1831C57.1661 78.3202 57.2902 78.4186 57.4266 78.4014L66.0963 77.3555L66.6284 81.8627C66.6434 81.9897 66.751 82.0831 66.8755 82.0831V82.0831Z" fill="white"/>
<path d="M20.956 86.6764C23.5235 86.6764 25.6049 84.5884 25.6049 82.0129C25.6049 79.4373 23.5235 77.3494 20.956 77.3494C18.3885 77.3494 16.3071 79.4373 16.3071 82.0129C16.3071 84.5884 18.3885 86.6764 20.956 86.6764Z" fill="#00BF75"/>
<path d="M18.8438 81.2855L20.338 83.9215C20.427 84.0784 20.6823 84.0898 20.7681 83.9215C21.3517 82.7784 22.1759 81.7662 23.1919 80.982C23.2993 80.8991 23.3538 80.768 23.2813 80.6402C23.2212 80.5343 23.0469 80.4684 22.9405 80.5505C21.8554 81.3882 20.9629 82.4453 20.3381 83.6693H20.7681L19.2739 81.0333C19.1155 80.7538 18.685 81.0053 18.8438 81.2855L18.8438 81.2855Z" fill="white"/>
</g>
<defs>
<clipPath id="clip0_239_176">
<rect width="128" height="122" fill="white"/>
</clipPath>
</defs>
</svg>
