<svg width="214" height="228" viewBox="0 0 214 228" fill="none" xmlns="http://www.w3.org/2000/svg">
<g clip-path="url(#clip0_301_510)">
<path d="M57.6583 152.247L55.9101 165.841C41.2028 162.911 27.1877 165.985 24.2566 180.688L17.1645 179.275C18.9586 170.328 24.2296 162.457 31.8211 157.39C39.4125 152.323 48.7044 150.474 57.6583 152.247Z" fill="#F95426"/>
<path d="M113.54 98.0516C119.993 102.226 128.843 102.345 135.406 98.3456C135.669 97.0872 135.931 95.8287 136.194 94.5702C137.741 96.1768 140.784 95.8736 141.983 93.9932C135.708 80.6141 126.497 68.821 115.035 59.4906C118.346 61.5498 123.126 60.7751 125.617 57.7757C129.363 56.5111 132.909 54.7206 136.151 52.4581C125.035 34.6032 103.838 20.4187 98.8 0C83.6429 16.2726 81.9414 22.0037 66.7843 38.2764C66.7843 38.2764 52.4323 51.2236 49.3345 58.1817C50.0957 58.981 56.91 60.8991 57.172 62.4707C59.7792 62.662 62.3971 62.2897 64.8474 61.3789C67.2978 60.4681 69.5231 59.0403 71.372 57.1926C61.6297 67.5438 51.721 78.1372 45.7547 91.0382C45.2174 92.1999 44.7072 93.5265 45.1573 94.7247C45.5166 95.6813 46.8057 96.2328 47.636 95.8527C46.6442 96.8091 45.8478 97.9491 45.2913 99.2093C48.684 101.502 53.6873 100.998 56.5547 98.0752C55.7237 99.6273 54.8926 101.179 54.0616 102.732C56.8935 103.764 59.9011 104.228 62.9125 104.098C65.924 103.968 68.8802 103.246 71.6124 101.973C65.0297 106.101 48.5698 120.415 44.9843 127.308C43.3601 130.43 60.0379 134.194 63.7891 134.039C67.5403 133.885 71.0467 132.237 74.4348 130.62C74.2697 132.164 74.5652 133.723 75.2841 135.1C77.1395 135.55 79.0663 135.625 80.9511 135.321C82.8359 135.016 84.6409 134.338 86.2599 133.326C86.0577 137.503 93.2588 139.156 94.8996 135.31C94.284 137.571 97.2772 138.971 99.5853 139.381C106.171 140.549 114.119 141.26 118.404 136.126C123.336 141.098 132.375 141.004 137.279 136.049C136.796 136.904 137.535 138.342 138.628 138.569C139.915 138.836 141.168 138.071 142.262 137.34C147.211 134.032 152.161 130.724 157.11 127.416C142.587 117.628 128.063 107.84 113.54 98.0516Z" fill="#F1F2F2"/>
<path d="M96.8666 126.859H90.3032V180.992H96.8666V126.859Z" fill="#F1F2F2"/>
<path d="M103.056 105.837C102.857 106.481 102.587 107.101 102.252 107.686C101.644 108.744 100.828 109.667 99.8531 110.4C99.5248 110.645 99.1807 110.868 98.8232 111.068C97.2506 111.953 95.4501 112.351 93.6509 112.209C93.3271 112.184 93.0051 112.139 92.6867 112.075C92.3434 112.013 92.0042 111.93 91.6712 111.825C90.5817 111.49 89.5651 110.952 88.6744 110.24C88.4191 110.038 88.1758 109.821 87.9457 109.59C86.2987 107.951 85.3392 105.745 85.263 103.422C85.2517 103.09 85.2598 102.756 85.2872 102.425C85.307 102.169 85.3383 101.914 85.3815 101.657C85.4497 101.247 85.5454 100.842 85.668 100.444C85.9337 99.5838 86.3256 98.7674 86.8311 98.0219C86.9322 97.8705 87.04 97.7245 87.1507 97.5794C90.2214 93.6005 95.0039 96.9963 99.9171 95.9335C104.543 94.9329 104.587 97.2405 103.059 100.469C103.6 102.218 103.6 104.089 103.056 105.837Z" fill="white"/>
<path opacity="0.1" d="M87.1515 97.5928L85.2638 103.436C85.2525 103.103 85.2606 102.77 85.2879 102.438C85.3078 102.182 85.339 101.927 85.3822 101.671L86.8363 98.0367C86.9404 97.8813 87.0407 97.7379 87.1515 97.5928Z" fill="black"/>
<path opacity="0.1" d="M97.9621 98.8775L93.6526 112.22C93.3288 112.194 93.0068 112.15 92.6884 112.086L97.9621 98.8775Z" fill="black"/>
<path opacity="0.1" d="M103.066 100.457L103.061 100.472L99.8507 110.407C99.5224 110.652 99.1784 110.876 98.8208 111.076L103.055 100.466L103.066 100.457Z" fill="black"/>
<path d="M105.981 125.163C104.727 129.237 102.031 132.715 98.3974 134.945C97.9183 135.238 97.4294 135.509 96.927 135.755C94.3517 137.026 91.5039 137.645 88.6334 137.558C88.1612 137.547 87.685 137.511 87.2119 137.455C84.8284 137.188 82.5242 136.439 80.4395 135.253C80.0302 135.023 79.6334 134.773 79.2488 134.511C76.9401 132.938 75.04 130.838 73.7064 128.383C73.4538 127.928 73.2243 127.458 73.0175 126.977C69.1338 118.063 82.2043 107.691 82.13 103.807C82.0557 99.9225 101.423 104.003 105.307 112.917C106.992 116.786 107.232 121.132 105.981 125.163Z" fill="#F95426"/>
<path opacity="0.1" d="M88.5609 109.841L80.4316 135.257C80.0223 135.027 79.6255 134.778 79.2409 134.515L88.5609 109.841Z" fill="black"/>
<path opacity="0.1" d="M96.6882 112.356L88.6251 137.563C88.1529 137.552 87.6767 137.517 87.2035 137.461L96.6882 112.356Z" fill="black"/>
<path d="M87.6945 124.688C103.113 130.23 113.011 139.408 105.559 159.305C100.176 173.678 85.6641 182.239 71.2592 177.782C56.8544 173.325 49.7134 158.065 53.3945 143.166C59.1094 120.034 73.2411 119.493 87.6945 124.688Z" fill="#E6E6E6"/>
<path d="M99.9246 189.55C97.6674 196.885 92.746 203.111 86.1286 207.001C85.4092 207.429 84.6708 207.826 83.9135 208.192C81.4005 209.413 78.7335 210.287 75.9853 210.792C75.2414 210.93 74.4898 211.04 73.7307 211.121C71.4789 211.363 69.2072 211.355 66.9572 211.097C66.2323 211.014 65.508 210.905 64.7842 210.769C63.6123 210.548 62.4541 210.259 61.3157 209.904C60.4235 209.628 59.5544 209.317 58.7084 208.969C58.034 208.692 57.373 208.392 56.7271 208.075C54.7593 207.103 52.9023 205.922 51.1883 204.551C50.6132 204.098 50.0568 203.624 49.5189 203.128C47.6357 201.393 45.9768 199.428 44.5808 197.281C44.1591 196.637 30.416 191.243 30.0467 190.569C25.9957 183.238 38.4592 179.307 40.9464 171.309C41.2226 170.417 41.5345 169.548 41.8822 168.701C51.2112 135.102 64.0547 148.469 79.5553 150.955C97.0092 153.754 109.421 157.423 100.617 186.873C100.43 187.765 100.2 188.658 99.9246 189.55Z" fill="#F95426"/>
<path opacity="0.1" d="M55.2488 163.93L44.5857 197.276C44.164 196.632 43.7684 195.973 43.3991 195.298L55.2488 163.93Z" fill="black"/>
<path opacity="0.1" d="M63.3761 166.445L51.1879 204.553C50.6131 204.099 50.0568 203.624 49.5189 203.128L63.3761 166.445Z" fill="black"/>
<path opacity="0.1" d="M58.707 208.969L71.5044 168.956L56.7271 208.075L58.707 208.969Z" fill="black"/>
<path opacity="0.1" d="M66.9605 211.091L79.6302 171.47L64.7875 210.763L66.9605 211.091Z" fill="black"/>
<path opacity="0.1" d="M87.7567 173.988L75.9878 210.789C75.2438 210.928 74.4922 211.037 73.7331 211.118L87.7567 173.988Z" fill="black"/>
<path opacity="0.1" d="M95.884 176.502L86.1311 206.999C85.4116 207.426 84.6732 207.823 83.9159 208.189L95.884 176.502Z" fill="black"/>
<path d="M99.8585 140.252C98.6407 144.17 95.981 147.479 92.4168 149.511C88.8526 151.543 84.6496 152.147 80.6572 151.201C76.6647 150.254 73.1805 147.828 70.9085 144.412C68.6364 140.997 67.746 136.846 68.4172 132.799C69.0883 128.752 71.271 125.111 74.5241 122.611C77.7772 120.111 81.8582 118.939 85.9426 119.331C90.0269 119.724 93.81 121.651 96.5274 124.725C99.2449 127.798 100.694 131.788 100.582 135.889C100.542 137.37 100.298 138.838 99.8585 140.252Z" fill="#FFAB9E"/>
<path d="M74.9649 115.573L106.428 125.307C107.782 125.726 108.458 127.428 107.938 129.108C109.261 131.936 110.064 134.774 105.27 137.727C104.749 139.408 103.23 140.43 101.876 140.011C93.4462 130.872 83.2772 126.714 70.4133 130.277C69.0593 129.858 68.3832 128.156 68.9034 126.476C67.3112 121.222 67.8374 118.001 71.5714 117.857C72.0916 116.177 73.6109 115.154 74.9649 115.573Z" fill="#CCCCCC"/>
<path d="M96.8404 162.715C95.3228 167.618 92.0225 168.719 87.8966 169.468C87.4487 169.548 86.9917 169.626 86.5256 169.702C85.0628 169.946 83.5174 170.19 81.9254 170.574C81.3772 170.707 80.8229 170.855 80.2647 171.026C78.5938 171.528 76.9904 172.232 75.49 173.121C74.6148 173.645 73.7802 174.233 72.9933 174.881L72.9908 174.884C72.6068 175.199 72.2256 175.532 71.844 175.893C61.6026 185.562 55.3998 161.443 58.6625 150.903C59.4382 148.397 60.7002 146.068 62.3762 144.05C64.0523 142.031 66.1096 140.362 68.4307 139.139C70.7518 137.915 73.2913 137.16 75.9042 136.918C78.5171 136.675 81.1521 136.95 83.6589 137.725C86.1657 138.501 88.4952 139.762 90.5143 141.438C92.5334 143.113 94.2026 145.17 95.4266 147.491C96.6506 149.811 97.4055 152.35 97.6481 154.962C97.8906 157.574 97.6162 160.209 96.8404 162.715Z" fill="#EEEFF0"/>
<path opacity="0.1" d="M100.041 189.173C99.3345 191.463 98.3634 193.664 97.1475 195.73L39.7634 177.976C39.9273 175.584 40.3691 173.22 41.08 170.931C41.3561 170.039 41.6682 169.169 42.0162 168.322L100.745 186.491C100.551 187.386 100.317 188.28 100.041 189.173Z" fill="black"/>
<path opacity="0.1" d="M99.8074 189.928C99.1004 192.219 98.1292 194.42 96.9132 196.487L39.5291 178.733C39.6932 176.341 40.1352 173.976 40.8462 171.686C41.1223 170.794 41.4344 169.925 41.7824 169.077L100.511 187.247C100.317 188.141 100.083 189.035 99.8074 189.928Z" fill="black"/>
<path d="M99.9245 189.55C99.2177 191.841 98.2464 194.042 97.0303 196.108L39.6462 178.354C39.8103 175.962 40.2523 173.598 40.9633 171.308C41.2394 170.416 41.5513 169.547 41.899 168.7C63.4233 171.259 83.9731 175.568 100.627 186.87C100.434 187.764 100.2 188.658 99.9245 189.55Z" fill="#373E46"/>
<path opacity="0.1" d="M76.4117 184.553C77.5423 180.9 75.4972 177.023 71.844 175.893C68.1907 174.763 64.3126 176.807 63.1821 180.459C62.0515 184.112 64.0965 187.989 67.7498 189.119C71.4031 190.249 75.2811 188.205 76.4117 184.553Z" fill="black"/>
<path d="M76.0332 184.435C77.0991 180.992 75.1711 177.337 71.7268 176.271C68.2826 175.206 64.6264 177.133 63.5605 180.577C62.4947 184.02 64.4227 187.675 67.8669 188.741C71.3112 189.806 74.9673 187.879 76.0332 184.435Z" fill="#EEEFF0"/>
<path d="M74.7114 184.027C75.5514 181.313 74.032 178.433 71.3178 177.593C68.6036 176.753 65.7223 178.272 64.8823 180.986C64.0423 183.699 65.5617 186.58 68.276 187.419C70.9902 188.259 73.8715 186.74 74.7114 184.027Z" fill="#373E46"/>
<path opacity="0.1" d="M67.7909 144.824L60.6071 167.069C60.2528 166.478 59.9292 165.869 59.6377 165.245L67.7909 144.824Z" fill="black"/>
<path opacity="0.1" d="M72.8933 146.403L64.6585 171.904C64.1661 171.481 63.6965 171.031 63.2518 170.558L72.8933 146.403Z" fill="black"/>
<path opacity="0.1" d="M77.9971 147.982L69.2998 174.908C68.7188 174.64 68.1518 174.342 67.601 174.016L77.9971 147.982Z" fill="black"/>
<path opacity="0.1" d="M83.0994 149.56L75.49 173.121C74.6148 173.645 73.7802 174.233 72.9933 174.881L83.0994 149.56Z" fill="black"/>
<path opacity="0.1" d="M88.2032 151.139L81.9254 170.574C81.3772 170.707 80.8229 170.855 80.2647 171.026L88.2032 151.139Z" fill="black"/>
<path opacity="0.1" d="M93.3055 152.718L87.8966 169.468C87.4487 169.548 86.9917 169.626 86.5256 169.702L93.3055 152.718Z" fill="black"/>
<path opacity="0.1" d="M83.4554 126.095L85.7453 118.937L83.0844 125.98L83.4554 126.095Z" fill="black"/>
<path opacity="0.1" d="M93.8711 121.451L91.5812 128.609L91.2102 128.494L93.8711 121.451Z" fill="black"/>
<path d="M83.0426 145.949C86.4332 145.949 89.1818 143.201 89.1818 139.812C89.1818 136.422 86.4332 133.674 83.0426 133.674C79.652 133.674 76.9034 136.422 76.9034 139.812C76.9034 143.201 79.652 145.949 83.0426 145.949Z" fill="#FFAB9E"/>
<path d="M54.9913 132.999C57.4698 134.553 60.3283 135.396 63.2538 135.436C66.1794 135.475 69.0595 134.709 71.5789 133.222C71.7783 132.267 71.9777 131.313 72.1771 130.358C73.3508 131.577 75.6588 131.347 76.5687 129.92C71.808 119.771 64.8205 110.825 56.1256 103.746C58.6372 105.309 62.2639 104.721 64.1533 102.446C66.9946 101.486 69.6851 100.128 72.144 98.4117C63.7115 84.867 47.6318 74.1066 43.8098 58.617C32.3117 70.9614 31.0209 75.309 19.5228 87.6534C19.5228 87.6534 8.63532 97.4752 6.28535 102.754C6.86276 103.36 12.0321 104.815 12.2309 106.007C14.2087 106.152 16.1946 105.87 18.0534 105.179C19.9123 104.488 21.6004 103.405 23.003 102.003C15.6125 109.856 8.09573 117.892 3.56971 127.678C3.16215 128.56 2.77505 129.566 3.11649 130.475C3.38909 131.201 4.367 131.619 4.99683 131.331C4.24446 132.056 3.64037 132.921 3.21817 133.877C4.53155 134.715 6.08937 135.087 7.63983 134.931C9.1903 134.774 10.6428 134.1 11.7626 133.017C11.1322 134.194 10.5018 135.372 9.87135 136.549C12.0196 137.332 14.3012 137.684 16.5857 137.586C18.8701 137.487 21.1128 136.939 23.1854 135.973C18.1917 139.105 5.7053 149.964 2.98533 155.192C1.75315 157.561 14.4049 160.416 17.2506 160.299C20.0963 160.182 22.7562 158.932 25.3264 157.705C25.2011 158.877 25.4253 160.059 25.9707 161.104C27.3782 161.445 28.8398 161.502 30.2697 161.271C31.6995 161.04 33.0687 160.526 34.297 159.758C34.1436 162.927 39.6063 164.181 40.851 161.263C40.384 162.978 42.6546 164.04 44.4056 164.351C49.4016 165.238 55.4305 165.777 58.6815 161.882C62.4231 165.654 69.2799 165.582 72.9999 161.823C72.6338 162.472 73.1942 163.563 74.0231 163.735C75 163.938 75.9504 163.357 76.7798 162.803C80.5344 160.294 84.2891 157.784 88.0438 155.275C77.0263 147.849 66.0088 140.424 54.9913 132.999Z" fill="#3F3D56"/>
<path d="M42.3431 154.852H37.3642V195.918H42.3431V154.852Z" fill="#3F3D56"/>
<path d="M192.825 162.034C176.353 200.807 137.912 228 93.1172 228C56.8334 228 24.7157 210.158 5.06779 182.767C9.0546 181.639 13.076 181.13 17.2043 181.934C27.1053 183.868 34.3275 192.971 44.1404 195.312C52.6234 197.337 61.4711 193.923 68.9762 189.485C76.4845 185.043 83.4331 179.47 91.6394 176.512C97.082 174.551 105.034 175.094 106.367 180.724C106.974 183.292 106.184 186.75 108.511 188.001C126.952 181.353 145.392 174.704 163.833 168.053C169.81 165.9 175.809 163.738 182.025 162.414C185.559 161.663 189.373 161.232 192.825 162.034Z" fill="#E6E7E8"/>
<path d="M184.005 98.0348C189.7 101.719 197.51 101.824 203.302 98.2943C203.534 97.1837 203.766 96.073 203.998 94.9623C205.364 96.3802 208.049 96.1126 209.108 94.4531C203.569 82.6454 195.44 72.2374 185.324 64.0028C188.246 65.8201 192.465 65.1364 194.664 62.4893C197.969 61.3733 201.099 59.7931 203.96 57.7963C194.149 42.0385 175.443 29.5199 170.996 11.4994C157.619 25.8608 156.118 30.9187 142.741 45.2802C142.741 45.2802 130.074 56.7068 127.34 62.8476C128.012 63.553 134.026 65.2459 134.257 66.6329C136.558 66.8018 138.869 66.4731 141.031 65.6693C143.194 64.8655 145.158 63.6054 146.789 61.9747C138.191 71.1102 129.446 80.4594 124.181 91.8451C123.707 92.8704 123.256 94.0411 123.654 95.0986C123.971 95.9429 125.108 96.4297 125.841 96.0942C124.966 96.9382 124.263 97.9443 123.772 99.0565C126.766 101.08 131.182 100.635 133.712 98.0556C132.979 99.4255 132.246 100.795 131.512 102.165C134.011 103.076 136.666 103.486 139.324 103.371C141.981 103.256 144.59 102.619 147.002 101.495C141.192 105.139 126.665 117.772 123.501 123.855C122.068 126.61 136.786 129.932 140.097 129.796C143.408 129.66 146.502 128.205 149.492 126.778C149.347 128.141 149.608 129.517 150.242 130.732C151.88 131.129 153.58 131.195 155.243 130.927C156.907 130.658 158.5 130.059 159.929 129.166C159.75 132.853 166.106 134.312 167.554 130.917C167.01 132.913 169.652 134.148 171.689 134.51C177.501 135.541 184.516 136.168 188.298 131.637C192.651 136.025 200.628 135.942 204.956 131.569C204.53 132.324 205.182 133.593 206.146 133.793C207.282 134.029 208.388 133.354 209.353 132.709C213.721 129.789 205.945 124.729 210.313 121.81C197.495 113.171 196.822 106.673 184.005 98.0348Z" fill="#3F3D56"/>
<path d="M169.29 123.459H163.497V171.234H169.29V123.459Z" fill="#3F3D56"/>
<path d="M9.90854 68.6246C10.8891 68.6246 11.6841 67.8298 11.6841 66.8495C11.6841 65.8692 10.8891 65.0744 9.90854 65.0744C8.92794 65.0744 8.13301 65.8692 8.13301 66.8495C8.13301 67.8298 8.92794 68.6246 9.90854 68.6246Z" fill="#E6E7E8"/>
<path d="M3.29228 109.697C4.27287 109.697 5.0678 108.903 5.0678 107.922C5.0678 106.942 4.27287 106.147 3.29228 106.147C2.31168 106.147 1.51675 106.942 1.51675 107.922C1.51675 108.903 2.31168 109.697 3.29228 109.697Z" fill="#E6E7E8"/>
<path d="M7.02609 139.461C8.00669 139.461 8.80162 138.666 8.80162 137.686C8.80162 136.706 8.00669 135.911 7.02609 135.911C6.04549 135.911 5.25056 136.706 5.25056 137.686C5.25056 138.666 6.04549 139.461 7.02609 139.461Z" fill="#E6E7E8"/>
<path d="M148.524 49.3455C149.505 49.3455 150.3 48.5507 150.3 47.5704C150.3 46.5901 149.505 45.7953 148.524 45.7953C147.544 45.7953 146.749 46.5901 146.749 47.5704C146.749 48.5507 147.544 49.3455 148.524 49.3455Z" fill="#E6E7E8"/>
<path d="M28.8538 118.218C29.8344 118.218 30.6293 117.423 30.6293 116.443C30.6293 115.462 29.8344 114.668 28.8538 114.668C27.8732 114.668 27.0782 115.462 27.0782 116.443C27.0782 117.423 27.8732 118.218 28.8538 118.218Z" fill="white"/>
<path d="M56.552 127.009C57.5326 127.009 58.3275 126.214 58.3275 125.234C58.3275 124.253 57.5326 123.459 56.552 123.459C55.5714 123.459 54.7765 124.253 54.7765 125.234C54.7765 126.214 55.5714 127.009 56.552 127.009Z" fill="white"/>
<path d="M157.773 92.3019C158.753 92.3019 159.548 91.5072 159.548 90.5268C159.548 89.5465 158.753 88.7518 157.773 88.7518C156.792 88.7518 155.997 89.5465 155.997 90.5268C155.997 91.5072 156.792 92.3019 157.773 92.3019Z" fill="white"/>
<path d="M166.393 59.9958C167.374 59.9958 168.169 59.2011 168.169 58.2208C168.169 57.2404 167.374 56.4457 166.393 56.4457C165.413 56.4457 164.618 57.2404 164.618 58.2208C164.618 59.2011 165.413 59.9958 166.393 59.9958Z" fill="#E6E7E8"/>
<path d="M134.32 90.5268C135.301 90.5268 136.096 89.7321 136.096 88.7518C136.096 87.7714 135.301 86.9767 134.32 86.9767C133.34 86.9767 132.545 87.7714 132.545 88.7518C132.545 89.7321 133.34 90.5268 134.32 90.5268Z" fill="white"/>
<path d="M54.7765 104.372C55.7571 104.372 56.552 103.578 56.552 102.597C56.552 101.617 55.7571 100.822 54.7765 100.822C53.7959 100.822 53.001 101.617 53.001 102.597C53.001 103.578 53.7959 104.372 54.7765 104.372Z" fill="white"/>
<path d="M58.3276 59.9958C59.3082 59.9958 60.1031 59.2011 60.1031 58.2208C60.1031 57.2404 59.3082 56.4457 58.3276 56.4457C57.347 56.4457 56.552 57.2404 56.552 58.2208C56.552 59.2011 57.347 59.9958 58.3276 59.9958Z" fill="#E6E7E8"/>
<path d="M102.63 62.1773C103.61 62.1773 104.405 61.3826 104.405 60.4023C104.405 59.4219 103.61 58.6272 102.63 58.6272C101.649 58.6272 100.854 59.4219 100.854 60.4023C100.854 61.3826 101.649 62.1773 102.63 62.1773Z" fill="#E6E7E8"/>
<path d="M114.864 111.772C115.844 111.772 116.639 110.977 116.639 109.997C116.639 109.017 115.844 108.222 114.864 108.222C113.883 108.222 113.088 109.017 113.088 109.997C113.088 110.977 113.883 111.772 114.864 111.772Z" fill="white"/>
<path d="M133.363 107.438C134.343 107.438 135.138 106.643 135.138 105.663C135.138 104.683 134.343 103.888 133.363 103.888C132.382 103.888 131.587 104.683 131.587 105.663C131.587 106.643 132.382 107.438 133.363 107.438Z" fill="#E6E7E8"/>
<path d="M146.749 141.476C147.729 141.476 148.524 140.681 148.524 139.701C148.524 138.72 147.729 137.925 146.749 137.925C145.768 137.925 144.973 138.72 144.973 139.701C144.973 140.681 145.768 141.476 146.749 141.476Z" fill="white"/>
<path d="M137.871 150.897C138.852 150.897 139.647 150.102 139.647 149.122C139.647 148.141 138.852 147.346 137.871 147.346C136.891 147.346 136.096 148.141 136.096 149.122C136.096 150.102 136.891 150.897 137.871 150.897Z" fill="#E6E7E8"/>
<path d="M93.1172 118.218C94.0978 118.218 94.8927 117.423 94.8927 116.443C94.8927 115.462 94.0978 114.668 93.1172 114.668C92.1366 114.668 91.3416 115.462 91.3416 116.443C91.3416 117.423 92.1366 118.218 93.1172 118.218Z" fill="white"/>
<path d="M166.393 113.412C167.374 113.412 168.169 112.617 168.169 111.637C168.169 110.656 167.374 109.862 166.393 109.862C165.413 109.862 164.618 110.656 164.618 111.637C164.618 112.617 165.413 113.412 166.393 113.412Z" fill="#E6E7E8"/>
<path d="M208.96 138.514C211.744 138.514 214 136.258 214 133.475C214 130.692 211.744 128.437 208.96 128.437C206.177 128.437 203.92 130.692 203.92 133.475C203.92 136.258 206.177 138.514 208.96 138.514Z" fill="#F95426"/>
<path d="M177.904 142.064C180.687 142.064 182.943 139.808 182.943 137.025C182.943 134.243 180.687 131.987 177.904 131.987C175.12 131.987 172.864 134.243 172.864 137.025C172.864 139.808 175.12 142.064 177.904 142.064Z" fill="#FF6584"/>
<path d="M122.377 132.047C125.16 132.047 127.416 129.791 127.416 127.009C127.416 124.226 125.16 121.97 122.377 121.97C119.593 121.97 117.337 124.226 117.337 127.009C117.337 129.791 119.593 132.047 122.377 132.047Z" fill="#F95426"/>
<path d="M119.404 99.1154C122.187 99.1154 124.444 96.8596 124.444 94.077C124.444 91.2943 122.187 89.0385 119.404 89.0385C116.621 89.0385 114.364 91.2943 114.364 94.077C114.364 96.8596 116.621 99.1154 119.404 99.1154Z" fill="#F95426"/>
<path d="M208.96 97.3404C211.744 97.3404 214 95.0846 214 92.3019C214 89.5192 211.744 87.2634 208.96 87.2634C206.177 87.2634 203.92 89.5192 203.92 92.3019C203.92 95.0846 206.177 97.3404 208.96 97.3404Z" fill="#F95426"/>
<path d="M203.96 62.8347C206.743 62.8347 209 60.5789 209 57.7963C209 55.0136 206.743 52.7578 203.96 52.7578C201.176 52.7578 198.92 55.0136 198.92 57.7963C198.92 60.5789 201.176 62.8347 203.96 62.8347Z" fill="#FF6584"/>
<path d="M27.0783 159.914C28.0589 159.914 28.8538 159.119 28.8538 158.139C28.8538 157.159 28.0589 156.364 27.0783 156.364C26.0977 156.364 25.3027 157.159 25.3027 158.139C25.3027 159.119 26.0977 159.914 27.0783 159.914Z" fill="white"/>
<path d="M50.7043 161.604C51.6849 161.604 52.4799 160.809 52.4799 159.829C52.4799 158.848 51.6849 158.054 50.7043 158.054C49.7237 158.054 48.9288 158.848 48.9288 159.829C48.9288 160.809 49.7237 161.604 50.7043 161.604Z" fill="white"/>
<path d="M86.0151 166.635C86.9957 166.635 87.7906 165.84 87.7906 164.86C87.7906 163.879 86.9957 163.085 86.0151 163.085C85.0345 163.085 84.2395 163.879 84.2395 164.86C84.2395 165.84 85.0345 166.635 86.0151 166.635Z" fill="white"/>
<path d="M78.5686 80.9415C79.5492 80.9415 80.3441 80.1468 80.3441 79.1665C80.3441 78.1861 79.5492 77.3914 78.5686 77.3914C77.588 77.3914 76.793 78.1861 76.793 79.1665C76.793 80.1468 77.588 80.9415 78.5686 80.9415Z" fill="white"/>
<path d="M81.7953 72.1177C82.7759 72.1177 83.5709 71.3229 83.5709 70.3426C83.5709 69.3623 82.7759 68.5675 81.7953 68.5675C80.8147 68.5675 80.0198 69.3623 80.0198 70.3426C80.0198 71.3229 80.8147 72.1177 81.7953 72.1177Z" fill="#E6E7E8"/>
<path d="M39.1518 94.0769C40.1324 94.0769 40.9274 93.2822 40.9274 92.3019C40.9274 91.3216 40.1324 90.5268 39.1518 90.5268C38.1712 90.5268 37.3763 91.3216 37.3763 92.3019C37.3763 93.2822 38.1712 94.0769 39.1518 94.0769Z" fill="white"/>
<g opacity="0.35">
<path d="M195.171 90.1715C198.203 88.85 192.055 88.0808 185.08 87.8279C178.105 87.5749 169.667 87.5889 165.209 86.8695C160.898 86.1738 161.216 84.9367 160.853 83.8158C160.491 82.6949 158.833 81.5457 152.106 81.2965C143.724 80.986 129.901 82.1812 123.573 81.4637C117.667 80.7941 121.178 78.6938 112.567 78.6134C107.65 78.5675 101.316 79.26 95.8444 79.4271C90.7079 79.5839 86.908 79.2591 84.2413 78.8223C81.5746 78.3855 79.7172 77.8317 76.716 77.4459C68.8365 76.433 53.4204 76.7735 39.661 78.0717C25.9016 79.3699 14.1072 81.4973 7.45557 83.6045C0.803936 85.7117 -1.03379 87.7863 0.515626 89.5456C1.50501 90.6691 4.03683 91.7195 10.1784 92.1709C21.6658 93.0153 42.1181 91.5619 53.9884 92.3301C60.6042 92.7583 63.5392 93.8198 69.3439 94.4007C75.5801 95.0248 84.7093 95.0578 93.6787 95.043C112.354 95.0122 131.507 94.8204 151.038 94.4686C159.195 94.3217 167.743 94.1306 176.423 93.4304C185.103 92.7301 193.957 91.3791 195.788 90.1125" fill="white"/>
</g>
<path d="M132.545 66.5226C135.328 66.5226 137.584 64.2668 137.584 61.4842C137.584 58.7015 135.328 56.4457 132.545 56.4457C129.761 56.4457 127.505 58.7015 127.505 61.4842C127.505 64.2668 129.761 66.5226 132.545 66.5226Z" fill="#F95426"/>
<path d="M85.4602 108.773C86.4408 108.773 87.2357 107.978 87.2357 106.998C87.2357 106.018 86.4408 105.223 85.4602 105.223C84.4796 105.223 83.6847 106.018 83.6847 106.998C83.6847 107.978 84.4796 108.773 85.4602 108.773Z" fill="white"/>
<path d="M167.069 28.7548C168.05 28.7548 168.845 27.9601 168.845 26.9797C168.845 25.9994 168.05 25.2047 167.069 25.2047C166.089 25.2047 165.294 25.9994 165.294 26.9797C165.294 27.9601 166.089 28.7548 167.069 28.7548Z" fill="white"/>
<path d="M89.5661 132.757C90.5467 132.757 91.3416 131.962 91.3416 130.982C91.3416 130.002 90.5467 129.207 89.5661 129.207C88.5855 129.207 87.7906 130.002 87.7906 130.982C87.7906 131.962 88.5855 132.757 89.5661 132.757Z" fill="white"/>
<path d="M123.403 161.689C124.384 161.689 125.179 160.895 125.179 159.914C125.179 158.934 124.384 158.139 123.403 158.139C122.422 158.139 121.628 158.934 121.628 159.914C121.628 160.895 122.422 161.689 123.403 161.689Z" fill="white"/>
<path d="M137.871 187.168C138.852 187.168 139.647 186.373 139.647 185.392C139.647 184.412 138.852 183.617 137.871 183.617C136.891 183.617 136.096 184.412 136.096 185.392C136.096 186.373 136.891 187.168 137.871 187.168Z" fill="white"/>
<path d="M94.6763 187.904C95.6569 187.904 96.4518 187.109 96.4518 186.129C96.4518 185.149 95.6569 184.354 94.6763 184.354C93.6957 184.354 92.9008 185.149 92.9008 186.129C92.9008 187.109 93.6957 187.904 94.6763 187.904Z" fill="white"/>
<path d="M45.0855 203.234C46.0661 203.234 46.8611 202.439 46.8611 201.458C46.8611 200.478 46.0661 199.683 45.0855 199.683C44.1049 199.683 43.31 200.478 43.31 201.458C43.31 202.439 44.1049 203.234 45.0855 203.234Z" fill="white"/>
<path d="M104.488 118.218C105.468 118.218 106.263 117.423 106.263 116.443C106.263 115.462 105.468 114.668 104.488 114.668C103.507 114.668 102.712 115.462 102.712 116.443C102.712 117.423 103.507 118.218 104.488 118.218Z" fill="white"/>
<path d="M80.8765 78.6219C81.8571 78.6219 82.6521 77.8272 82.6521 76.8468C82.6521 75.8665 81.8571 75.0718 80.8765 75.0718C79.8959 75.0718 79.101 75.8665 79.101 76.8468C79.101 77.8272 79.8959 78.6219 80.8765 78.6219Z" fill="#F95426"/>
<path d="M98.5896 173.123L97.6464 159.449C112.643 159.449 125.787 153.696 125.787 138.703H133.018C133.008 147.829 129.377 156.578 122.923 163.03C116.469 169.483 107.718 173.113 98.5896 173.123Z" fill="#F95426"/>
<path d="M119.879 134.892C120.244 134.827 120.613 134.791 120.983 134.785C121.187 134.678 121.398 134.584 121.614 134.502L119.879 134.892Z" fill="#F95426"/>
<path d="M164.03 169.532C163.877 166.388 162.938 163.333 161.299 160.647C159.66 157.96 157.373 155.727 154.648 154.153C148.269 150.558 140.341 151.017 133.603 148.15C132.291 147.591 130.976 146.859 130.203 145.661C129.208 144.12 129.303 142.14 128.792 140.378C127.831 137.061 124.406 134.697 120.983 134.785C119.923 135.313 119.026 136.12 118.389 137.118C117.753 138.117 117.399 139.27 117.367 140.453C117.335 141.637 117.625 142.807 118.206 143.839C118.788 144.871 119.639 145.725 120.668 146.31C117.195 145.71 113.637 147.744 111.667 150.666C109.697 153.589 109.088 157.233 109.078 160.757C109.101 165.794 110.228 170.764 112.379 175.319C114.53 179.874 117.654 183.902 121.53 187.119C123.822 188.995 126.43 190.597 129.334 191.183C133.181 191.96 137.153 190.891 140.843 189.554C146.674 187.44 152.233 184.639 157.402 181.211C159.221 180.005 161.029 178.681 162.238 176.864C163.656 174.735 164.126 172.087 164.03 169.532Z" fill="#D1D3D4"/>
<path d="M120.435 146.862C121.293 147.227 122.221 147.195 123.133 147.133C124.046 147.071 124.961 147.019 125.873 146.937C127.349 146.804 128.875 146.52 129.991 145.467C130.432 145.05 129.8 144.35 129.358 144.767C128.371 145.699 126.974 145.908 125.671 146.015C124.864 146.08 124.055 146.129 123.247 146.185C122.391 146.244 121.528 146.307 120.719 145.964C120.161 145.726 119.88 146.627 120.435 146.862Z" fill="#3F3D56"/>
<path d="M129.859 145.722C130.126 145.114 130.113 144.303 130.573 143.792C130.654 143.707 130.753 143.642 130.862 143.599C130.971 143.556 131.088 143.538 131.205 143.544C131.356 143.546 131.506 143.557 131.655 143.577C131.767 143.577 131.878 143.595 131.984 143.631C131.996 143.638 131.985 143.619 131.981 143.614C131.975 143.605 131.962 143.698 131.956 143.713C131.9 143.825 131.828 143.929 131.742 144.021C131.563 144.226 131.358 144.406 131.131 144.556C130.664 144.867 130.121 145.046 129.56 145.072C129.447 145.069 129.336 145.107 129.249 145.179C129.161 145.251 129.102 145.352 129.082 145.463C129.061 145.575 129.082 145.69 129.14 145.788C129.199 145.885 129.291 145.958 129.4 145.993L130.77 146.3C131.213 146.399 131.673 146.472 132.105 146.611C132.262 146.661 132.666 146.842 132.521 147.051C132.398 147.228 132.004 147.254 131.825 147.261C131.25 147.281 130.685 147.108 130.22 146.77C129.755 146.432 129.417 145.947 129.259 145.395C129.113 144.807 128.192 145.011 128.339 145.602C128.509 146.236 128.853 146.809 129.332 147.257C129.811 147.705 130.407 148.01 131.05 148.137C131.721 148.265 132.549 148.249 133.102 147.793C133.261 147.664 133.378 147.492 133.441 147.297C133.503 147.103 133.508 146.895 133.455 146.698C133.391 146.495 133.282 146.309 133.137 146.153C132.992 145.998 132.814 145.876 132.616 145.798C132.165 145.634 131.7 145.514 131.226 145.439L129.685 145.094L129.524 146.014C130.17 145.995 130.801 145.823 131.367 145.512C131.946 145.215 132.43 144.76 132.761 144.199C132.85 144.05 132.903 143.881 132.915 143.707C132.926 143.534 132.896 143.36 132.827 143.2C132.636 142.816 132.217 142.707 131.828 142.652C131.155 142.558 130.426 142.578 129.928 143.109C129.311 143.766 129.305 144.651 128.959 145.437C128.922 145.556 128.934 145.685 128.991 145.796C129.049 145.907 129.148 145.99 129.266 146.029C129.386 146.064 129.514 146.051 129.624 145.994C129.734 145.937 129.818 145.839 129.858 145.722L129.859 145.722Z" fill="#3F3D56"/>
<path d="M129.088 141.847C132.04 141.847 134.433 139.454 134.433 136.503C134.433 133.552 132.04 131.159 129.088 131.159C126.136 131.159 123.743 133.552 123.743 136.503C123.743 139.454 126.136 141.847 129.088 141.847Z" fill="#FFAB9E"/>
<path d="M79.083 148.418C80.8132 149.21 82.7465 149.444 84.6158 149.09C86.4851 148.735 88.1983 147.809 89.5188 146.44C89.9384 146.001 89.2724 145.334 88.8518 145.773C87.6808 146.999 86.1593 147.833 84.4957 148.161C82.8321 148.489 81.1078 148.294 79.559 147.604C79.0104 147.356 78.5303 148.168 79.083 148.418V148.418Z" fill="#FFAB9E"/>
<path d="M20.5887 187.545C23.5407 187.545 25.9338 185.152 25.9338 182.201C25.9338 179.25 23.5407 176.858 20.5887 176.858C17.6367 176.858 15.2436 179.25 15.2436 182.201C15.2436 185.152 17.6367 187.545 20.5887 187.545Z" fill="#FFAB9E"/>
</g>
<defs>
<clipPath id="clip0_301_510">
<rect width="214" height="228" fill="white"/>
</clipPath>
</defs>
</svg>
